<?xml version="1.0" standalone="no"?>
<!DOCTYPE svg PUBLIC "-//W3C//DTD SVG 20010904//EN"
 "http://www.w3.org/TR/2001/REC-SVG-20010904/DTD/svg10.dtd">
<svg version="1.0" xmlns="http://www.w3.org/2000/svg"
 width="181.000000pt" height="146.000000pt" viewBox="0 0 181.000000 146.000000"
 preserveAspectRatio="xMidYMid meet">

<g transform="translate(0.000000,146.000000) scale(0.100000,-0.100000)"
fill="#000000" stroke="none">
<path d="M1374 1360 c-85 -38 -100 -142 -31 -217 l20 -23 -35 0 c-39 0 -90
-30 -122 -73 -19 -26 -21 -44 -24 -208 -4 -212 1 -229 68 -229 l40 0 0 -219
c0 -216 0 -220 22 -235 32 -22 55 -20 83 9 25 24 25 25 25 220 0 128 3 194 10
190 6 -4 10 -81 10 -199 0 -188 1 -193 23 -214 29 -27 57 -28 85 -2 21 20 22
27 22 238 l0 218 38 -4 c69 -7 72 3 72 210 0 175 -1 183 -25 223 -27 47 -74
75 -126 75 l-33 0 27 28 c105 110 -11 275 -149 212z m123 -55 c32 -32 35 -40
30 -73 -12 -70 -97 -107 -154 -67 -34 24 -47 77 -29 114 37 70 99 80 153 26z
m-17 -221 c90 -6 96 -8 127 -39 l33 -33 -2 -184 c-3 -155 -5 -183 -18 -183
-13 0 -16 29 -20 177 -4 148 -8 180 -22 194 -9 9 -23 14 -32 11 -14 -6 -16
-56 -18 -424 -3 -410 -3 -418 -23 -418 -19 0 -20 8 -23 213 l-2 212 -50 0 -50
0 -2 -212 c-3 -205 -4 -213 -23 -213 -20 0 -20 8 -25 420 -3 231 -7 421 -8
423 -1 1 -9 2 -17 2 -28 0 -35 -39 -35 -202 0 -168 -7 -201 -37 -177 -20 17
-19 329 1 368 18 34 53 58 92 63 16 2 36 4 44 5 8 1 58 0 110 -3z"/>
<path d="M850 1092 c-50 -23 -90 -78 -90 -122 0 -28 38 -100 53 -100 6 -1 -6
-10 -28 -21 -85 -42 -140 -126 -166 -256 -16 -76 -4 -113 36 -113 44 0 63 17
70 62 17 104 24 61 25 -149 0 -218 0 -222 22 -237 12 -9 32 -16 43 -16 11 0
31 7 43 16 21 14 22 22 22 140 0 76 4 124 10 124 6 0 10 -47 10 -120 0 -107 2
-122 20 -140 24 -24 57 -26 88 -4 22 15 22 19 22 230 0 204 9 261 25 164 4
-22 13 -47 22 -55 17 -18 64 -20 81 -3 39 39 -22 239 -94 312 -16 16 -44 35
-62 43 l-33 14 21 28 c61 87 15 196 -88 207 -20 2 -44 0 -52 -4z m101 -61 c20
-20 29 -39 29 -61 0 -43 -47 -90 -90 -90 -43 0 -90 47 -90 90 0 22 9 41 29 61
40 39 82 39 122 0z m49 -226 c38 -20 73 -67 100 -135 31 -79 40 -137 24 -151
-16 -13 -28 7 -43 80 -13 62 -49 131 -68 131 -10 0 -13 -52 -13 -259 0 -143
-3 -266 -6 -275 -3 -9 -14 -16 -23 -16 -35 0 -41 21 -41 152 l0 128 -40 0 -40
0 0 -128 c0 -131 -6 -152 -41 -152 -9 0 -20 7 -23 16 -3 9 -6 132 -6 275 0
214 -2 259 -14 259 -17 0 -51 -71 -71 -147 -17 -65 -27 -79 -42 -61 -15 19 19
148 55 207 46 74 79 91 179 91 55 0 94 -5 113 -15z"/>
<path d="M305 883 c-38 -10 -64 -35 -81 -78 -13 -36 -14 -50 -5 -78 7 -20 19
-41 27 -47 20 -18 18 -23 -16 -38 -43 -19 -125 -97 -140 -132 -16 -38 -6 -76
22 -83 16 -5 30 4 60 36 26 29 38 37 38 25 0 -9 -5 -20 -10 -23 -6 -3 -10 -26
-10 -50 0 -40 -3 -45 -27 -51 -60 -14 -70 -53 -27 -109 22 -29 23 -36 12 -54
-14 -23 -6 -35 30 -46 18 -5 30 1 58 29 36 36 36 37 19 62 -20 32 -13 41 20
26 33 -15 87 -15 120 0 28 13 45 4 27 -14 -18 -18 -14 -44 11 -72 29 -32 58
-40 82 -22 16 11 17 18 8 38 -9 20 -7 28 13 51 26 30 32 78 11 95 -6 6 -25 14
-40 18 -25 6 -28 11 -24 33 3 14 -1 40 -10 58 -23 50 -10 60 21 15 30 -43 47
-55 71 -46 19 8 28 38 20 74 -7 34 -115 137 -152 146 -13 4 -23 8 -23 10 0 2
11 20 25 40 44 65 23 144 -48 177 -36 17 -47 19 -82 10z m84 -59 c41 -34 43
-84 5 -119 -39 -36 -85 -34 -118 6 -34 40 -33 74 3 110 36 36 70 37 110 3z
m63 -233 c51 -33 98 -88 98 -117 0 -15 -4 -12 -19 11 -24 41 -78 85 -102 85
-16 0 -18 -5 -12 -45 l6 -45 -88 0 -87 0 6 45 c6 37 5 45 -9 45 -25 0 -65 -31
-96 -74 -31 -41 -39 -34 -14 13 16 31 78 85 116 100 13 5 53 10 90 10 55 1 72
-3 111 -28z m-2 -170 c0 -61 -55 -121 -111 -121 -57 0 -109 48 -109 101 l0 39
110 0 c102 0 110 -1 110 -19z m-230 -101 c0 -5 -6 -10 -13 -10 -7 0 -18 -5
-25 -12 -9 -9 -5 -19 18 -43 30 -31 30 -32 12 -49 -19 -16 -19 -16 -15 7 3 16
-4 34 -22 55 -15 18 -24 39 -21 47 6 17 66 21 66 5z m300 0 c12 -7 9 -16 -19
-50 -18 -23 -30 -48 -27 -56 3 -7 1 -14 -5 -14 -24 0 -21 34 4 56 34 29 34 42
2 50 -14 3 -22 10 -19 15 7 12 45 11 64 -1z"/>
</g>
</svg>
