<?xml version="1.0" standalone="no"?>
<!DOCTYPE svg PUBLIC "-//W3C//DTD SVG 20010904//EN"
 "http://www.w3.org/TR/2001/REC-SVG-20010904/DTD/svg10.dtd">
<svg version="1.0" xmlns="http://www.w3.org/2000/svg"
 width="289.000000pt" height="226.000000pt" viewBox="0 0 289.000000 226.000000"
 preserveAspectRatio="xMidYMid meet">

<g transform="translate(0.000000,226.000000) scale(0.100000,-0.100000)"
fill="#000000" stroke="none">
<path d="M1303 2008 c-69 -53 -916 -704 -965 -742 -39 -31 -53 -77 -34 -114
29 -56 80 -57 151 -3 29 22 55 37 59 34 3 -4 6 -221 6 -484 l0 -478 26 -20
c27 -21 32 -21 849 -21 817 0 822 0 849 21 l26 20 0 483 c0 265 3 485 6 489 3
3 31 -14 63 -39 78 -61 137 -59 160 6 11 33 1 75 -24 94 -7 6 -115 89 -239
185 l-226 174 0 203 0 203 -26 20 c-34 27 -74 27 -102 1 -29 -27 -32 -43 -35
-182 l-2 -117 -208 160 c-157 120 -216 159 -237 159 -19 0 -52 -17 -97 -52z
m230 -533 c137 -36 283 -148 341 -262 165 -326 -62 -699 -439 -720 -114 -7
-184 8 -285 58 -312 157 -375 554 -123 789 106 100 226 148 368 149 45 1 107
-6 138 -14z"/>
<path d="M1350 1258 c-78 -40 -107 -113 -81 -205 l9 -32 -41 -3 c-37 -3 -42
-6 -45 -30 -3 -28 -2 -28 52 -28 55 0 55 0 62 -34 12 -64 -27 -132 -87 -151
-14 -5 -19 -16 -19 -41 l0 -34 205 0 205 0 0 35 0 35 -137 0 -136 0 20 23 c33
36 43 63 43 116 l0 51 76 0 75 0 -3 28 c-3 27 -3 27 -89 30 -98 3 -99 4 -99
90 0 34 6 48 26 67 27 25 97 41 133 31 65 -19 61 -20 61 22 0 47 -10 52 -115
52 -54 0 -82 -5 -115 -22z"/>
</g>
</svg>
