<?xml version="1.0" standalone="no"?>
<!DOCTYPE svg PUBLIC "-//W3C//DTD SVG 20010904//EN"
 "http://www.w3.org/TR/2001/REC-SVG-20010904/DTD/svg10.dtd">
<svg style="transform: scale(-1,1)" version="1.0" xmlns="http://www.w3.org/2000/svg"
 width="101.000000pt" height="160.000000pt" viewBox="0 0 101.000000 160.000000"
 preserveAspectRatio="xMidYMid meet">
<metadata>
Created by potrace 1.16, written by Peter Selinger 2001-2019
</metadata>
<g transform="translate(0.000000,160.000000) scale(0.100000,-0.100000)"
fill="rgba(0,0,0,0.1)" stroke="none">
<path d="M1 1493 l0 -108 431 -360 c236 -198 439 -364 451 -370 17 -8 28 -1
74 49 80 89 80 91 -87 230 l-140 116 0 263 c0 191 -3 266 -12 275 -17 17 -294
17 -305 0 -4 -7 -10 -68 -13 -135 l-5 -123 -150 126 c-169 142 -172 144 -214
144 l-31 0 1 -107z"/>
<path d="M0 876 l0 -406 80 0 80 0 0 -235 0 -235 264 0 265 0 20 26 c20 26 21
38 21 344 l0 317 -355 294 c-195 162 -359 295 -365 297 -7 3 -10 -127 -10
-402z"/>
</g>
</svg>
