<?xml version="1.0" standalone="no"?>
<!DOCTYPE svg PUBLIC "-//W3C//DTD SVG 20010904//EN"
 "http://www.w3.org/TR/2001/REC-SVG-20010904/DTD/svg10.dtd">
<svg version="1.0" xmlns="http://www.w3.org/2000/svg"
 width="325.000000pt" height="288.000000pt" viewBox="0 0 325.000000 288.000000"
 preserveAspectRatio="xMidYMid meet">
<metadata>
Created by potrace 1.16, written by Peter Selinger 2001-2019
</metadata>
<g transform="translate(0.000000,288.000000) scale(0.100000,-0.100000)"
fill="#000000" stroke="none">
<path d="M797 2699 c-9 -5 -24 -23 -32 -39 -17 -33 -25 -167 -10 -178 15 -10
35 -59 35 -86 0 -23 -47 -75 -87 -95 -17 -9 -28 -9 -44 0 -12 6 -38 9 -58 6
-30 -5 -42 -1 -70 23 -31 27 -33 32 -28 72 3 23 11 44 17 46 40 14 25 122 -25
185 -50 63 -95 68 -145 19 -49 -49 -63 -148 -31 -216 28 -62 27 -79 -12 -108
-24 -19 -40 -24 -64 -21 -64 10 -140 -67 -131 -132 1 -12 -4 -30 -12 -39 -12
-15 -12 -22 0 -49 8 -18 14 -59 13 -92 -5 -321 -2 -540 8 -546 12 -7 27 -66
36 -136 3 -24 9 -43 14 -43 5 0 9 -39 9 -87 1 -109 13 -277 41 -543 12 -113
21 -222 20 -243 0 -22 4 -58 9 -80 8 -37 6 -47 -15 -79 -38 -57 -34 -64 41
-72 60 -6 67 -5 84 16 11 13 19 27 20 31 0 4 8 27 19 50 10 23 21 49 24 57 3
9 8 3 12 -18 4 -18 11 -35 16 -38 4 -2 4 -16 -1 -30 -6 -14 -10 -37 -10 -51 0
-25 2 -26 46 -19 26 3 60 6 77 6 29 0 30 0 25 50 -3 28 -2 50 2 50 4 0 10 15
14 33 10 47 26 16 26 -49 0 -49 2 -53 33 -67 18 -9 52 -19 75 -23 35 -5 42 -4
42 10 0 9 -7 27 -15 40 -8 13 -16 45 -17 72 -2 39 4 58 26 92 16 23 32 42 36
42 4 0 10 -17 14 -38 3 -20 13 -50 21 -66 8 -15 15 -36 15 -46 0 -51 32 -60
154 -44 61 9 69 28 28 65 -28 25 -32 35 -32 76 0 27 -4 63 -9 81 -6 18 -15 94
-21 168 l-11 135 31 62 c19 40 36 98 47 166 19 120 23 116 48 -53 9 -61 26
-132 37 -160 34 -87 78 -293 78 -366 0 -46 4 -70 13 -73 19 -6 -10 -35 -64
-63 -78 -39 -74 -44 43 -60 69 -9 108 2 108 31 0 13 4 27 10 30 6 4 10 -5 10
-19 0 -52 11 -36 74 104 9 19 16 28 16 20 0 -35 22 -90 32 -84 8 5 9 -16 4
-73 -7 -77 -6 -81 15 -86 24 -6 69 8 69 21 0 5 11 7 24 5 16 -3 28 2 37 14 12
17 100 53 128 53 6 0 11 -13 11 -29 0 -17 4 -32 9 -35 18 -12 136 -24 145 -15
6 5 5 23 -2 45 -8 27 -8 57 0 115 l12 78 18 -72 c10 -40 24 -76 31 -82 6 -5
12 -18 13 -27 3 -60 0 -58 67 -58 87 0 95 8 69 59 -14 27 -18 42 -10 47 13 8
4 181 -22 419 -16 148 -34 585 -24 585 13 0 28 -68 59 -281 62 -424 111 -696
133 -734 3 -5 5 -28 3 -52 -2 -39 0 -43 25 -49 15 -4 35 -2 45 5 10 6 29 11
42 11 12 0 32 7 44 15 24 17 67 7 75 -17 5 -14 111 -15 191 -2 40 6 48 25 26
66 -8 15 -8 22 0 28 14 8 23 89 55 475 13 160 29 319 35 355 6 36 11 88 11
116 0 37 5 56 18 67 10 10 21 17 25 17 14 0 18 -87 21 -475 2 -364 4 -416 20
-465 38 -116 49 -141 60 -137 6 2 16 -2 21 -10 6 -7 34 -20 63 -27 64 -17 69
-5 21 54 -17 21 -31 49 -30 62 1 13 6 88 12 168 5 80 11 177 13 215 1 39 7
104 14 145 6 41 16 165 23 275 6 110 16 206 22 213 12 15 4 97 -23 240 -11 57
-20 116 -20 133 0 26 3 29 34 29 43 0 71 32 55 62 -6 11 -8 26 -5 34 3 8 -3
38 -13 67 -11 29 -33 90 -51 137 -17 47 -36 100 -43 119 -7 21 -24 40 -44 51
-17 9 -43 31 -58 48 -21 25 -24 35 -16 51 19 35 13 122 -13 176 -29 63 -64 88
-117 83 l-39 -4 0 46 c0 51 -21 80 -73 99 -23 9 -37 7 -70 -7 -53 -24 -67 -41
-74 -92 -3 -22 -10 -40 -14 -40 -15 0 -10 -67 6 -80 38 -32 8 -113 -57 -150
-14 -9 -16 -6 -12 16 3 14 11 32 18 40 23 22 29 87 13 125 -28 66 -88 95 -157
75 -90 -25 -121 -113 -74 -208 8 -16 21 -42 30 -59 9 -17 14 -33 11 -36 -8 -7
-28 7 -23 16 3 4 -3 7 -12 7 -58 0 -80 8 -115 39 -38 33 -39 35 -27 69 6 19
16 36 23 39 13 4 15 71 4 127 -10 50 -68 110 -106 110 -33 0 -96 -48 -106 -81
-6 -18 -11 -15 -44 23 -36 40 -40 42 -97 43 -131 3 -180 -101 -116 -247 15
-34 26 -71 24 -80 -4 -20 -57 -55 -101 -68 l-29 -8 5 42 c3 22 10 49 14 58 15
28 10 84 -10 132 -33 75 -112 99 -169 51 l-29 -24 -13 24 c-20 37 -48 51 -116
58 -54 6 -66 4 -95 -16 -46 -31 -81 -116 -73 -174 5 -42 5 -43 -25 -43 -19 0
-36 8 -48 23 -10 13 -26 26 -37 30 -15 6 -18 14 -13 49 3 23 13 45 21 50 20
11 20 37 1 108 -19 73 -59 110 -118 110 -23 0 -50 -5 -60 -11z m-114 -1490 c4
-30 19 -103 32 -164 39 -178 39 -182 11 -257 -14 -37 -37 -113 -52 -170 -42
-167 -49 -156 -47 75 2 111 7 252 13 313 5 60 10 145 10 188 0 92 20 102 33
15z"/>
</g>
</svg>
