<?xml version="1.0" standalone="no"?>
<!DOCTYPE svg PUBLIC "-//W3C//DTD SVG 20010904//EN"
 "http://www.w3.org/TR/2001/REC-SVG-20010904/DTD/svg10.dtd">
<svg version="1.0" xmlns="http://www.w3.org/2000/svg"
 width="428.000000pt" height="518.000000pt" viewBox="0 0 428.000000 518.000000"
 preserveAspectRatio="xMidYMid meet">

<g transform="translate(0.000000,518.000000) scale(0.100000,-0.100000)"
fill="#000000" stroke="none">
<path d="M2573 4986 c-20 -12 -21 -13 -3 -35 9 -13 22 -21 29 -17 6 4 11 0 11
-9 0 -11 5 -15 16 -11 11 4 14 1 10 -12 -8 -26 10 -50 26 -34 6 6 8 12 3 12
-16 0 30 29 46 30 9 0 19 7 23 15 3 8 12 15 20 15 9 0 13 6 10 14 -5 13 -24
15 -65 7 -4 0 -9 -10 -12 -21 -5 -21 -27 -28 -27 -9 0 5 -4 7 -10 4 -5 -3 -19
10 -31 29 -12 20 -22 36 -22 35 -1 -1 -12 -6 -24 -13z"/>
<path d="M2549 4894 c-6 -8 -20 -14 -30 -14 -31 0 -45 -25 -44 -79 1 -28 -2
-51 -6 -51 -20 0 -16 -35 6 -64 20 -26 31 -32 50 -28 14 2 25 8 25 13 0 19 21
8 30 -16 5 -14 17 -25 26 -25 10 0 14 5 11 14 -8 20 20 74 44 86 25 14 25 46
-1 53 -15 4 -18 11 -14 32 4 22 2 26 -11 21 -9 -3 -21 -6 -26 -6 -5 0 -9 -8
-10 -17 -1 -12 -4 -9 -8 7 -5 14 -4 29 1 35 15 16 9 43 -12 48 -10 3 -24 -1
-31 -9z"/>
<path d="M2676 4858 c-9 -35 -8 -38 20 -38 22 0 25 4 22 27 -4 35 -33 43 -42
11z"/>
<path d="M2457 4590 c-3 -13 -11 -16 -31 -13 -16 3 -41 -2 -62 -13 -28 -15
-38 -16 -53 -7 -15 10 -25 9 -48 -2 -39 -19 -73 -21 -106 -5 -21 10 -30 11
-39 2 -9 -9 -16 -8 -27 2 -19 16 -87 37 -95 28 -3 -3 -6 -13 -6 -23 0 -9 -7
-19 -15 -23 -10 -3 -15 -16 -13 -35 1 -16 -3 -36 -10 -44 -7 -8 -10 -27 -6
-44 6 -28 4 -30 -26 -31 -43 -1 -47 -7 -27 -41 22 -37 22 -53 0 -49 -11 2 -21
-7 -27 -24 -10 -29 -7 -38 16 -42 25 -5 48 -18 48 -27 0 -5 -11 -7 -24 -3 -19
4 -26 1 -31 -17 l-7 -22 -19 24 c-17 22 -20 22 -32 8 -7 -9 -21 -18 -32 -20
-17 -4 -20 -13 -21 -69 0 -36 4 -71 9 -77 7 -9 5 -13 -6 -13 -32 0 -22 -119
13 -140 7 -4 9 -13 6 -19 -11 -16 -46 -13 -46 4 0 8 -4 15 -9 15 -13 0 -19 46
-8 65 6 11 5 21 -2 28 -7 7 -12 6 -17 -6 -11 -30 -24 -18 -24 22 0 28 -8 47
-30 72 -28 32 -30 33 -47 17 -11 -12 -16 -30 -15 -53 3 -39 -11 -46 -28 -15
-16 30 -44 26 -38 -5 4 -19 1 -25 -13 -25 -21 0 -33 -31 -24 -60 9 -28 58 -53
74 -37 8 8 11 5 11 -15 0 -39 46 -89 75 -82 15 4 24 0 29 -11 3 -10 12 -15 19
-12 10 4 12 -3 9 -24 -4 -24 -1 -29 16 -29 12 0 24 5 27 10 3 6 11 10 17 10 7
0 7 -4 1 -12 -6 -7 -13 -22 -15 -33 -3 -11 -9 -28 -13 -37 -5 -14 -2 -18 14
-18 l21 0 -20 -20 c-11 -11 -33 -20 -48 -20 -16 0 -37 -6 -48 -14 -16 -13 -17
-18 -6 -36 11 -18 9 -22 -14 -32 -23 -11 -25 -16 -20 -47 5 -31 15 -45 40 -54
16 -5 -14 -47 -34 -47 -13 0 -20 -7 -20 -20 0 -28 16 -32 75 -20 28 6 62 12
77 13 15 2 39 14 53 27 21 19 25 21 25 7 0 -9 -4 -17 -10 -17 -5 0 -10 -9 -10
-21 0 -11 -4 -17 -10 -14 -6 4 -17 1 -25 -5 -17 -14 -21 -35 -5 -25 23 14 7
-32 -21 -61 -17 -18 -37 -43 -43 -56 -7 -14 -19 -22 -30 -20 -10 2 -27 -4 -37
-14 -10 -9 -19 -14 -19 -10 0 4 -10 0 -22 -8 -29 -20 -52 -105 -31 -113 8 -3
19 -1 26 6 19 19 27 12 21 -18 -7 -35 11 -49 35 -27 10 9 22 16 28 16 18 0 38
32 35 56 -2 13 1 24 7 24 9 0 61 99 61 118 1 10 40 59 40 49 0 -4 -7 -22 -16
-38 -12 -23 -13 -38 -6 -59 6 -16 8 -31 5 -34 -4 -3 0 -17 7 -31 9 -18 10 -28
2 -37 -6 -8 -14 -38 -17 -68 -4 -30 -14 -70 -23 -88 -22 -42 -7 -68 34 -64 41
5 54 19 53 61 -1 20 4 49 10 64 6 16 11 42 11 58 0 17 8 36 20 46 11 10 20 25
20 34 0 12 6 16 20 12 11 -3 20 -11 20 -18 0 -16 35 -47 43 -38 4 3 7 21 7 39
0 18 4 35 9 38 11 7 20 -49 10 -65 -9 -15 17 -56 41 -64 25 -8 35 -66 14 -82
-20 -15 -44 -59 -44 -83 0 -9 -8 -28 -18 -41 -23 -32 -44 -80 -37 -87 3 -3 20
0 38 6 19 7 39 12 46 12 7 0 22 11 33 25 11 14 28 25 38 25 10 0 23 12 30 30
15 36 36 54 64 55 15 0 22 7 24 26 2 15 13 32 27 39 34 18 84 -3 97 -42 19
-54 34 -26 42 77 1 22 8 53 15 70 10 25 10 31 -5 42 -10 7 -30 13 -46 13 -23
0 -28 4 -28 25 0 17 -6 25 -17 25 -10 0 -30 15 -45 34 -22 28 -32 33 -55 28
-15 -3 -33 -12 -40 -21 -9 -12 -16 -14 -30 -5 -32 20 -98 144 -91 172 4 14 0
22 -13 25 -33 9 -35 38 -5 62 21 17 26 28 22 43 -5 14 -1 24 11 31 10 6 14 11
8 11 -25 3 -44 9 -61 18 -13 7 -24 6 -40 -4 -16 -11 -31 -12 -62 -5 -40 8 -42
8 -62 -26 -11 -19 -20 -40 -20 -48 0 -8 -10 -19 -21 -26 -13 -7 -19 -7 -15 -1
3 6 2 13 -4 17 -6 4 10 27 36 54 44 46 49 48 90 43 27 -3 50 0 58 7 8 7 23 11
33 10 28 -4 62 10 73 32 6 10 30 28 54 38 23 11 49 27 56 36 7 8 25 15 40 15
16 0 30 6 32 12 3 7 15 13 29 13 20 0 25 6 30 38 7 43 4 39 48 62 29 15 32 20
28 48 -2 18 2 44 9 58 19 37 -2 56 -45 41 -37 -13 -40 -10 -34 39 6 39 -9 71
-31 68 -47 -6 -47 1 -1 67 43 63 52 102 17 71 -23 -20 -42 -10 -42 21 1 21 16
39 69 82 37 30 77 70 89 87 12 18 32 35 45 38 23 6 77 77 77 101 0 6 -6 14
-14 17 -13 5 -12 12 4 44 10 21 15 41 12 44 -4 4 -32 9 -64 12 -48 5 -57 3
-61 -13z m-665 -832 c-7 -7 -12 -8 -12 -2 0 14 12 26 19 19 2 -3 -1 -11 -7
-17z"/>
<path d="M1582 4475 c-30 -25 -57 -45 -61 -45 -4 0 -23 -13 -41 -30 -18 -16
-42 -30 -52 -30 -25 0 -52 -55 -42 -89 4 -14 6 -34 5 -44 -1 -10 3 -24 9 -32
8 -9 8 -15 0 -20 -8 -5 -8 -11 1 -21 9 -11 8 -14 -5 -14 -22 0 -20 -15 6 -45
26 -30 42 -32 60 -6 7 10 27 25 45 35 21 11 30 21 27 31 -4 10 0 15 14 15 31
0 67 57 67 105 0 30 4 40 16 40 21 0 49 24 49 41 0 17 -22 18 -39 2 -11 -11
-12 -10 -6 2 5 8 13 21 19 29 24 30 14 122 -13 121 -3 0 -30 -21 -59 -45z"/>
<path d="M1342 4108 c6 -17 -32 -57 -48 -51 -8 3 -19 -6 -26 -23 -10 -22 -10
-28 0 -32 20 -6 43 -33 37 -42 -3 -5 -6 -31 -7 -57 0 -26 -4 -57 -8 -67 -8
-22 7 -70 32 -106 17 -24 18 -24 32 -5 10 14 13 32 9 57 -3 22 -1 44 6 52 7 9
8 22 3 37 -10 26 -8 37 14 86 25 55 28 92 10 99 -9 3 -14 10 -11 15 8 12 -17
49 -33 49 -8 0 -12 -5 -10 -12z"/>
<path d="M2435 4071 c-22 -11 -48 -22 -59 -25 -15 -5 -17 -11 -10 -34 4 -15 8
-41 8 -59 0 -29 1 -31 24 -22 19 7 29 6 43 -7 20 -18 25 -49 10 -59 -6 -3 -9
-24 -8 -46 1 -33 -4 -44 -23 -60 -14 -10 -30 -19 -35 -19 -6 0 -15 -20 -21
-45 -10 -42 -9 -44 11 -39 13 3 30 -3 44 -16 23 -19 26 -19 49 -4 13 9 32 14
42 11 12 -3 20 2 23 14 3 12 14 19 30 19 14 0 27 5 29 12 7 20 75 -39 81 -70
7 -36 66 -69 94 -53 27 14 53 55 53 82 0 12 10 37 21 56 12 19 23 54 25 78 2
32 13 59 44 103 41 58 41 60 29 100 -19 65 -54 92 -104 82 -42 -8 -110 -8
-163 2 -47 7 -67 7 -75 -1 -15 -15 -36 -14 -71 4 -36 19 -43 19 -91 -4z"/>
<path d="M1543 3733 c-21 -8 -15 -23 10 -23 15 0 26 -9 35 -30 14 -32 30 -38
50 -18 31 31 1 78 -41 63 -8 -4 -18 -2 -22 4 -7 12 -13 12 -32 4z"/>
<path d="M1266 3699 c-19 -32 -15 -79 7 -79 6 1 22 17 34 36 19 29 21 38 10
54 -17 28 -30 25 -51 -11z"/>
<path d="M2595 3670 c-3 -5 -14 -10 -24 -10 -10 0 -21 -9 -24 -21 -5 -17 -9
-19 -26 -9 -17 8 -26 8 -43 -5 -29 -19 -47 -19 -69 1 -22 20 -106 25 -113 7
-3 -7 -17 -13 -30 -13 -14 0 -45 -13 -69 -30 -25 -16 -48 -30 -52 -30 -3 0
-20 -13 -37 -30 -19 -19 -24 -30 -15 -30 8 0 21 -7 28 -16 11 -14 10 -18 -6
-31 -18 -14 -16 -14 24 -8 24 4 53 3 65 -3 11 -6 29 -13 39 -16 15 -5 17 -12
11 -41 -6 -31 -2 -38 36 -72 38 -35 63 -45 146 -59 35 -7 70 21 40 32 -9 3
-16 10 -16 15 0 17 43 58 74 70 17 7 43 21 58 31 18 13 33 16 48 10 19 -7 30
-1 61 32 22 22 39 45 39 51 0 5 3 19 5 30 4 15 -1 23 -22 33 -15 6 -32 12 -39
12 -13 0 -24 22 -24 50 0 22 -56 65 -65 50z"/>
<path d="M1655 3650 c-8 -26 -1 -35 20 -26 18 7 17 37 -2 43 -6 2 -14 -5 -18
-17z"/>
<path d="M1230 3595 c0 -8 5 -15 10 -15 6 0 10 7 10 15 0 8 -4 15 -10 15 -5 0
-10 -7 -10 -15z"/>
<path d="M1527 3500 c-24 -22 -59 -43 -76 -46 -27 -6 -32 -11 -29 -33 4 -38
28 -36 68 3 19 20 40 36 46 36 14 0 54 43 54 58 0 26 -22 20 -63 -18z"/>
<path d="M2135 3425 c-16 -8 -43 -26 -60 -39 -32 -26 -32 -25 22 -42 9 -2 10
-10 4 -28 -7 -18 -5 -33 11 -62 11 -22 24 -40 29 -42 5 -2 9 -12 9 -22 0 -22
29 -48 38 -33 4 5 25 13 48 16 37 6 43 4 73 -27 l33 -34 24 21 c27 23 31 37
10 37 -34 0 -28 54 7 64 27 7 19 15 -20 20 -39 4 -122 71 -125 100 0 11 0 32
1 45 2 19 -2 23 -18 18 -11 -3 -25 1 -32 9 -14 17 -17 17 -54 -1z"/>
<path d="M2562 3371 c-28 -15 -58 -36 -66 -47 -13 -17 -12 -21 2 -37 15 -17
15 -20 -8 -38 -14 -10 -39 -19 -56 -19 -32 0 -74 -24 -62 -35 3 -4 41 -8 84
-8 55 -2 79 2 82 11 8 23 66 71 77 63 12 -10 66 12 85 34 15 18 7 30 -32 49
-12 6 -23 20 -23 31 0 28 -22 26 -83 -4z"/>
<path d="M1647 3222 c-10 -10 -17 -28 -17 -40 0 -42 33 -19 45 31 8 31 -4 35
-28 9z"/>
<path d="M2618 3185 c-14 -32 -36 -38 -89 -26 -24 6 -63 11 -86 11 -36 0 -43
-3 -43 -19 0 -10 -7 -21 -15 -25 -8 -3 -15 -16 -15 -29 0 -18 8 -25 39 -33 32
-9 40 -8 48 5 8 13 13 13 25 4 8 -7 18 -10 21 -7 4 4 17 0 31 -9 21 -14 25
-14 30 -2 3 8 13 15 22 15 20 0 73 16 120 36 30 13 61 41 53 47 -35 27 -70 45
-97 50 -28 6 -34 3 -44 -18z"/>
<path d="M2757 3122 c-17 -23 -76 -54 -88 -46 -6 3 -21 -1 -34 -10 -13 -9 -33
-16 -44 -16 -11 0 -21 -6 -24 -12 -3 -10 -9 -10 -26 0 -12 7 -31 10 -42 7 -11
-4 -19 -2 -19 5 0 6 -5 8 -11 5 -6 -4 -8 -13 -5 -21 3 -8 -1 -31 -8 -52 -8
-20 -17 -54 -21 -74 -5 -33 -3 -38 13 -38 10 0 23 5 29 11 18 18 42 4 36 -20
-4 -17 -1 -21 20 -21 17 0 28 -7 32 -20 4 -14 15 -20 34 -20 26 0 28 -3 25
-35 -4 -50 10 -51 44 -4 32 43 127 129 143 129 15 0 10 34 -11 65 -25 38 -25
62 0 70 26 8 53 60 45 85 -4 11 -9 21 -13 21 -46 8 -63 6 -75 -9z"/>
<path d="M2849 3052 c-6 -19 -20 -32 -35 -36 -29 -8 -30 -16 -5 -48 11 -13 23
-36 26 -50 5 -20 0 -29 -32 -50 -42 -29 -113 -96 -113 -108 0 -4 7 -13 16 -20
30 -26 34 -46 19 -90 -18 -51 -13 -61 25 -53 22 4 31 1 36 -11 8 -20 36 -21
73 -1 16 8 31 12 34 9 3 -3 8 5 12 17 13 40 66 89 97 89 26 0 28 2 25 33 -2
19 -7 38 -10 44 -4 6 -9 34 -12 64 -10 102 -14 112 -71 157 -30 24 -54 49 -54
57 0 28 -21 26 -31 -3z"/>
<path d="M1906 3017 c-15 -11 -17 -23 -13 -65 6 -65 21 -84 61 -80 33 3 33 3
27 94 -1 20 -35 64 -49 64 -5 0 -16 -6 -26 -13z"/>
<path d="M2292 2877 c-14 -6 -20 -16 -18 -26 8 -24 -19 -54 -42 -47 -23 8 -52
-30 -52 -69 0 -26 -9 -32 -26 -15 -13 13 -54 -15 -54 -37 0 -10 -6 -13 -17 -9
-9 4 -32 -1 -50 -11 -26 -14 -37 -15 -52 -6 -14 9 -21 9 -30 0 -22 -22 -9 -69
31 -113 10 -11 21 -31 23 -44 4 -22 21 -40 38 -40 10 0 9 22 -4 59 -16 45 -1
58 40 36 18 -9 35 -23 38 -31 7 -20 63 -48 73 -37 5 4 10 25 12 46 l3 39 24
-21 c34 -30 99 -24 122 11 4 6 22 13 40 17 25 5 35 13 37 29 2 16 10 22 27 22
54 0 173 69 158 93 -3 5 -7 19 -8 31 -1 11 -3 24 -4 29 0 4 -10 7 -20 7 -11 0
-23 9 -26 20 -5 14 -15 20 -37 20 -26 0 -30 3 -26 23 4 23 4 23 -29 8 -19 -9
-36 -25 -39 -38 -10 -37 -54 -22 -54 19 0 26 -49 48 -78 35z"/>
<path d="M1309 2852 c-1 -4 -1 -15 0 -24 2 -12 -5 -18 -17 -18 -10 0 -24 -10
-30 -22 -9 -19 -11 -20 -11 -5 -1 16 -6 17 -33 12 -18 -4 -37 -11 -42 -16 -6
-5 -20 -9 -32 -9 -12 0 -24 -7 -28 -15 -3 -9 -18 -15 -40 -15 -27 0 -36 -5
-42 -22 -9 -32 -34 -58 -49 -52 -26 10 -26 -17 -1 -43 32 -32 33 -41 4 -45
-13 -2 -22 -9 -20 -16 1 -6 -5 -12 -12 -12 -21 0 -63 -42 -59 -60 4 -17 47
-40 74 -40 10 0 21 -5 24 -10 4 -7 12 -7 25 0 10 5 25 10 33 10 24 0 -3 -48
-31 -55 -12 -3 -30 -12 -40 -20 -9 -8 -26 -21 -37 -30 -20 -15 -20 -15 -1 -30
19 -14 18 -15 -15 -16 -19 -1 -38 0 -44 1 -49 13 -63 11 -70 -10 l-7 -23 -22
26 c-18 22 -31 26 -104 31 -68 5 -84 3 -88 -9 -4 -9 -14 -13 -28 -10 -31 8
-42 -5 -49 -57 -7 -53 7 -74 23 -34 13 35 19 33 17 -8 -2 -29 -5 -33 -30 -34
-50 -1 -75 -42 -25 -42 11 0 29 -12 40 -26 19 -23 25 -25 69 -19 41 6 49 4 49
-9 0 -14 -13 -20 -65 -28 -16 -3 -20 -11 -20 -41 0 -32 -3 -37 -22 -37 -13 0
-23 -4 -23 -10 0 -5 -6 -10 -14 -10 -24 0 -29 -20 -10 -41 10 -11 12 -19 6
-19 -7 0 -12 -6 -12 -12 0 -13 44 -38 67 -38 7 0 13 -7 13 -16 0 -9 9 -18 20
-21 11 -3 20 -12 20 -19 0 -16 91 -18 173 -5 37 6 47 5 47 -6 0 -15 -44 -35
-67 -31 -18 4 -75 -96 -67 -117 8 -19 -14 -75 -29 -75 -5 0 -19 -10 -31 -23
-11 -12 -34 -32 -50 -43 -36 -26 -28 -46 15 -34 26 8 30 6 27 -8 -2 -9 -21
-26 -42 -36 -34 -17 -37 -21 -22 -31 21 -16 22 -65 1 -65 -8 0 -15 7 -15 15 0
8 -7 15 -15 15 -8 0 -15 -4 -15 -9 0 -5 -9 -7 -19 -4 -32 8 -101 -38 -101 -68
0 -10 -6 -20 -12 -23 -7 -3 26 -4 75 -1 48 3 87 3 87 0 0 -3 -21 -16 -47 -29
-27 -13 -58 -34 -71 -46 -22 -21 -22 -22 -5 -51 9 -16 22 -28 28 -27 5 1 20
-3 32 -10 12 -7 29 -9 37 -6 9 3 16 2 16 -2 0 -10 -50 -54 -62 -54 -4 0 -8 -6
-8 -13 0 -11 11 -12 47 -6 71 12 85 11 77 -3 -23 -37 -2 -68 34 -52 9 4 27 9
40 10 19 2 21 0 12 -11 -17 -21 4 -27 36 -10 16 8 35 15 41 15 7 0 27 9 44 19
17 11 38 17 45 14 8 -3 20 0 28 6 7 6 21 9 30 5 10 -4 18 0 22 11 5 12 14 15
30 11 17 -5 24 -2 24 9 0 8 5 15 10 15 6 0 21 10 34 23 12 13 42 28 64 35 23
7 42 17 42 22 0 6 7 10 15 10 8 0 19 9 25 20 6 11 16 17 25 14 8 -4 15 -1 15
5 0 6 7 11 16 11 9 0 21 13 27 30 14 37 50 49 132 47 47 -2 64 2 77 16 15 16
24 17 78 9 56 -8 62 -7 72 11 7 14 7 22 -2 27 -16 10 -4 66 21 102 11 14 19
39 19 55 0 30 21 97 45 143 9 17 13 42 10 62 -12 72 -29 139 -37 144 -16 10
-8 24 13 24 18 0 19 2 9 15 -8 9 -10 28 -6 48 5 27 2 39 -19 61 -20 22 -25 36
-23 73 1 37 -3 49 -22 63 -12 9 -21 21 -18 26 3 5 2 19 -3 31 -6 18 -16 22
-49 21 -49 0 -68 13 -45 32 24 20 18 38 -15 45 -21 5 -30 13 -30 26 0 11 -7
31 -16 45 -16 23 -18 24 -35 8 -11 -10 -19 -31 -19 -49 0 -39 -13 -51 -62 -60
-41 -8 -78 8 -185 76 -28 18 -53 62 -53 94 0 6 27 24 60 40 60 29 75 45 43 45
-10 0 -25 5 -33 10 -13 9 -13 12 3 24 9 7 27 12 40 10 12 -3 29 1 37 8 26 21
58 84 63 123 3 20 7 37 8 38 2 1 31 16 64 32 66 33 82 60 40 71 -14 3 -32 15
-39 25 -13 20 -75 44 -77 31z m-664 -1832 c-3 -5 -11 -10 -16 -10 -6 0 -7 5
-4 10 3 6 11 10 16 10 6 0 7 -4 4 -10z"/>
<path d="M1630 2806 c0 -8 7 -17 16 -20 31 -12 9 -15 -35 -5 -55 12 -81 -3
-55 -32 10 -11 13 -25 9 -39 -4 -13 2 -39 15 -68 13 -26 24 -60 25 -77 2 -26
7 -30 28 -27 29 3 44 -13 29 -31 -5 -7 -9 -27 -9 -45 0 -32 2 -33 36 -30 26 2
39 9 46 26 5 12 13 22 17 22 11 0 10 -5 -3 -34 -9 -18 -22 -26 -53 -30 -58 -9
-79 -44 -65 -107 6 -24 15 -52 20 -63 8 -14 6 -23 -11 -41 -12 -13 -20 -31
-18 -40 4 -24 44 -38 60 -22 7 7 25 20 39 29 17 11 30 31 36 55 8 33 13 38 36
36 32 -2 72 40 86 92 7 26 5 45 -7 78 -22 59 -30 67 -66 67 -26 1 -28 2 -13
11 24 14 23 69 -2 76 -10 2 -24 16 -31 29 -8 13 -17 24 -22 24 -4 0 -8 11 -8
25 0 14 -4 25 -10 25 -5 0 -10 13 -10 29 0 16 -7 35 -16 42 -9 7 -20 23 -25
36 -9 25 -39 32 -39 9z"/>
<path d="M1495 2757 c-16 -5 -39 -14 -50 -20 -11 -6 -41 -21 -67 -34 -38 -19
-48 -29 -48 -49 0 -13 5 -24 12 -24 6 0 26 -11 45 -26 18 -14 37 -23 42 -20
15 10 41 -5 42 -23 0 -24 55 -64 78 -56 30 9 45 57 31 99 -6 20 -16 38 -21 41
-5 4 -9 25 -9 48 -1 57 -16 76 -55 64z"/>
<path d="M2616 2690 c-32 -27 -70 -51 -83 -55 -43 -10 -71 -35 -79 -68 -3 -18
-15 -43 -25 -56 -11 -13 -19 -32 -19 -43 0 -11 -5 -29 -11 -40 -9 -17 -6 -27
19 -62 16 -22 32 -52 35 -66 3 -14 15 -35 27 -47 11 -12 20 -29 20 -37 0 -51
31 -60 56 -17 10 18 23 27 31 24 8 -3 21 4 29 16 13 18 22 20 49 15 27 -5 35
-2 44 14 6 11 22 23 35 26 20 5 26 15 31 44 9 54 22 82 40 82 22 0 19 38 -4
45 -18 5 -31 43 -31 90 0 26 -22 39 -39 22 -8 -8 -15 -7 -28 6 -15 15 -15 22
-4 67 12 46 11 53 -4 71 -10 10 -21 19 -24 18 -3 0 -33 -22 -65 -49z"/>
<path d="M2953 2653 c-10 -16 -22 -32 -28 -36 -5 -5 0 -5 13 -2 22 6 102 -22
102 -37 0 -4 7 -5 15 -2 19 8 19 62 1 87 -8 10 -27 17 -49 17 -29 0 -40 -6
-54 -27z"/>
<path d="M1305 2583 c-29 -53 -54 -73 -94 -74 -34 -1 -35 -1 -9 -9 15 -4 33
-13 40 -19 7 -7 21 -17 30 -24 16 -11 16 -15 4 -39 -17 -32 -12 -39 24 -32 23
5 32 0 55 -30 l28 -37 24 23 c20 18 27 20 43 10 16 -10 20 -8 25 8 4 11 15 20
26 20 10 0 19 5 19 10 0 6 11 28 25 50 14 22 25 42 25 45 0 3 -13 5 -28 5 -16
0 -37 9 -47 20 -10 11 -27 20 -37 20 -16 0 -17 3 -8 20 9 18 8 20 -15 20 -14
0 -43 11 -63 25 -20 14 -39 25 -42 25 -3 0 -14 -17 -25 -37z"/>
<path d="M2945 2602 c-11 -2 -23 -9 -27 -16 -4 -6 -15 -11 -25 -11 -10 -1 -37
-7 -61 -15 -39 -12 -43 -16 -37 -39 3 -14 17 -36 31 -49 13 -13 24 -29 24 -37
0 -19 37 -19 74 0 38 20 73 19 85 -2 6 -12 13 -14 23 -7 7 6 44 12 83 13 38 1
71 4 73 6 3 2 -12 12 -32 21 -20 10 -36 22 -36 26 0 5 -10 23 -22 41 -13 18
-24 34 -25 36 -1 2 -10 -2 -18 -9 -13 -11 -18 -10 -31 9 -9 12 -20 19 -25 15
-6 -3 -16 0 -22 8 -7 8 -21 13 -32 10z"/>
<path d="M1584 2496 c4 -15 0 -28 -9 -36 -24 -20 -18 -30 19 -30 35 0 50 17
40 45 -4 8 -1 22 6 30 11 13 7 15 -25 15 -34 0 -37 -2 -31 -24z"/>
<path d="M1195 2437 c-82 -41 -85 -44 -73 -75 11 -29 29 -43 130 -99 50 -28
61 -30 93 -22 48 14 50 41 7 97 -21 27 -31 33 -52 29 -48 -10 -58 9 -36 64 11
26 -24 29 -69 6z"/>
<path d="M2935 2423 c-16 -10 -50 -17 -74 -18 -49 -1 -54 -7 -68 -70 -6 -29
-15 -43 -35 -53 -16 -7 -28 -17 -28 -23 0 -13 80 -89 94 -89 6 0 17 -9 24 -21
10 -16 20 -19 38 -15 15 4 33 1 47 -9 26 -18 50 -18 102 0 21 8 42 12 44 9 3
-3 6 -26 7 -52 3 -62 14 -112 25 -112 5 0 9 7 9 15 0 8 7 15 16 15 20 0 44 59
44 109 0 45 25 67 60 56 14 -4 20 -2 20 9 0 9 5 16 10 16 6 0 23 12 37 26 19
19 33 25 54 22 34 -5 36 1 10 33 -10 13 -30 46 -44 73 -36 68 -75 89 -157 87
-35 -1 -70 -7 -76 -12 -6 -5 -19 -7 -28 -3 -9 3 -24 0 -32 -7 -14 -12 -19 -11
-32 9 -17 26 -27 27 -67 5z"/>
<path d="M1537 2390 c-6 -17 -20 -30 -32 -32 -16 -2 -20 -10 -20 -43 0 -36 3
-40 33 -49 34 -9 35 -15 17 -58 -6 -15 -1 -18 32 -18 51 0 78 26 65 61 -5 13
-13 47 -16 75 -6 41 -4 53 9 64 16 13 16 15 -2 21 -10 4 -31 8 -46 8 -23 1
-31 -5 -40 -29z"/>
<path d="M2160 2357 c-13 -7 -31 -24 -39 -38 -9 -14 -23 -37 -33 -50 -9 -13
-19 -38 -23 -56 -6 -29 -4 -32 22 -35 51 -6 142 102 114 136 -6 7 -9 20 -5 29
8 21 -8 28 -36 14z"/>
<path d="M2629 2232 c-1 -4 -1 -11 0 -16 1 -5 -6 -17 -15 -27 -9 -10 -14 -25
-10 -34 4 -11 -2 -19 -19 -25 -21 -8 -25 -16 -25 -53 0 -24 3 -47 8 -51 4 -4
8 -20 9 -34 5 -49 6 -52 24 -52 10 0 21 -4 24 -10 7 -12 45 10 45 26 0 15 23
24 60 24 16 0 32 5 35 10 3 6 17 10 31 10 13 0 24 3 25 8 1 4 2 22 4 40 1 18
10 41 18 50 15 16 13 20 -21 47 -20 17 -51 44 -70 62 -26 26 -40 31 -77 31
-25 0 -46 -3 -46 -6z"/>
<path d="M3298 2187 c-23 -21 -48 -37 -57 -36 -35 3 -41 -2 -41 -32 0 -18 -5
-49 -12 -71 -10 -34 -9 -40 8 -53 27 -21 42 -18 46 8 3 21 8 22 78 22 l75 0
10 -43 c10 -38 13 -42 24 -28 17 20 51 21 51 1 0 -20 19 -19 27 1 3 9 -7 32
-26 57 -74 99 -100 187 -55 187 9 0 14 5 12 12 -3 7 -25 12 -51 13 -41 0 -52
-4 -89 -38z"/>
<path d="M2862 2098 c-29 -32 -28 -50 6 -85 15 -16 35 -39 44 -51 20 -25 56
-28 84 -7 10 8 36 15 57 15 42 0 42 -1 22 47 -10 23 -13 49 -9 70 6 33 6 34
-22 26 -34 -9 -98 -9 -134 1 -19 6 -30 2 -48 -16z"/>
<path d="M545 2060 c-3 -5 1 -10 10 -10 9 0 13 5 10 10 -3 6 -8 10 -10 10 -2
0 -7 -4 -10 -10z"/>
<path d="M2831 2001 c-8 -15 -18 -20 -30 -16 -10 3 -24 -1 -31 -10 -7 -8 -29
-15 -50 -15 -29 0 -39 -5 -43 -19 -6 -24 10 -41 40 -41 15 0 27 -9 35 -25 12
-26 53 -40 99 -33 18 2 25 10 27 33 2 17 8 34 13 40 16 16 10 39 -20 74 -28
34 -28 35 -40 12z"/>
<path d="M3283 2013 c-25 -3 -33 -9 -33 -24 0 -10 -6 -19 -14 -19 -18 0 -29
-27 -14 -36 6 -4 16 0 23 9 15 21 44 22 51 2 8 -21 24 -19 24 3 0 9 15 26 33
36 l32 19 -25 8 c-27 8 -30 8 -77 2z"/>
<path d="M3133 1975 c-5 -9 -28 -16 -59 -18 -59 -5 -118 -32 -108 -50 21 -36
50 -57 80 -57 21 0 34 -6 39 -17 5 -15 9 -13 24 15 9 18 31 41 49 52 36 22 53
67 31 81 -21 13 -47 11 -56 -6z"/>
<path d="M3352 1964 c-12 -8 -20 -19 -17 -24 6 -9 -25 -30 -45 -30 -7 0 -10 7
-6 15 7 20 -18 19 -35 -1 -18 -21 -15 -112 4 -131 11 -11 12 -22 5 -46 -6 -18
-13 -44 -18 -59 -9 -32 20 -130 41 -136 8 -3 21 -11 31 -19 9 -8 19 -10 22 -5
3 5 30 7 60 4 47 -4 55 -2 65 17 7 11 18 21 25 21 8 0 19 6 25 14 10 11 7 17
-10 30 l-22 15 47 48 c42 42 47 52 43 80 -10 61 -56 147 -88 166 -30 17 -31
17 -49 -5 -20 -25 -26 -19 -32 31 -4 31 -17 35 -46 15z"/>
<path d="M478 1963 c7 -3 16 -2 19 1 4 3 -2 6 -13 5 -11 0 -14 -3 -6 -6z"/>
<path d="M2553 1925 c6 -33 3 -43 -15 -56 -30 -23 -14 -39 40 -39 37 0 52 6
70 25 34 35 26 57 -23 61 -26 2 -46 11 -59 26 l-19 23 6 -40z"/>
<path d="M2906 1914 c-3 -9 -6 -26 -6 -39 0 -13 -4 -26 -9 -29 -15 -10 1 -56
30 -86 33 -32 36 -57 14 -101 -19 -36 -13 -49 24 -49 25 0 28 -3 23 -25 -4
-22 -1 -25 25 -25 19 0 39 10 57 29 27 28 27 30 11 60 -18 35 -12 92 10 111
15 13 10 36 -13 63 -11 12 -24 16 -42 12 -23 -5 -31 0 -56 37 -41 61 -57 71
-68 42z"/>
<path d="M3185 1900 c-10 -11 -24 -20 -31 -20 -16 0 -54 -78 -47 -96 3 -8 -2
-25 -11 -39 -18 -27 -21 -80 -6 -90 6 -3 10 -21 10 -39 0 -30 4 -34 30 -38 24
-4 34 2 58 31 16 20 34 59 41 86 7 28 15 59 18 69 4 14 1 17 -10 13 -11 -4
-15 1 -14 21 2 62 -4 122 -11 122 -5 0 -17 -9 -27 -20z"/>
<path d="M2703 1882 c-13 -2 -23 -9 -24 -15 0 -7 -13 -23 -30 -36 -22 -17 -37
-21 -57 -16 l-27 6 28 -26 c15 -14 27 -30 27 -35 0 -6 12 -24 27 -40 18 -21
32 -28 45 -24 11 3 25 0 33 -6 11 -10 23 -4 60 25 25 21 45 41 45 45 0 4 9 10
20 13 14 3 20 14 20 31 0 24 -3 26 -46 26 -51 0 -84 14 -84 35 0 18 -9 22 -37
17z"/>
<path d="M2127 1873 c-4 -3 -7 -14 -7 -24 0 -9 -9 -19 -20 -22 -13 -3 -18 -10
-14 -21 3 -9 10 -16 15 -16 10 0 89 -79 89 -89 0 -10 -44 -51 -55 -51 -17 0
-65 -54 -65 -73 0 -16 5 -19 30 -13 17 3 30 1 30 -4 0 -19 21 -10 30 14 8 22
67 53 78 41 3 -2 6 -16 8 -30 1 -14 7 -32 13 -39 7 -9 7 -22 -1 -44 -22 -58
37 -71 64 -14 7 14 24 29 38 32 18 4 26 13 28 33 2 16 11 31 20 34 38 14 42
50 7 63 -26 10 -55 57 -55 89 0 11 -5 23 -11 27 -7 4 -9 21 -6 40 4 25 2 34
-9 34 -8 0 -14 -7 -14 -15 0 -8 -9 -19 -20 -25 -17 -9 -20 -8 -20 11 0 16 -5
20 -20 16 -15 -4 -24 2 -35 24 -13 24 -22 29 -54 29 -21 0 -41 -3 -44 -7z"/>
<path d="M2451 1834 c-18 -8 -46 -14 -61 -14 -34 0 -47 -26 -25 -50 8 -9 15
-27 15 -41 1 -28 15 -48 53 -72 20 -13 27 -25 24 -37 -3 -13 2 -20 19 -24 13
-4 24 -11 24 -16 0 -6 8 -10 18 -10 14 0 18 6 15 28 -3 20 3 32 22 45 23 17
28 17 57 3 40 -20 45 -20 53 3 4 13 -2 28 -15 43 -11 13 -27 30 -35 39 -8 9
-15 22 -15 30 0 9 -17 25 -37 37 -21 12 -47 29 -58 37 -17 12 -25 12 -54 -1z"/>
<path d="M2821 1728 c-30 -26 -51 -51 -51 -63 0 -12 -5 -26 -12 -33 -9 -9 -9
-15 0 -24 7 -7 12 -20 12 -30 0 -10 3 -18 8 -18 9 0 32 -49 32 -68 0 -8 5 -10
13 -5 19 12 69 13 99 2 22 -9 31 -7 49 10 l22 21 -19 36 c-10 20 -29 40 -41
45 -27 10 -28 24 -8 73 15 35 14 39 -5 66 -12 17 -27 30 -35 30 -7 0 -36 -19
-64 -42z"/>
<path d="M635 1720 c3 -5 11 -10 16 -10 6 0 7 5 4 10 -3 6 -11 10 -16 10 -6 0
-7 -4 -4 -10z"/>
<path d="M2676 1646 c-16 -38 -36 -46 -56 -21 -15 18 -42 19 -58 3 -17 -17
-15 -36 8 -60 14 -15 17 -25 10 -33 -7 -8 -7 -21 -1 -38 9 -22 6 -31 -15 -57
-24 -28 -24 -30 -7 -36 53 -17 80 -29 102 -44 23 -17 27 -16 74 8 l49 26 -5
47 c-4 32 -2 49 6 52 8 3 6 10 -7 19 -10 8 -16 20 -12 26 3 6 2 13 -4 17 -5 3
-10 14 -10 25 0 10 -7 21 -16 24 -15 6 -14 9 6 31 27 29 26 30 -17 40 -30 6
-33 4 -47 -29z"/>
<path d="M3621 1661 c-13 -4 -30 -21 -40 -41 -10 -21 -23 -34 -33 -32 -32 5
-56 -61 -33 -91 7 -10 11 -26 8 -36 -7 -27 49 -53 98 -45 32 5 39 4 39 -10 0
-10 9 -16 24 -16 14 0 27 -4 30 -9 11 -17 90 1 117 25 14 13 37 24 52 24 23 0
27 4 27 30 0 32 25 41 48 18 10 -10 11 -5 6 22 -4 25 -21 50 -61 87 -45 43
-65 54 -111 64 -69 14 -139 18 -171 10z"/>
<path d="M3201 1596 c-20 -32 -27 -36 -62 -36 -27 0 -42 5 -46 15 -5 14 -8 14
-24 -1 -11 -10 -29 -22 -41 -28 -29 -15 -35 -43 -10 -50 10 -4 40 -26 66 -51
25 -25 49 -45 52 -45 21 0 155 74 164 90 13 24 11 28 -21 44 -12 6 -29 31 -39
55 l-17 44 -22 -37z"/>
<path d="M2433 1579 c-15 -5 -23 -17 -23 -33 0 -19 -8 -28 -34 -37 -20 -7 -37
-21 -40 -32 -6 -23 8 -55 21 -47 4 3 9 -7 11 -22 2 -16 8 -28 14 -28 6 0 8 -9
3 -22 -3 -13 -8 -33 -10 -45 -2 -12 -6 -27 -10 -32 -3 -6 1 -21 9 -33 22 -31
20 -90 -4 -121 -11 -14 -20 -28 -20 -31 0 -12 52 -6 81 10 23 11 34 12 44 4 9
-8 15 -8 20 0 4 7 12 7 25 0 17 -9 21 -5 31 32 6 24 11 75 10 114 -1 57 2 76
19 97 l20 25 -31 7 c-39 9 -47 30 -20 59 34 36 13 116 -31 116 -10 0 -29 6
-41 14 -15 10 -29 11 -44 5z"/>
<path d="M3462 1534 c-20 -23 -27 -25 -72 -19 -42 6 -51 4 -56 -10 -4 -10 1
-25 14 -37 l21 -21 -25 -49 c-24 -47 -24 -50 -7 -54 20 -6 73 -85 73 -109 0
-17 45 -21 55 -5 5 8 11 7 21 -1 11 -9 14 -9 14 1 0 8 10 11 30 8 24 -4 30 -1
30 14 0 10 7 18 15 18 8 0 15 5 15 10 0 6 -9 10 -19 10 -11 0 -23 5 -26 10 -9
14 14 42 27 34 6 -4 5 3 -1 15 -7 12 -11 29 -9 38 2 11 -8 22 -24 31 -16 7
-28 16 -29 20 -1 10 -7 42 -16 84 l-8 37 -23 -25z"/>
<path d="M2860 1483 c-22 -3 -26 -9 -26 -43 -1 -35 1 -40 22 -40 12 0 25 -4
29 -10 16 -25 135 -34 135 -9 0 5 -13 6 -28 3 -23 -5 -30 -1 -40 21 -7 14 -12
32 -12 40 0 13 -38 47 -50 44 -3 -1 -16 -4 -30 -6z"/>
<path d="M2960 1465 c-11 -21 -10 -28 4 -50 14 -21 20 -24 37 -15 22 12 39 6
39 -15 0 -21 -33 -35 -78 -35 -36 0 -40 -2 -34 -22 4 -17 2 -20 -12 -15 -14 6
-17 2 -14 -26 3 -28 7 -32 36 -35 24 -2 32 -8 32 -22 0 -37 17 -28 65 38 57
76 77 116 69 136 -8 21 -94 86 -114 86 -9 0 -23 -11 -30 -25z"/>
<path d="M3304 1468 c-10 -16 -109 -68 -130 -68 -8 0 -14 -4 -14 -10 0 -5 -9
-10 -20 -10 -13 0 -25 -11 -34 -34 -8 -18 -18 -36 -24 -40 -6 -3 -9 -14 -7
-24 2 -9 7 -34 10 -54 5 -34 8 -36 25 -26 10 7 21 19 23 28 3 13 12 16 35 12
27 -4 32 -1 38 24 9 38 22 54 44 54 11 0 22 12 29 30 5 17 16 30 23 30 8 0 22
14 32 31 18 30 18 32 -2 51 -16 17 -21 18 -28 6z"/>
<path d="M2793 1435 c-1 -19 3 -35 8 -35 11 0 23 46 14 59 -12 20 -20 11 -22
-24z"/>
<path d="M3933 1450 c6 -24 -22 -43 -48 -34 -10 4 -27 -4 -45 -21 -26 -25 -37
-28 -101 -29 -56 0 -74 3 -84 17 -28 38 -91 5 -66 -35 10 -17 9 -22 -6 -33
-17 -13 -17 -13 1 -12 27 3 31 -19 7 -40 -29 -24 -26 -31 13 -30 22 1 46 -8
67 -25 22 -16 54 -28 89 -32 30 -4 60 -12 66 -17 19 -16 94 67 104 115 5 23
15 59 24 81 18 49 20 87 4 103 -18 18 -31 14 -25 -8z"/>
<path d="M2265 1408 c-17 -62 -31 -81 -82 -114 -29 -19 -62 -34 -72 -34 -10 0
-30 -11 -45 -25 -27 -25 -37 -29 -69 -26 -9 1 -20 -4 -23 -12 -3 -9 -19 -21
-35 -27 -30 -13 -53 -42 -42 -53 3 -3 18 -3 34 0 23 4 29 2 29 -11 0 -9 -7
-19 -15 -21 -8 -3 -23 -7 -32 -10 -13 -5 -8 -12 25 -31 23 -14 42 -29 42 -33
0 -5 9 -11 20 -14 26 -7 100 29 100 48 0 20 63 20 80 0 19 -23 62 -18 90 10
14 13 42 38 62 55 46 38 59 87 34 125 -14 21 -15 35 -7 78 9 52 4 76 -25 104
-21 22 -62 16 -69 -9z"/>
<path d="M2740 1356 c-58 -34 -75 -35 -100 -5 -14 17 -16 17 -38 1 -16 -12
-24 -32 -28 -67 -7 -57 1 -68 77 -108 49 -27 89 -20 89 15 0 21 12 23 41 7 16
-8 25 -7 38 5 10 9 32 19 49 22 31 6 41 18 23 28 -13 8 -8 66 7 75 22 13 -18
48 -63 54 -33 5 -49 0 -95 -27z"/>
<path d="M3293 1332 c-6 -15 -13 -59 -15 -99 -2 -59 1 -75 16 -92 25 -27 38
-27 36 2 -4 39 0 47 18 47 29 0 46 46 30 81 -7 16 -16 29 -20 29 -5 0 -8 7 -8
15 0 8 -7 15 -15 15 -7 0 -18 7 -22 15 -7 11 -11 8 -20 -13z"/>
<path d="M3229 1298 c0 -2 -6 -23 -12 -47 -12 -43 -37 -69 -37 -37 0 9 -6 16
-14 16 -19 0 -29 -17 -16 -25 16 -10 12 -82 -5 -89 -25 -9 -17 -26 15 -32 41
-9 57 -30 42 -55 -17 -26 -6 -40 24 -33 17 4 26 1 30 -10 3 -9 10 -13 15 -10
6 3 16 0 24 -6 12 -10 13 -5 8 27 -3 21 -10 46 -15 56 -5 10 -7 21 -4 24 3 4
-3 12 -14 20 -25 17 -26 33 -2 33 16 1 16 1 -1 14 -12 9 -16 22 -12 42 16 107
16 114 -5 114 -11 0 -20 -1 -21 -2z"/>
<path d="M3049 1264 c-9 -11 -29 -39 -43 -62 -24 -39 -27 -51 -22 -105 6 -77
13 -97 35 -97 9 0 21 -4 27 -8 14 -13 144 -45 152 -38 3 4 1 15 -6 24 -22 31
-25 44 -12 52 20 12 3 40 -24 40 -33 0 -52 33 -31 54 8 8 15 29 15 46 l0 31
-30 -16 c-35 -18 -38 -15 -42 54 -3 41 -4 42 -19 25z"/>
<path d="M2874 1212 c-23 -9 -48 -23 -57 -30 -12 -10 -21 -11 -36 -3 -26 15
-31 14 -31 -5 0 -8 -14 -20 -31 -26 -20 -7 -28 -15 -25 -25 3 -8 6 -30 6 -49
0 -23 5 -34 15 -34 8 0 30 -7 49 -16 32 -16 37 -16 73 2 23 11 57 18 87 17
l49 -2 -6 58 c-2 32 -1 64 3 71 10 17 -19 59 -40 59 -8 0 -34 -8 -56 -17z"/>
<path d="M3470 1215 c0 -5 11 -23 25 -41 14 -18 25 -42 25 -54 0 -12 -10 -25
-25 -32 -33 -15 -32 -25 4 -33 38 -8 55 -29 47 -58 -5 -23 -3 -24 71 -31 68
-5 79 -4 98 14 15 14 21 32 21 58 -1 36 1 39 27 39 17 0 38 10 54 25 l25 26
-25 17 c-15 9 -46 16 -76 17 -28 0 -51 4 -51 9 0 5 -12 16 -26 26 -29 19 -150
28 -160 11 -3 -5 -11 -4 -20 3 -8 6 -14 8 -14 4z"/>
<path d="M3390 1196 c0 -8 -10 -16 -22 -18 -19 -2 -22 -8 -20 -34 3 -34 -22
-54 -42 -34 -5 5 -17 10 -25 10 -11 0 -9 -4 6 -15 14 -10 19 -22 16 -35 -4
-17 0 -20 25 -20 16 0 43 7 58 15 16 8 37 15 47 15 26 0 77 28 77 43 -2 42
-120 115 -120 73z"/>
<path d="M2569 1168 c-1 -44 -13 -83 -25 -81 -5 1 -18 5 -29 9 -20 8 -20 7 -2
-19 11 -16 15 -36 12 -47 -5 -16 -2 -20 19 -20 23 0 25 -3 19 -31 -6 -29 -5
-31 15 -20 11 6 29 11 40 11 11 0 31 9 46 21 25 20 26 24 20 83 -8 70 -14 81
-63 104 -20 9 -39 18 -43 20 -5 2 -8 -11 -9 -30z"/>
<path d="M2438 1089 c-12 -6 -18 -22 -18 -44 0 -19 -4 -35 -10 -35 -5 0 -10
-6 -10 -14 0 -8 -9 -21 -21 -30 l-21 -14 21 -11 c17 -9 24 -8 39 7 12 12 41
22 76 26 53 7 80 26 36 26 -16 0 -20 7 -20 30 0 17 -9 39 -20 50 -23 23 -28
24 -52 9z"/>
<path d="M2292 1055 c-22 -28 -60 -48 -78 -41 -16 6 -20 -29 -4 -39 15 -9 101
6 94 16 -9 15 28 10 47 -7 16 -14 18 -13 33 17 9 18 16 42 16 53 0 18 -7 21
-45 22 -36 1 -49 -3 -63 -21z"/>
<path d="M3408 1056 c-15 -8 -40 -17 -57 -21 -63 -14 -25 -77 78 -129 38 -20
38 -20 80 56 30 55 30 58 12 68 -11 5 -26 10 -34 10 -8 0 -20 7 -27 15 -15 18
-18 18 -52 1z"/>
<path d="M2849 1018 c-10 -4 -19 -12 -19 -18 0 -5 -7 -10 -15 -10 -13 0 -15
-16 -13 -98 2 -73 -1 -103 -11 -115 -12 -15 -11 -17 8 -17 13 0 26 -10 32 -24
11 -22 22 -25 79 -17 2 1 -1 6 -8 13 -7 7 -12 16 -12 20 0 12 58 10 65 -2 12
-19 33 -10 38 17 3 16 2 30 -3 33 -20 13 -21 51 -1 76 25 32 26 46 4 106 l-17
48 -53 -3 c-30 -1 -63 -5 -74 -9z"/>
<path d="M2640 954 c-60 -60 -63 -65 -48 -81 14 -13 22 -14 42 -5 17 7 35 8
59 1 23 -6 44 -6 61 1 24 9 26 14 26 69 0 49 -4 62 -19 71 -34 18 -55 8 -121
-56z"/>
<path d="M3018 937 l4 -44 47 5 c27 2 72 -1 101 -7 52 -11 55 -11 88 16 36 29
40 50 10 46 -10 -2 -18 4 -18 12 0 25 -30 17 -40 -11 -8 -19 -15 -24 -28 -19
-9 3 -42 11 -72 17 -30 6 -59 15 -64 19 -22 20 -31 8 -28 -34z"/>
<path d="M2453 953 c-21 -4 -41 -38 -29 -50 6 -6 105 -7 111 -2 2 2 6 16 10
32 7 26 6 27 -31 26 -22 -1 -49 -4 -61 -6z"/>
<path d="M3499 914 c-24 -50 -28 -112 -7 -125 7 -5 28 -9 46 -9 19 0 40 -8 52
-20 11 -11 30 -20 43 -20 28 0 67 -26 67 -46 0 -8 10 -14 24 -14 19 0 23 4 19
19 -5 21 21 51 45 51 9 0 32 9 51 21 31 19 33 23 28 60 -3 21 -1 39 4 39 5 0
9 9 9 21 0 19 -4 20 -61 15 -33 -4 -63 -7 -67 -8 -4 -1 -27 10 -51 26 -36 23
-58 29 -112 31 l-68 3 -22 -44z"/>
<path d="M3310 938 c0 -7 -15 -23 -34 -36 -25 -17 -32 -28 -29 -46 3 -13 0
-27 -6 -30 -6 -4 -11 -21 -11 -38 0 -29 2 -30 33 -24 17 3 69 11 115 18 l82
12 0 42 c0 36 -3 43 -24 48 -14 3 -37 17 -53 30 -36 30 -73 42 -73 24z"/>
<path d="M3003 869 c-16 -16 -17 -45 -3 -54 15 -9 12 -71 -4 -84 -11 -10 -21
-9 -45 3 -40 21 -44 20 -26 -8 10 -15 14 -33 9 -50 -5 -20 -2 -26 11 -26 9 0
22 -13 28 -30 6 -16 15 -30 19 -30 4 0 5 -7 2 -15 -4 -10 0 -15 14 -15 10 0
31 -9 46 -21 26 -21 66 -19 66 3 0 6 8 16 17 23 15 11 15 15 4 29 -8 9 -9 16
-3 16 19 0 43 32 37 50 -6 19 23 90 37 90 4 0 5 20 2 44 -6 38 -4 45 12 48 17
3 16 5 -6 18 -35 19 -201 26 -217 9z m102 -249 c3 -6 -1 -7 -9 -4 -18 7 -21
14 -7 14 6 0 13 -4 16 -10z"/>
<path d="M2574 844 c2 -6 -17 -16 -44 -22 -39 -9 -54 -9 -76 3 -29 15 -48 11
-75 -16 -17 -17 -17 -19 13 -43 17 -13 37 -22 45 -19 7 3 25 -3 41 -13 26 -18
61 -38 109 -65 35 -19 90 -4 97 27 6 23 11 25 39 20 l32 -6 19 65 c10 35 18
68 17 72 0 4 -51 8 -111 8 -76 0 -109 -3 -106 -11z"/>
<path d="M2273 831 c-51 -9 -56 -12 -55 -48 0 -41 -14 -52 -54 -46 -27 4 -34
2 -34 -11 0 -9 7 -16 15 -16 18 0 34 -28 28 -50 -3 -10 0 -21 6 -24 6 -4 11
-16 11 -27 0 -11 11 -41 24 -67 13 -26 27 -66 31 -90 6 -40 34 -70 49 -54 4 4
15 -3 24 -15 22 -28 82 -36 82 -11 0 6 10 22 22 35 13 14 23 38 23 56 2 45 14
77 30 77 7 0 20 6 27 13 7 8 30 17 51 21 29 5 37 12 37 28 0 30 -45 84 -76 92
-15 4 -33 14 -39 23 -7 9 -25 16 -42 17 -39 1 -113 63 -92 77 8 5 17 9 22 9 4
0 7 5 7 10 0 11 -32 11 -97 1z"/>
<path d="M3315 759 c-105 -22 -125 -39 -125 -104 0 -59 16 -70 65 -45 22 11
57 20 78 20 30 0 40 4 44 20 3 10 14 22 24 25 10 4 19 12 19 19 0 8 7 19 15
26 8 7 15 23 15 36 0 29 -10 29 -135 3z"/>
<path d="M3464 753 c-3 -10 -10 -25 -15 -33 -5 -8 -13 -25 -19 -37 -5 -13 -17
-23 -26 -23 -32 0 -7 -22 46 -40 70 -24 83 -24 104 -1 10 10 34 22 54 26 85
16 99 69 21 81 -22 4 -47 13 -55 21 -8 8 -34 16 -59 19 -37 3 -47 1 -51 -13z"/>
<path d="M2775 735 c-3 -8 -7 -22 -10 -31 -4 -12 -13 -15 -35 -10 -17 3 -30 1
-30 -4 0 -20 -34 -40 -70 -40 -38 0 -38 0 -28 -27 7 -19 28 -36 62 -53 32 -16
56 -36 65 -54 10 -22 15 -25 22 -15 5 8 6 22 3 32 -5 15 -1 17 38 11 24 -4 48
-11 54 -16 18 -14 42 1 53 33 7 22 16 29 35 29 34 0 35 33 2 48 -19 8 -23 16
-19 33 5 18 3 21 -10 16 -8 -3 -18 0 -20 7 -3 8 -15 12 -30 9 -17 -3 -28 2
-41 21 -19 29 -34 33 -41 11z"/>
<path d="M2125 690 c-3 -5 -3 -19 0 -30 5 -15 -3 -32 -29 -60 -20 -22 -36 -44
-36 -48 0 -4 -15 -12 -32 -17 -26 -8 -34 -16 -36 -38 -2 -15 -12 -32 -23 -37
-10 -6 -19 -15 -19 -21 0 -21 -47 -58 -87 -68 -51 -14 -75 -36 -71 -65 4 -26
38 -34 54 -12 15 21 63 12 71 -13 13 -36 24 -41 49 -24 13 8 24 24 24 35 0 21
45 68 66 68 8 0 16 11 20 24 3 13 11 23 17 23 7 -1 36 2 65 7 39 6 57 5 69 -5
14 -12 15 -11 10 6 -3 11 -9 34 -12 50 -4 17 -15 49 -26 72 -10 24 -19 52 -19
63 0 11 -4 20 -10 20 -5 0 -10 13 -10 29 0 31 -24 59 -35 41z"/>
</g>
</svg>
