<svg width="34" height="29" viewBox="0 0 34 29" fill="none" xmlns="http://www.w3.org/2000/svg">
<path d="M14.5 24.75C17.6062 24.7494 20.6229 23.8334 23.0698 22.1476L30.7627 28.9248L33.2373 26.7449L25.5443 19.9677C27.4588 17.812 28.4993 15.1538 28.5 12.4166C28.5 5.61635 22.2192 0.083313 14.5 0.083313C6.78075 0.083313 0.5 5.61635 0.5 12.4166C0.5 19.2169 6.78075 24.75 14.5 24.75ZM14.5 3.16665C20.2908 3.16665 25 7.31527 25 12.4166C25 17.518 20.2908 21.6666 14.5 21.6666C8.70925 21.6666 4 17.518 4 12.4166C4 7.31527 8.70925 3.16665 14.5 3.16665Z" fill="black"/>
</svg>
