<svg width="72" height="71" viewBox="0 0 72 71" fill="none" xmlns="http://www.w3.org/2000/svg">
<path d="M41.5385 29.0455L72 0V71H0L41.5385 29.0455Z" fill="#1D3336"/>
<path d="M36.4661 47.8442C35.5709 48.2984 34.8246 48.5286 34.2274 48.5347C33.6303 48.5353 33.1296 48.3183 32.7251 47.8836C32.2674 47.3917 32.0855 46.8034 32.1792 46.1185C32.2732 45.4282 32.6348 44.7903 33.2639 44.2049C33.6929 43.8057 34.1518 43.5334 34.6407 43.388C35.1325 43.2398 35.6056 43.2265 36.0601 43.3479C36.5174 43.4666 36.907 43.699 37.229 44.045L36.4011 44.8154C36.0498 44.4379 35.6543 44.2536 35.2145 44.2627C34.7721 44.2689 34.3321 44.4755 33.8945 44.8826C33.4885 45.2605 33.2548 45.6459 33.1937 46.039C33.1328 46.4265 33.25 46.779 33.5453 47.0964C33.7822 47.3509 34.0903 47.467 34.4698 47.4448C34.8494 47.417 35.3659 47.2352 36.0192 46.8994C36.6754 46.561 37.2318 46.3447 37.6885 46.2506C38.1454 46.151 38.553 46.1532 38.9113 46.2573C39.2725 46.3588 39.6008 46.5682 39.8961 46.8857C40.3671 47.3918 40.5477 47.9815 40.4377 48.6547C40.3251 49.3251 39.9386 49.9676 39.2779 50.5823C38.849 50.9814 38.3728 51.2724 37.8493 51.4553C37.3232 51.6354 36.8256 51.6769 36.3565 51.5798C35.8902 51.4801 35.4881 51.2487 35.1502 50.8855L35.9781 50.1152C36.3293 50.4926 36.7461 50.6624 37.2284 50.6245C37.7108 50.5811 38.1852 50.3425 38.6513 49.9088C39.086 49.5043 39.3367 49.1057 39.4033 48.7128C39.47 48.32 39.3609 47.9706 39.0762 47.6646C38.7915 47.3586 38.4647 47.2224 38.0959 47.2561C37.7244 47.287 37.1812 47.483 36.4661 47.8442ZM43.2767 41.3151L40.5699 43.8337L42.6295 46.0471L45.7738 43.1214L46.4004 43.7949L42.4325 47.4869L36.621 41.2412L40.546 37.5891L41.1767 38.2669L38.0753 41.1526L39.9432 43.1602L42.65 40.6416L43.2767 41.3151ZM48.2698 36.6691L45.563 39.1877L47.6226 41.4011L50.7669 38.4754L51.3935 39.1489L47.4256 42.8409L41.6141 36.5952L45.5392 32.9431L46.1698 33.6209L43.0684 36.5066L44.9364 38.5142L47.6431 35.9956L48.2698 36.6691ZM37.5485 59.5013L44.3322 62.6975L41.6323 55.7015L42.7004 54.7077L48.5119 60.9534L47.6883 61.7197L45.4251 59.2875L43.0596 56.5904L45.715 63.5558L45.0844 64.1425L38.3444 61.0018L40.8567 63.5383L43.1198 65.9706L42.2962 66.7369L36.4847 60.4912L37.5485 59.5013ZM52.0523 52.2087C52.6217 52.8207 53.0164 53.4512 53.2362 54.1004C53.4534 54.7467 53.485 55.3655 53.331 55.957C53.1771 56.5485 52.8484 57.0784 52.3451 57.5467C51.8532 58.0044 51.3054 58.29 50.7015 58.4037C50.095 58.5146 49.4783 58.4454 48.8516 58.1962C48.2251 57.9414 47.6349 57.5222 47.081 56.9384L46.6619 56.488C46.1031 55.8874 45.7139 55.2598 45.4942 54.6051C45.2746 53.9505 45.2419 53.3246 45.396 52.7277C45.5504 52.1251 45.8735 51.5951 46.3654 51.1374C46.8658 50.6717 47.4193 50.3835 48.0259 50.2726C48.6326 50.1563 49.2531 50.2325 49.8874 50.5014C50.5191 50.7673 51.1183 51.2049 51.6851 51.814L52.0523 52.2087ZM50.8578 52.5678C50.1686 51.8271 49.4917 51.3978 48.8271 51.2799C48.1598 51.1592 47.5587 51.3476 47.024 51.8452C46.5035 52.3295 46.2781 52.9101 46.3477 53.587C46.4175 54.2583 46.7754 54.9498 47.4214 55.6613L47.8484 56.1202C48.5163 56.838 49.192 57.2631 49.8755 57.3956C50.5591 57.5224 51.1655 57.3397 51.6945 56.8475C52.2264 56.3525 52.4586 55.7763 52.3911 55.1188C52.3209 54.4585 51.9535 53.7626 51.2888 53.0311L50.8578 52.5678ZM55.9456 49.3224L54.4785 50.6874L56.8295 53.214L56.0016 53.9844L50.1901 47.7387L52.2577 45.8148C52.9612 45.1602 53.6507 44.8174 54.3262 44.7865C55.0046 44.7529 55.6285 45.0421 56.1979 45.6541C56.5598 46.043 56.7693 46.4803 56.8264 46.9661C56.8864 47.4491 56.7956 47.9365 56.5541 48.428L60.4878 49.714L60.5357 49.7655L59.652 50.5877L55.9456 49.3224ZM53.8519 50.014L55.1173 48.8365C55.5263 48.456 55.7524 48.0482 55.7957 47.613C55.8419 47.1752 55.7 46.779 55.37 46.4244C55.0108 46.0383 54.6196 45.8501 54.1963 45.8598C53.776 45.8667 53.3471 46.071 52.9098 46.4726L51.6486 47.6461L53.8519 50.014ZM62.2635 42.7714L59.5568 45.29L61.6163 47.5034L64.7606 44.5777L65.3873 45.2512L61.4194 48.9432L55.6079 42.6975L59.5329 39.0454L60.1635 39.7231L57.0621 42.6089L58.9301 44.6165L61.6369 42.0979L62.2635 42.7714Z" fill="#EE7155"/>
<path d="M36.4661 47.8442L36.2407 47.3979L36.2399 47.3983L36.4661 47.8442ZM34.2274 48.5347L34.2279 49.0347L34.2325 49.0347L34.2274 48.5347ZM32.1792 46.1185L32.6746 46.1864L32.6747 46.186L32.1792 46.1185ZM34.6407 43.388L34.7833 43.8672L34.7849 43.8667L34.6407 43.388ZM36.0601 43.3479L35.931 43.8309L35.9344 43.8318L36.0601 43.3479ZM37.229 44.045L37.5696 44.4111L37.9356 44.0705L37.595 43.7044L37.229 44.045ZM36.4011 44.8154L36.035 45.156L36.3756 45.522L36.7417 45.1814L36.4011 44.8154ZM35.2145 44.2627L35.2215 44.7626L35.2248 44.7626L35.2145 44.2627ZM33.1937 46.039L33.6876 46.1167L33.6878 46.1158L33.1937 46.039ZM34.4698 47.4448L34.4991 47.944L34.5063 47.9434L34.4698 47.4448ZM36.0192 46.8994L36.2478 47.3441L36.2484 47.3438L36.0192 46.8994ZM37.6885 46.2506L37.7894 46.7403L37.7951 46.7391L37.6885 46.2506ZM38.9113 46.2573L38.7718 46.7375L38.7761 46.7387L38.9113 46.2573ZM40.4377 48.6547L40.9308 48.7375L40.9312 48.7353L40.4377 48.6547ZM37.8493 51.4553L38.0112 51.9284L38.0143 51.9273L37.8493 51.4553ZM36.3565 51.5798L36.2519 52.0688L36.2552 52.0695L36.3565 51.5798ZM35.1502 50.8855L34.8096 50.5195L34.4435 50.8601L34.7841 51.2261L35.1502 50.8855ZM35.9781 50.1152L36.3441 49.7746L36.0035 49.4085L35.6375 49.7491L35.9781 50.1152ZM37.2284 50.6245L37.2675 51.123L37.2732 51.1225L37.2284 50.6245ZM38.0959 47.2561L38.1373 47.7544L38.1414 47.7541L38.0959 47.2561ZM36.2399 47.3983C35.3724 47.8384 34.7072 48.0298 34.2222 48.0347L34.2325 49.0347C34.942 49.0274 35.7693 48.7584 36.6924 48.2901L36.2399 47.3983ZM34.2269 48.0347C33.768 48.0352 33.4003 47.8753 33.0912 47.543L32.3591 48.2242C32.8588 48.7613 33.4927 49.0355 34.2279 49.0347L34.2269 48.0347ZM33.0912 47.543C32.7391 47.1646 32.6005 46.7275 32.6746 46.1864L31.6839 46.0507C31.5704 46.8792 31.7958 47.6189 32.3591 48.2242L33.0912 47.543ZM32.6747 46.186C32.7497 45.6348 33.0396 45.0966 33.6045 44.5709L32.9233 43.8388C32.23 44.484 31.7967 45.2215 31.6838 46.0511L32.6747 46.186ZM33.6045 44.5709C33.9855 44.2164 34.3785 43.9876 34.7833 43.8672L34.4982 42.9087C33.9251 43.0792 33.4003 43.395 32.9233 43.8388L33.6045 44.5709ZM34.7849 43.8667C35.1963 43.7428 35.5745 43.7357 35.931 43.8309L36.1891 42.8648C35.6368 42.7173 35.0688 42.7369 34.4965 42.9092L34.7849 43.8667ZM35.9344 43.8318C36.2995 43.9266 36.6058 44.1093 36.8629 44.3856L37.595 43.7044C37.2082 43.2887 36.7352 43.0066 36.1857 42.8639L35.9344 43.8318ZM36.8884 43.679L36.0605 44.4493L36.7417 45.1814L37.5696 44.4111L36.8884 43.679ZM36.7671 44.4748C36.3372 44.0127 35.8113 43.7503 35.2043 43.7628L35.2248 44.7626C35.4973 44.757 35.7625 44.863 36.035 45.156L36.7671 44.4748ZM35.2076 43.7627C34.6032 43.7712 34.05 44.055 33.5539 44.5166L34.2351 45.2487C34.6142 44.896 34.941 44.7666 35.2215 44.7626L35.2076 43.7627ZM33.5539 44.5166C33.0976 44.9412 32.7837 45.4217 32.6996 45.9621L33.6878 46.1158C33.726 45.8701 33.8794 45.5797 34.2351 45.2487L33.5539 44.5166ZM32.6998 45.9613C32.6123 46.5179 32.7919 47.0207 33.1793 47.437L33.9114 46.7558C33.708 46.5372 33.6533 46.3351 33.6876 46.1167L32.6998 45.9613ZM33.1793 47.437C33.528 47.8117 33.9866 47.974 34.4991 47.9439L34.4405 46.9456C34.1941 46.9601 34.0364 46.8901 33.9114 46.7558L33.1793 47.437ZM34.5063 47.9434C34.9897 47.9081 35.5799 47.6874 36.2478 47.3441L35.7907 46.4547C35.1519 46.783 34.7091 46.9259 34.4333 46.9461L34.5063 47.9434ZM36.2484 47.3438C36.8848 47.0156 37.3955 46.8215 37.7894 46.7403L37.5876 45.7609C37.0682 45.8679 36.4661 46.1064 35.79 46.4551L36.2484 47.3438ZM37.7951 46.7391C38.1907 46.6528 38.5113 46.6618 38.7718 46.7375L39.0508 45.7772C38.5947 45.6446 38.1 45.6491 37.582 45.7621L37.7951 46.7391ZM38.7761 46.7387C39.0358 46.8116 39.2874 46.9654 39.5301 47.2263L40.2622 46.5451C39.9142 46.171 39.5092 45.9059 39.0465 45.776L38.7761 46.7387ZM39.5301 47.2263C39.8975 47.6211 40.0289 48.0559 39.9443 48.5741L40.9312 48.7353C41.0664 47.9071 40.8368 47.1626 40.2622 46.5451L39.5301 47.2263ZM39.9446 48.5719C39.8555 49.1028 39.5437 49.652 38.9373 50.2162L39.6185 50.9483C40.3334 50.2831 40.7948 49.5473 40.9308 48.7375L39.9446 48.5719ZM38.9373 50.2162C38.5561 50.571 38.1389 50.8245 37.6844 50.9833L38.0143 51.9273C38.6066 51.7203 39.1419 51.3918 39.6185 50.9483L38.9373 50.2162ZM37.6874 50.9823C37.2322 51.1381 36.826 51.1664 36.4578 51.0902L36.2552 52.0695C36.8252 52.1874 37.4143 52.1327 38.0112 51.9284L37.6874 50.9823ZM36.461 51.0909C36.0993 51.0135 35.7873 50.8362 35.5162 50.5449L34.7841 51.2261C35.1889 51.6612 35.6811 51.9467 36.2519 52.0688L36.461 51.0909ZM35.4908 51.2515L36.3187 50.4812L35.6375 49.7491L34.8096 50.5195L35.4908 51.2515ZM35.612 50.4558C36.0593 50.9365 36.622 51.1737 37.2675 51.123L37.1892 50.1261C36.8701 50.1511 36.5993 50.0488 36.3441 49.7746L35.612 50.4558ZM37.2732 51.1225C37.8966 51.0664 38.4701 50.7603 38.9919 50.2748L38.3107 49.5427C37.9002 49.9247 37.5251 50.0958 37.1835 50.1265L37.2732 51.1225ZM38.9919 50.2748C39.4694 49.8306 39.8042 49.3393 39.8963 48.7965L38.9104 48.6292C38.8691 48.8721 38.7026 49.1781 38.3107 49.5427L38.9919 50.2748ZM39.8963 48.7965C39.9904 48.2416 39.827 47.7374 39.4423 47.324L38.7102 48.0052C38.8949 48.2037 38.9495 48.3983 38.9104 48.6292L39.8963 48.7965ZM39.4423 47.324C39.0676 46.9213 38.5946 46.7085 38.0504 46.7582L38.1414 47.7541C38.3348 47.7364 38.5155 47.7959 38.7102 48.0052L39.4423 47.324ZM38.0545 46.7579C37.5797 46.7973 36.9623 47.0334 36.2407 47.3979L36.6916 48.2905C37.4 47.9326 37.8692 47.7767 38.1373 47.7544L38.0545 46.7579ZM43.2767 41.3151L43.6173 41.6811L43.9833 41.3405L43.6427 40.9745L43.2767 41.3151ZM40.5699 43.8337L40.2293 43.4676L39.8632 43.8082L40.2038 44.1743L40.5699 43.8337ZM42.6295 46.0471L42.2634 46.3877L42.604 46.7538L42.9701 46.4132L42.6295 46.0471ZM45.7738 43.1214L46.1398 42.7808L45.7992 42.4148L45.4332 42.7554L45.7738 43.1214ZM46.4004 43.7949L46.741 44.1609L47.1071 43.8203L46.7665 43.4543L46.4004 43.7949ZM42.4325 47.4869L42.0665 47.8275L42.4071 48.1936L42.7731 47.853L42.4325 47.4869ZM36.621 41.2412L36.2804 40.8752L35.9144 41.2158L36.255 41.5818L36.621 41.2412ZM40.546 37.5891L40.9121 37.2485L40.5715 36.8824L40.2054 37.223L40.546 37.5891ZM41.1767 38.2669L41.5173 38.6329L41.8833 38.2923L41.5427 37.9263L41.1767 38.2669ZM38.0753 41.1526L37.7347 40.7866L37.3686 41.1272L37.7092 41.4932L38.0753 41.1526ZM39.9432 43.1602L39.5772 43.5008L39.9178 43.8668L40.2838 43.5262L39.9432 43.1602ZM42.65 40.6416L43.016 40.301L42.6754 39.935L42.3094 40.2756L42.65 40.6416ZM42.9361 40.949L40.2293 43.4676L40.9105 44.1997L43.6173 41.6811L42.9361 40.949ZM40.2038 44.1743L42.2634 46.3877L42.9955 45.7065L40.9359 43.4931L40.2038 44.1743ZM42.9701 46.4132L46.1144 43.4875L45.4332 42.7554L42.2889 45.6811L42.9701 46.4132ZM45.4077 43.462L46.0344 44.1355L46.7665 43.4543L46.1398 42.7808L45.4077 43.462ZM46.0598 43.4288L42.0919 47.1209L42.7731 47.853L46.741 44.1609L46.0598 43.4288ZM42.7985 47.1463L36.9871 40.9006L36.255 41.5818L42.0665 47.8275L42.7985 47.1463ZM36.9616 41.6073L40.8866 37.9551L40.2054 37.223L36.2804 40.8752L36.9616 41.6073ZM40.18 37.9297L40.8106 38.6075L41.5427 37.9263L40.9121 37.2485L40.18 37.9297ZM40.8361 37.9008L37.7347 40.7866L38.4159 41.5187L41.5173 38.6329L40.8361 37.9008ZM37.7092 41.4932L39.5772 43.5008L40.3093 42.8196L38.4413 40.812L37.7092 41.4932ZM40.2838 43.5262L42.9906 41.0077L42.3094 40.2756L39.6026 42.7941L40.2838 43.5262ZM42.284 40.9822L42.9106 41.6557L43.6427 40.9745L43.016 40.301L42.284 40.9822ZM48.2698 36.6691L48.6104 37.0351L48.9764 36.6945L48.6358 36.3285L48.2698 36.6691ZM45.563 39.1877L45.2224 38.8216L44.8564 39.1622L45.197 39.5283L45.563 39.1877ZM47.6226 41.4011L47.2565 41.7417L47.5971 42.1078L47.9632 41.7672L47.6226 41.4011ZM50.7669 38.4754L51.1329 38.1348L50.7923 37.7688L50.4263 38.1094L50.7669 38.4754ZM51.3935 39.1489L51.7341 39.5149L52.1002 39.1743L51.7596 38.8083L51.3935 39.1489ZM47.4256 42.8409L47.0596 43.1815L47.4002 43.5476L47.7662 43.207L47.4256 42.8409ZM41.6141 36.5952L41.2735 36.2292L40.9075 36.5698L41.2481 36.9358L41.6141 36.5952ZM45.5392 32.9431L45.9052 32.6025L45.5646 32.2364L45.1986 32.577L45.5392 32.9431ZM46.1698 33.6209L46.5104 33.9869L46.8764 33.6463L46.5358 33.2803L46.1698 33.6209ZM43.0684 36.5066L42.7278 36.1406L42.3617 36.4812L42.7023 36.8472L43.0684 36.5066ZM44.9364 38.5142L44.5703 38.8548L44.9109 39.2208L45.277 38.8802L44.9364 38.5142ZM47.6431 35.9956L48.0092 35.655L47.6686 35.289L47.3025 35.6296L47.6431 35.9956ZM47.9292 36.303L45.2224 38.8216L45.9036 39.5537L48.6104 37.0351L47.9292 36.303ZM45.197 39.5283L47.2565 41.7417L47.9886 41.0605L45.9291 38.8471L45.197 39.5283ZM47.9632 41.7672L51.1075 38.8415L50.4263 38.1094L47.282 41.0351L47.9632 41.7672ZM50.4008 38.816L51.0275 39.4895L51.7596 38.8083L51.1329 38.1348L50.4008 38.816ZM51.0529 38.7828L47.085 42.4749L47.7662 43.207L51.7341 39.5149L51.0529 38.7828ZM47.7917 42.5003L41.9802 36.2546L41.2481 36.9358L47.0596 43.1815L47.7917 42.5003ZM41.9547 36.9613L45.8798 33.3091L45.1986 32.577L41.2735 36.2292L41.9547 36.9613ZM45.1731 33.2837L45.8037 33.9615L46.5358 33.2803L45.9052 32.6025L45.1731 33.2837ZM45.8292 33.2548L42.7278 36.1406L43.409 36.8727L46.5104 33.9869L45.8292 33.2548ZM42.7023 36.8472L44.5703 38.8548L45.3024 38.1736L43.4344 36.166L42.7023 36.8472ZM45.277 38.8802L47.9837 36.3617L47.3025 35.6296L44.5958 38.1481L45.277 38.8802ZM47.2771 36.3362L47.9037 37.0097L48.6358 36.3285L48.0092 35.655L47.2771 36.3362ZM37.5485 59.5013L37.7616 59.049L37.4556 58.9048L37.2079 59.1353L37.5485 59.5013ZM44.3322 62.6975L44.1191 63.1498L45.2479 63.6817L44.7986 62.5175L44.3322 62.6975ZM41.6323 55.7015L41.2917 55.3355L41.044 55.5659L41.1658 55.8815L41.6323 55.7015ZM42.7004 54.7077L43.0664 54.3671L42.7258 54.001L42.3598 54.3416L42.7004 54.7077ZM48.5119 60.9534L48.8525 61.3194L49.2185 60.9788L48.8779 60.6128L48.5119 60.9534ZM47.6883 61.7197L47.3222 62.0603L47.6628 62.4264L48.0289 62.0858L47.6883 61.7197ZM45.4251 59.2875L45.0492 59.6172L45.0541 59.6227L45.0591 59.6281L45.4251 59.2875ZM43.0596 56.5904L43.4355 56.2607L42.5924 56.7685L43.0596 56.5904ZM45.715 63.5558L46.0556 63.9218L46.3022 63.6924L46.1822 63.3777L45.715 63.5558ZM45.0844 64.1425L44.8733 64.5957L45.1785 64.738L45.425 64.5086L45.0844 64.1425ZM38.3444 61.0018L38.5556 60.5486L37.9891 61.3536L38.3444 61.0018ZM40.8567 63.5383L41.2227 63.1977L41.2174 63.192L41.2119 63.1865L40.8567 63.5383ZM43.1198 65.9706L43.4604 66.3366L43.8264 65.996L43.4858 65.63L43.1198 65.9706ZM42.2962 66.7369L41.9301 67.0775L42.2707 67.4436L42.6368 67.103L42.2962 66.7369ZM36.4847 60.4912L36.1441 60.1252L35.778 60.4658L36.1186 60.8318L36.4847 60.4912ZM37.3354 59.9537L44.1191 63.1498L44.5453 62.2452L37.7616 59.049L37.3354 59.9537ZM44.7986 62.5175L42.0987 55.5215L41.1658 55.8815L43.8657 62.8775L44.7986 62.5175ZM41.9729 56.0676L43.041 55.0737L42.3598 54.3416L41.2917 55.3355L41.9729 56.0676ZM42.3343 55.0483L48.1458 61.294L48.8779 60.6128L43.0664 54.3671L42.3343 55.0483ZM48.1713 60.5873L47.3477 61.3537L48.0289 62.0858L48.8525 61.3194L48.1713 60.5873ZM48.0543 61.3791L45.7912 58.9469L45.0591 59.6281L47.3222 62.0603L48.0543 61.3791ZM45.801 58.9578L43.4355 56.2607L42.6837 56.9201L45.0492 59.6172L45.801 58.9578ZM42.5924 56.7685L45.2478 63.7339L46.1822 63.3777L43.5268 56.4123L42.5924 56.7685ZM45.3744 63.1897L44.7438 63.7765L45.425 64.5086L46.0556 63.9218L45.3744 63.1897ZM45.2956 63.6893L38.5556 60.5486L38.1332 61.455L44.8733 64.5957L45.2956 63.6893ZM37.9891 61.3536L40.5014 63.8902L41.2119 63.1865L38.6996 60.65L37.9891 61.3536ZM40.4906 63.8789L42.7537 66.3112L43.4858 65.63L41.2227 63.1977L40.4906 63.8789ZM42.7792 65.6045L41.9556 66.3709L42.6368 67.103L43.4604 66.3366L42.7792 65.6045ZM42.6622 66.3963L36.8507 60.1506L36.1186 60.8318L41.9301 67.0775L42.6622 66.3963ZM36.8253 60.8573L37.8891 59.8674L37.2079 59.1353L36.1441 60.1252L36.8253 60.8573ZM53.2362 54.1004L53.7102 53.9411L53.7098 53.94L53.2362 54.1004ZM50.7015 58.4037L50.7914 58.8956L50.794 58.8951L50.7015 58.4037ZM48.8516 58.1962L48.6633 58.6593L48.6669 58.6608L48.8516 58.1962ZM47.081 56.9384L46.7149 57.279L46.7183 57.2825L47.081 56.9384ZM45.396 52.7277L45.8801 52.8527L45.8804 52.8517L45.396 52.7277ZM48.0259 50.2726L48.1157 50.7645L48.12 50.7637L48.0259 50.2726ZM49.8874 50.5014L49.6923 50.9617L49.6934 50.9622L49.8874 50.5014ZM48.8271 51.2799L48.738 51.7719L48.7397 51.7722L48.8271 51.2799ZM46.3477 53.587L45.8503 53.6381L45.8503 53.6387L46.3477 53.587ZM47.4214 55.6613L47.0512 55.9974L47.0553 56.0019L47.4214 55.6613ZM49.8755 57.3956L49.7804 57.8864L49.7842 57.8872L49.8755 57.3956ZM52.3911 55.1188L52.8885 55.0678L52.8883 55.066L52.3911 55.1188ZM51.2888 53.0311L51.6589 52.6948L51.6549 52.6905L51.2888 53.0311ZM51.6862 52.5493C52.2178 53.1206 52.5699 53.6916 52.7626 54.2608L53.7098 53.94C53.4628 53.2108 53.0256 52.5207 52.4183 51.8681L51.6862 52.5493ZM52.7623 54.2596C52.9522 54.8249 52.9739 55.3442 52.8472 55.831L53.8149 56.083C53.9961 55.3868 53.9546 54.6685 53.7102 53.9411L52.7623 54.2596ZM52.8472 55.831C52.7201 56.3193 52.4472 56.7688 52.0045 57.1806L52.6857 57.9127C53.2497 57.388 53.6341 56.7776 53.8149 56.083L52.8472 55.831ZM52.0045 57.1806C51.5751 57.5802 51.1114 57.8178 50.609 57.9124L50.794 58.8951C51.4994 58.7623 52.1314 58.4286 52.6857 57.9127L52.0045 57.1806ZM50.6116 57.9119C50.106 58.0043 49.5844 57.9495 49.0364 57.7315L48.6669 58.6608C49.3723 58.9413 50.084 59.0248 50.7914 58.8956L50.6116 57.9119ZM49.0399 57.733C48.4907 57.5097 47.9578 57.136 47.4437 56.5942L46.7183 57.2825C47.312 57.9083 47.9595 58.3732 48.6633 58.6593L49.0399 57.733ZM47.4471 56.5978L47.028 56.1474L46.2959 56.8286L46.715 57.279L47.4471 56.5978ZM47.028 56.1474C46.5087 55.5893 46.1614 55.0218 45.9683 54.4461L45.0202 54.7642C45.2664 55.4979 45.6976 56.1855 46.2959 56.8286L47.028 56.1474ZM45.9683 54.4461C45.7756 53.8718 45.753 53.345 45.8801 52.8527L44.9119 52.6026C44.7307 53.3043 44.7736 54.0292 45.0202 54.7642L45.9683 54.4461ZM45.8804 52.8517C46.0091 52.3495 46.2783 51.9013 46.706 51.5034L46.0248 50.7713C45.4687 51.2888 45.0917 51.9008 44.9117 52.6036L45.8804 52.8517ZM46.706 51.5034C47.1444 51.0955 47.6131 50.8563 48.1157 50.7645L47.936 49.7808C47.2256 49.9106 46.5873 50.248 46.0248 50.7713L46.706 51.5034ZM48.12 50.7637C48.6184 50.6681 49.1383 50.7269 49.6923 50.9617L50.0825 50.041C49.3679 49.7381 48.6468 49.6445 47.9317 49.7816L48.12 50.7637ZM49.6934 50.9622C50.2474 51.1955 50.7903 51.5864 51.319 52.1546L52.0511 51.4734C51.4463 50.8234 50.7907 50.3392 50.0815 50.0406L49.6934 50.9622ZM51.319 52.1546L51.6862 52.5493L52.4183 51.8681L52.0511 51.4734L51.319 52.1546ZM51.2238 52.2272C50.4958 51.4448 49.7275 50.9319 48.9144 50.7876L48.7397 51.7722C49.2559 51.8638 49.8414 52.2095 50.4917 52.9084L51.2238 52.2272ZM48.9161 50.7879C48.0804 50.6367 47.3232 50.8838 46.6834 51.4791L47.3646 52.2112C47.7943 51.8113 48.2392 51.6817 48.738 51.7719L48.9161 50.7879ZM46.6834 51.4791C46.0541 52.0646 45.7638 52.7973 45.8503 53.6381L46.845 53.5358C46.7923 53.0229 46.9529 52.5943 47.3646 52.2112L46.6834 51.4791ZM45.8503 53.6387C45.9349 54.4524 46.3629 55.2394 47.0512 55.9974L47.7915 55.3251C47.1878 54.6602 46.9 54.0643 46.845 53.5353L45.8503 53.6387ZM47.0553 56.0019L47.4824 56.4608L48.2145 55.7796L47.7874 55.3207L47.0553 56.0019ZM47.4824 56.4608C48.1938 57.2254 48.9582 57.7271 49.7804 57.8864L49.9706 56.9047C49.4258 56.7991 48.8388 56.4507 48.2145 55.7796L47.4824 56.4608ZM49.7842 57.8872C50.6306 58.0443 51.3955 57.8087 52.0351 57.2135L51.3539 56.4814C50.9354 56.8708 50.4876 57.0006 49.9667 56.9039L49.7842 57.8872ZM52.0351 57.2135C52.6687 56.624 52.9738 55.8982 52.8885 55.0678L51.8937 55.1699C51.9435 55.6545 51.7842 56.081 51.3539 56.4814L52.0351 57.2135ZM52.8883 55.066C52.8026 54.2598 52.3618 53.4684 51.6589 52.6948L50.9188 53.3673C51.5452 54.0567 51.8392 54.6572 51.8939 55.1717L52.8883 55.066ZM51.6549 52.6905L51.2238 52.2272L50.4917 52.9084L50.9228 53.3717L51.6549 52.6905ZM55.9456 49.3224L56.1071 48.8492L55.824 48.7525L55.605 48.9563L55.9456 49.3224ZM54.4785 50.6874L54.1379 50.3214L53.7719 50.662L54.1125 51.028L54.4785 50.6874ZM56.8295 53.214L57.1701 53.5801L57.5361 53.2395L57.1955 52.8734L56.8295 53.214ZM56.0016 53.9844L55.6355 54.325L55.9761 54.691L56.3422 54.3504L56.0016 53.9844ZM50.1901 47.7387L49.8495 47.3726L49.4834 47.7132L49.824 48.0793L50.1901 47.7387ZM54.3262 44.7865L54.3491 45.286L54.3509 45.2859L54.3262 44.7865ZM56.8264 46.9661L56.3299 47.0245L56.3303 47.0277L56.8264 46.9661ZM56.5541 48.428L56.1053 48.2075L55.8513 48.7244L56.3987 48.9033L56.5541 48.428ZM60.4878 49.714L60.8539 49.3734L60.7659 49.2788L60.6432 49.2387L60.4878 49.714ZM60.5357 49.7655L60.8763 50.1315L61.2423 49.7909L60.9017 49.4249L60.5357 49.7655ZM59.652 50.5877L59.4905 51.0609L59.7736 51.1575L59.9926 50.9537L59.652 50.5877ZM53.8519 50.014L53.4858 50.3546L53.8264 50.7206L54.1925 50.38L53.8519 50.014ZM55.7957 47.613L55.2984 47.5606L55.2981 47.5635L55.7957 47.613ZM54.1963 45.8598L54.2046 46.3597L54.2077 46.3596L54.1963 45.8598ZM52.9098 46.4726L52.5716 46.1043L52.5692 46.1066L52.9098 46.4726ZM51.6486 47.6461L51.308 47.28L50.942 47.6206L51.2826 47.9867L51.6486 47.6461ZM55.605 48.9563L54.1379 50.3214L54.8191 51.0535L56.2862 49.6884L55.605 48.9563ZM54.1125 51.028L56.4634 53.5546L57.1955 52.8734L54.8446 50.3468L54.1125 51.028ZM56.4889 52.848L55.661 53.6183L56.3422 54.3504L57.1701 53.5801L56.4889 52.848ZM56.3676 53.6438L50.5561 47.3981L49.824 48.0793L55.6355 54.325L56.3676 53.6438ZM50.5307 48.1047L52.5983 46.1809L51.9171 45.4488L49.8495 47.3726L50.5307 48.1047ZM52.5983 46.1809C53.251 45.5735 53.8332 45.3096 54.3491 45.286L54.3033 44.287C53.4682 44.3253 52.6713 44.7469 51.9171 45.4488L52.5983 46.1809ZM54.3509 45.2859C54.8485 45.2612 55.3376 45.4634 55.8319 45.9947L56.564 45.3135C55.9194 44.6207 55.1606 44.2445 54.3014 44.2871L54.3509 45.2859ZM55.8319 45.9947C56.1279 46.3129 56.2862 46.6535 56.3299 47.0245L57.323 46.9077C57.2524 46.3071 56.9916 45.7731 56.564 45.3135L55.8319 45.9947ZM56.3303 47.0277C56.3768 47.4023 56.3095 47.7921 56.1053 48.2075L57.0028 48.6486C57.2818 48.0809 57.3961 47.496 57.3226 46.9044L56.3303 47.0277ZM56.3987 48.9033L60.3324 50.1892L60.6432 49.2387L56.7094 47.9528L56.3987 48.9033ZM60.1218 50.0546L60.1697 50.1061L60.9017 49.4249L60.8539 49.3734L60.1218 50.0546ZM60.1951 49.3994L59.3114 50.2216L59.9926 50.9537L60.8763 50.1315L60.1951 49.3994ZM59.8136 50.1145L56.1071 48.8492L55.784 49.7956L59.4905 51.0609L59.8136 50.1145ZM54.1925 50.38L55.4579 49.2025L54.7767 48.4705L53.5113 49.6479L54.1925 50.38ZM55.4579 49.2025C55.9305 48.7628 56.2348 48.2494 56.2932 47.6625L55.2981 47.5635C55.2699 47.8469 55.122 48.1492 54.7767 48.4705L55.4579 49.2025ZM56.2929 47.6655C56.3559 47.0684 56.1534 46.5324 55.7361 46.0838L55.004 46.765C55.2465 47.0257 55.3278 47.2821 55.2984 47.5606L56.2929 47.6655ZM55.7361 46.0838C55.3053 45.6209 54.7849 45.3462 54.185 45.3599L54.2077 46.3596C54.4543 46.354 54.7163 46.4558 55.004 46.765L55.7361 46.0838ZM54.188 45.3598C53.603 45.3695 53.0621 45.6539 52.5716 46.1043L53.2479 46.8409C53.6321 46.4881 53.9489 46.3639 54.2046 46.3597L54.188 45.3598ZM52.5692 46.1066L51.308 47.28L51.9892 48.0121L53.2504 46.8387L52.5692 46.1066ZM51.2826 47.9867L53.4858 50.3546L54.2179 49.6734L52.0147 47.3055L51.2826 47.9867ZM62.2635 42.7714L62.6041 43.1374L62.9702 42.7968L62.6296 42.4308L62.2635 42.7714ZM59.5568 45.29L59.2162 44.9239L58.8501 45.2645L59.1907 45.6306L59.5568 45.29ZM61.6163 47.5034L61.2503 47.844L61.5909 48.2101L61.9569 47.8695L61.6163 47.5034ZM64.7606 44.5777L65.1267 44.2371L64.7861 43.8711L64.42 44.2117L64.7606 44.5777ZM65.3873 45.2512L65.7279 45.6172L66.0939 45.2766L65.7533 44.9106L65.3873 45.2512ZM61.4194 48.9432L61.0533 49.2838L61.3939 49.6499L61.76 49.3093L61.4194 48.9432ZM55.6079 42.6975L55.2673 42.3315L54.9012 42.6721L55.2418 43.0381L55.6079 42.6975ZM59.5329 39.0454L59.8989 38.7048L59.5583 38.3387L59.1923 38.6793L59.5329 39.0454ZM60.1635 39.7231L60.5041 40.0892L60.8702 39.7486L60.5296 39.3825L60.1635 39.7231ZM57.0621 42.6089L56.7215 42.2429L56.3555 42.5835L56.6961 42.9495L57.0621 42.6089ZM58.9301 44.6165L58.5641 44.9571L58.9047 45.3231L59.2707 44.9825L58.9301 44.6165ZM61.6369 42.0979L62.0029 41.7573L61.6623 41.3913L61.2963 41.7319L61.6369 42.0979ZM61.9229 42.4053L59.2162 44.9239L59.8974 45.656L62.6041 43.1374L61.9229 42.4053ZM59.1907 45.6306L61.2503 47.844L61.9824 47.1628L59.9228 44.9494L59.1907 45.6306ZM61.9569 47.8695L65.1012 44.9437L64.42 44.2117L61.2757 47.1374L61.9569 47.8695ZM64.3946 44.9183L65.0212 45.5918L65.7533 44.9106L65.1267 44.2371L64.3946 44.9183ZM65.0467 44.8851L61.0788 48.5772L61.76 49.3093L65.7279 45.6172L65.0467 44.8851ZM61.7854 48.6026L55.9739 42.3569L55.2418 43.0381L61.0533 49.2838L61.7854 48.6026ZM55.9485 43.0636L59.8735 39.4114L59.1923 38.6793L55.2673 42.3315L55.9485 43.0636ZM59.1668 39.386L59.7975 40.0637L60.5296 39.3825L59.8989 38.7048L59.1668 39.386ZM59.8229 39.3571L56.7215 42.2429L57.4027 42.975L60.5041 40.0892L59.8229 39.3571ZM56.6961 42.9495L58.5641 44.9571L59.2962 44.2759L57.4282 42.2683L56.6961 42.9495ZM59.2707 44.9825L61.9775 42.4639L61.2963 41.7319L58.5895 44.2504L59.2707 44.9825ZM61.2708 42.4385L61.8975 43.112L62.6296 42.4308L62.0029 41.7573L61.2708 42.4385Z" fill="#EE7155"/>
</svg>
