<?xml version="1.0" standalone="no"?>
<!DOCTYPE svg PUBLIC "-//W3C//DTD SVG 20010904//EN"
 "http://www.w3.org/TR/2001/REC-SVG-20010904/DTD/svg10.dtd">
<svg version="1.0" xmlns="http://www.w3.org/2000/svg"
 width="1909.000000pt" height="255.000000pt" viewBox="0 0 1909.000000 255.000000"
 preserveAspectRatio="xMidYMid meet">
<g transform="translate(0.000000,255.000000) scale(0.100000,-0.100000)"
fill="rgba(0, 0, 0, 0.1)" stroke="none">
<path d="M16346 2523 c-8 -37 -20 -42 -35 -16 -8 14 -12 15 -25 4 -9 -7 -16
-20 -16 -27 0 -8 -4 -14 -10 -14 -5 0 -10 9 -10 21 0 17 -4 19 -22 13 -13 -4
-28 -14 -35 -23 -16 -22 -27 -8 -14 17 10 19 8 20 -29 18 -26 -1 -48 -10 -62
-24 -17 -16 -19 -22 -8 -22 25 -1 -32 -40 -57 -40 -15 0 -23 -6 -23 -17 0 -13
-3 -14 -12 -5 -18 18 -23 16 -63 -25 l-36 -38 -16 23 c-11 15 -26 22 -48 22
-28 0 -35 -5 -43 -29 -8 -23 -7 -31 4 -35 8 -3 14 -12 14 -21 0 -18 21 -20 37
-4 7 7 19 9 29 5 16 -6 16 -8 -1 -26 -22 -24 -75 -27 -75 -5 0 8 -5 15 -10 15
-6 0 -15 12 -21 28 -11 26 -11 26 -19 6 -5 -12 -13 -25 -19 -29 -17 -10 -13
-22 10 -28 18 -5 19 -8 9 -27 -10 -18 -18 -21 -46 -17 -19 3 -34 2 -34 -4 0
-5 -7 -9 -15 -9 -8 0 -15 -8 -15 -18 0 -10 -7 -28 -16 -40 -16 -24 -13 -27 31
-34 11 -2 20 -11 20 -20 0 -9 4 -20 8 -24 11 -12 8 -24 -7 -24 -7 0 -19 -7
-26 -15 -28 -34 -102 -56 -115 -35 -9 15 -123 12 -188 -5 -32 -8 -91 -15 -131
-15 -72 0 -75 -1 -104 -34 -39 -44 -67 -122 -83 -224 -8 -55 -17 -82 -26 -82
-9 0 -13 14 -13 44 0 40 -4 47 -47 82 -60 50 -237 194 -550 446 -39 32 -75 58
-80 58 -5 0 -33 -25 -63 -55 -40 -40 -62 -55 -82 -55 -21 0 -28 -5 -28 -20 0
-23 -15 -27 -24 -5 -6 18 -36 9 -36 -11 0 -17 -12 -18 -26 -4 -12 12 -44 3
-44 -11 0 -5 -4 -9 -10 -9 -5 0 -10 9 -10 20 0 40 -83 20 -93 -22 -6 -24 -58
-52 -90 -49 -9 1 -29 -11 -43 -28 -29 -35 -44 -39 -51 -13 -3 12 -15 19 -38
20 -30 2 -35 -1 -41 -25 -5 -17 -3 -28 4 -31 7 -2 12 -10 12 -18 0 -17 22 -18
37 -3 12 12 33 4 33 -11 0 -5 -11 -17 -25 -26 -22 -15 -26 -14 -49 3 -14 10
-26 26 -26 35 0 27 -24 27 -38 -1 -11 -22 -11 -27 2 -37 9 -6 16 -16 16 -22 0
-11 -37 -25 -56 -21 -5 1 -12 0 -16 -1 -5 -1 -14 -3 -20 -4 -7 0 -13 -8 -13
-16 -1 -8 -6 -25 -13 -37 -13 -24 -8 -27 36 -26 7 1 12 -12 12 -32 0 -31 -19
-56 -50 -67 -9 -3 -22 -18 -30 -34 -8 -16 -25 -40 -37 -54 -56 -63 -72 -84
-67 -92 3 -4 -4 -8 -16 -8 -17 0 -20 -4 -15 -20 5 -14 2 -20 -9 -20 -9 0 -16
-2 -16 -4 0 -13 49 -56 64 -56 9 0 16 -4 16 -9 0 -5 -21 -6 -46 -3 -44 5 -46
4 -35 -16 26 -49 19 -52 -104 -52 l-115 0 0 -29 c0 -37 -11 -44 -38 -25 -22
15 -22 18 -22 349 l0 335 -437 2 -438 3 -3 37 c-3 36 -4 37 -50 40 l-47 3 -5
80 -5 80 -152 3 -153 3 0 -100 c0 -76 -3 -102 -14 -108 -8 -5 -16 -27 -18 -53
-3 -43 -4 -45 -38 -48 -19 -2 -38 -9 -42 -15 -4 -7 -8 -69 -8 -138 l0 -127
-32 -7 c-18 -4 -116 -10 -217 -12 -161 -3 -185 -2 -195 12 -10 14 -27 16 -105
12 -53 -2 -96 -9 -100 -15 -4 -8 -64 -12 -171 -14 l-165 -3 -5 -150 -5 -150
-82 -10 c-68 -8 -86 -14 -98 -32 -9 -13 -23 -23 -31 -23 -8 0 -24 -11 -36 -25
-16 -18 -32 -25 -59 -25 -49 0 -89 16 -89 35 0 20 -17 19 -29 -2 -10 -16 -11
-16 -17 4 -7 26 -24 31 -24 7 0 -12 -6 -15 -25 -10 -14 4 -25 3 -25 -1 0 -14
-53 -32 -100 -34 -74 -4 -70 9 -70 -205 0 -165 -2 -194 -15 -194 -12 0 -15 31
-17 196 l-3 197 -38 24 c-38 24 -39 24 -44 4 -7 -27 -17 -26 -36 2 l-16 22
-20 -25 c-17 -21 -21 -43 -23 -125 l-3 -100 -28 -3 c-21 -3 -33 3 -48 22 -11
14 -26 26 -34 26 -7 0 -18 7 -25 15 -20 24 -46 17 -75 -21 -24 -31 -31 -35
-58 -30 -40 8 -49 22 -43 71 3 22 8 65 11 95 l7 55 -75 0 c-71 0 -76 -1 -99
-30 -18 -23 -24 -45 -27 -102 -3 -74 -9 -85 -31 -58 -11 13 -17 10 -46 -22
-26 -30 -33 -47 -34 -80 0 -61 -7 -73 -45 -73 -18 0 -35 5 -37 11 -2 6 0 50 5
98 8 79 5 182 -9 321 -4 38 1 77 14 129 23 83 21 97 -14 105 -26 7 -31 25 -12
44 9 9 6 17 -12 37 -13 14 -29 25 -35 25 -18 0 -38 -45 -30 -70 5 -15 1 -28
-15 -45 -21 -22 -22 -28 -12 -87 6 -35 14 -75 18 -90 5 -22 3 -28 -10 -28 -14
0 -16 -25 -16 -232 0 -128 -4 -239 -8 -245 -5 -7 -35 -14 -71 -15 -85 -4 -91
5 -91 139 l0 103 -65 0 c-45 0 -65 -4 -66 -12 -1 -7 -3 -56 -4 -108 -1 -52 -3
-98 -4 -102 0 -5 -12 -8 -26 -8 -32 0 -43 25 -21 48 17 19 28 149 14 158 -5 3
-6 10 -3 15 8 12 -37 109 -50 109 -5 0 -23 14 -39 30 -16 17 -35 30 -41 30 -7
0 -20 9 -30 20 -24 26 -88 21 -116 -9 -11 -11 -30 -21 -42 -21 -15 0 -26 -10
-35 -30 -13 -29 -32 -41 -32 -20 0 6 4 10 9 10 4 0 6 11 3 25 -2 14 3 40 12
59 9 19 16 38 16 44 0 5 7 15 15 22 8 7 15 21 15 31 0 11 9 28 20 39 14 14 18
28 14 44 -3 13 -1 27 5 31 8 4 8 12 0 26 -5 11 -7 29 -4 39 4 12 2 20 -5 20
-6 0 -9 8 -6 18 4 10 -2 34 -11 53 -10 19 -17 41 -18 49 0 8 -10 16 -22 18
-13 2 -23 9 -23 15 0 7 -17 23 -38 37 -20 13 -50 35 -66 47 -22 18 -31 21 -42
12 -8 -6 -21 -8 -30 -5 -9 4 -30 -6 -52 -24 -20 -16 -45 -30 -54 -30 -10 0
-24 -12 -31 -27 -6 -16 -18 -32 -25 -36 -9 -6 -11 -19 -7 -39 6 -23 0 -41 -30
-89 -32 -52 -36 -65 -33 -116 4 -79 24 -117 89 -166 29 -22 42 -25 73 -20 27
4 41 2 47 -8 14 -22 11 -223 -3 -237 -7 -7 -29 -12 -49 -12 -20 0 -42 -7 -49
-15 -16 -19 -46 -19 -54 0 -4 11 -20 15 -56 15 l-50 0 0 -68 c0 -72 -4 -80
-57 -109 -49 -28 -51 -23 -57 135 -3 81 -8 170 -11 198 -7 49 -8 50 -50 63
-24 7 -51 21 -60 31 -9 10 -30 23 -46 29 -25 9 -33 7 -47 -9 -9 -11 -29 -20
-44 -20 -16 0 -28 -4 -28 -10 0 -5 -7 -10 -15 -10 -8 0 -23 -4 -33 -9 -9 -5
-25 -12 -34 -15 -13 -4 -18 -16 -18 -45 0 -52 -17 -62 -25 -14 -16 96 -21 114
-29 116 -6 1 -25 -43 -44 -97 -33 -97 -50 -126 -71 -126 -5 0 -11 12 -13 28
-3 24 -7 27 -35 25 -36 -3 -38 0 -48 90 -8 68 -21 79 -110 85 -66 5 -68 5
-175 -3 -41 -2 -81 -5 -87 -5 -10 0 -13 -30 -14 -112 0 -62 -4 -133 -7 -158
l-7 -45 -49 -3 c-27 -2 -52 1 -55 6 -3 6 -35 8 -74 5 l-69 -6 -27 -56 c-28
-59 -30 -60 -101 -46 -30 6 -40 3 -61 -18 -14 -14 -33 -51 -42 -81 -10 -30
-22 -58 -27 -61 -17 -11 -39 8 -54 46 -16 39 -31 50 -38 27 -7 -19 -58 0 -67
25 -6 16 -31 33 -76 52 l-68 28 -41 -21 c-23 -12 -44 -22 -48 -22 -4 0 -9 143
-10 318 l-3 317 -106 3 -107 3 -6 -55 c-8 -61 -19 -70 -68 -55 -18 5 -49 9
-68 9 -27 0 -41 7 -62 32 l-26 33 -24 -23 c-22 -20 -34 -22 -126 -22 -80 0
-103 3 -109 15 -12 21 -70 9 -84 -16 -7 -14 -21 -19 -48 -19 -44 0 -51 10 -51
71 0 21 -4 39 -10 39 -10 0 -14 -13 -11 -36 2 -20 -23 -33 -69 -36 l-45 -3 -7
-150 -7 -150 -118 -112 c-65 -62 -123 -113 -129 -113 -30 0 -37 31 -31 130 3
60 1 102 -5 106 -5 3 -9 36 -8 72 1 37 1 73 1 80 -1 8 -21 12 -66 12 -49 0
-65 3 -65 14 0 18 -29 29 -44 17 -6 -5 -51 -12 -99 -16 l-88 -7 -12 31 c-10
28 -15 31 -57 32 -25 0 -54 4 -65 9 -23 9 -26 8 90 30 33 6 79 15 103 20 23 6
53 10 67 10 13 0 27 5 30 10 9 14 -106 1 -287 -32 -31 -6 -61 -7 -67 -4 -14 9
-15 202 -1 211 6 3 10 42 10 85 l0 79 -64 -6 -65 -6 -8 34 -9 34 -666 5 -665
5 -64 81 c-35 44 -89 113 -119 152 -30 40 -60 71 -66 70 -10 -3 -95 -95 -231
-251 -38 -43 -48 -45 -64 -14 -7 12 -18 26 -25 30 -26 15 -15 29 16 22 35 -8
35 -6 15 42 -19 45 -19 70 0 81 14 7 13 11 -6 28 -11 10 -24 18 -28 16 -3 -1
-7 6 -9 18 -2 12 1 19 9 18 14 -4 31 49 18 57 -20 13 -55 103 -47 124 5 15 3
21 -7 21 -8 0 -15 7 -15 15 0 23 -18 18 -45 -11 -28 -30 -33 -14 -10 26 20 35
18 50 -5 50 -11 0 -20 7 -20 15 0 8 -19 27 -43 44 -24 16 -56 48 -71 70 -16
23 -31 41 -33 41 -2 0 -14 -7 -27 -15 -13 -9 -38 -14 -57 -13 -29 3 -34 -1
-37 -19 -2 -13 -17 -30 -33 -40 -16 -10 -32 -25 -35 -35 -6 -21 -25 -23 -42
-6 -14 14 -21 9 -24 -21 -3 -19 12 -36 40 -47 1 -1 0 -9 -4 -18 -9 -22 -34
-20 -34 3 0 11 -5 23 -10 26 -16 10 -24 -23 -10 -40 11 -13 8 -17 -18 -27 -22
-9 -32 -20 -35 -42 -3 -20 0 -35 9 -42 20 -16 17 -52 -6 -81 -11 -14 -20 -32
-20 -39 0 -7 -16 -43 -36 -81 -34 -66 -38 -92 -19 -135 5 -13 3 -18 -10 -18
-12 0 -15 -5 -10 -17 13 -32 18 -100 7 -107 -14 -8 9 -56 26 -56 10 0 12 -8 7
-30 -5 -22 -3 -30 7 -30 25 0 38 -21 27 -43 -10 -17 -8 -19 18 -15 15 3 22 3
16 1 -16 -5 13 -53 32 -53 7 0 25 -12 40 -26 27 -25 29 -25 41 -9 10 14 17 15
27 7 8 -7 16 -9 19 -6 3 3 21 7 40 10 l35 4 6 -83 c10 -122 8 -290 -3 -307
-17 -26 -30 8 -30 82 0 64 -1 68 -22 65 -21 -4 -21 -7 -19 -138 2 -135 2 -135
-25 -162 -15 -15 -31 -24 -35 -20 -4 4 -9 93 -10 197 l-3 189 -28 20 c-15 12
-28 26 -28 33 0 6 -7 18 -16 25 -14 11 -18 11 -28 -2 -6 -8 -29 -29 -51 -47
-35 -28 -39 -36 -36 -68 2 -30 0 -35 -16 -32 -10 2 -19 13 -21 26 -8 53 -32 9
-32 -59 0 -23 -6 -39 -15 -43 -11 -4 -15 1 -15 19 0 18 -5 25 -19 25 -24 0
-31 19 -31 90 0 79 -7 84 -137 82 -58 -1 -109 -5 -114 -8 -5 -3 -9 -75 -9
-160 0 -134 -2 -155 -16 -161 -9 -3 -25 -1 -35 5 -27 17 -29 15 -29 -17 0 -15
-5 -42 -11 -59 -9 -25 -16 -30 -42 -31 -18 0 -48 -3 -68 -6 -33 -6 -37 -5 -43
19 -3 14 -20 41 -36 60 -17 18 -30 40 -30 48 0 21 -8 27 -30 21 -10 -3 -20
-15 -22 -27 -5 -32 -44 -34 -52 -2 -11 46 -26 27 -26 -34 0 -49 -3 -61 -20
-70 -11 -6 -20 -19 -20 -28 0 -10 -4 -22 -10 -28 -5 -5 -11 -106 -12 -239 l-3
-230 -57 -3 -58 -3 0 -204 0 -205 9545 0 9545 0 0 205 0 205 -34 0 c-22 0 -36
6 -40 16 -3 9 -6 114 -6 235 0 120 -2 219 -5 219 -2 0 -27 -13 -55 -30 -28
-16 -55 -30 -61 -30 -5 0 -28 -29 -50 -63 -36 -59 -70 -87 -103 -87 -7 0 -39
11 -72 23 -40 16 -72 23 -99 20 -29 -3 -56 3 -97 21 -31 14 -81 29 -112 32
l-56 7 0 378 0 378 -117 3 c-131 3 -143 -1 -143 -56 0 -54 -6 -57 -106 -45
-77 10 -93 15 -117 40 -28 29 -51 30 -72 2 -6 -8 -49 -15 -118 -19 -102 -7
-109 -6 -131 15 -23 21 -27 22 -63 9 -21 -7 -43 -19 -48 -26 -7 -9 -27 -12
-55 -10 -40 3 -45 6 -48 28 -8 73 -25 93 -35 41 -6 -27 -10 -29 -72 -36 l-65
-7 0 -134 c0 -75 -5 -144 -10 -155 -8 -14 -21 -19 -49 -19 l-38 0 -6 98 c-10
149 -8 224 7 253 12 23 12 29 -1 42 -20 19 -8 43 13 26 7 -6 12 -15 9 -18 -2
-4 16 -8 40 -8 25 0 45 4 45 9 0 4 -8 8 -19 8 -23 0 -45 25 -36 40 4 7 19 9
36 5 36 -8 40 11 5 24 -13 5 -26 18 -29 28 -4 10 -12 26 -19 35 -18 25 -4 32
42 20 39 -10 40 -9 34 11 -3 12 -18 33 -33 47 -14 14 -31 42 -38 62 l-11 37
40 -1 c21 0 41 2 44 5 12 12 -8 28 -27 22 -10 -4 -29 1 -41 9 -12 9 -37 16
-55 16 -25 0 -33 4 -33 18 0 22 -39 47 -52 34 -12 -12 -58 8 -58 26 0 16 72
10 78 -6 1 -5 12 -8 22 -5 14 4 20 0 20 -11 0 -23 24 -30 50 -16 16 9 21 18
17 36 -4 20 0 24 21 24 14 0 22 3 18 8 -4 4 -19 7 -33 7 -15 0 -30 8 -37 19
-13 23 -26 41 -43 61 -7 7 -13 22 -13 32 0 15 -2 16 -10 3 -5 -8 -10 -10 -10
-3 0 6 -9 9 -20 6 -14 -4 -20 0 -20 12 0 13 6 16 25 11 16 -4 25 -2 25 6 0 6
7 20 17 30 21 23 9 36 -14 16 -10 -8 -26 -18 -36 -21 -24 -9 -36 22 -14 38 24
17 21 29 -5 20 -13 -4 -43 -10 -68 -14 -30 -4 -45 -11 -45 -21 0 -16 -50 -38
-61 -27 -9 9 15 37 32 37 8 0 14 5 14 11 0 6 9 22 20 36 29 37 25 41 -22 32
-24 -4 -46 -8 -50 -9 -3 0 -11 14 -17 31 -6 18 -16 29 -23 27 -7 -3 -28 4 -46
14 -18 10 -42 18 -54 18 -28 0 -104 45 -112 66 -4 11 -13 14 -27 11 -15 -4
-23 1 -29 19 -7 16 -17 24 -34 24 -13 0 -26 6 -29 13 -2 6 -7 -3 -11 -20z
m-14728 -1208 c4 -172 -4 -225 -30 -209 -6 4 -19 -4 -28 -16 -17 -23 -19 -23
-44 -7 -21 14 -26 26 -28 60 l-1 42 -4 -38 c-3 -29 -8 -37 -21 -35 -15 3 -17
22 -20 150 -3 146 -2 147 23 172 14 14 37 26 50 26 14 0 25 5 25 10 0 6 6 10
14 10 7 0 19 7 26 15 27 33 35 -4 38 -180z m6529 -110 c-3 -11 -17 -64 -31
-119 -14 -54 -26 -100 -26 -101 0 -8 -32 -14 -45 -9 -12 5 -15 29 -15 128 l0
121 61 0 c56 0 60 -1 56 -20z"/>
</g>
</svg>
