<?xml version="1.0" standalone="no"?>
<!DOCTYPE svg PUBLIC "-//W3C//DTD SVG 20010904//EN"
 "http://www.w3.org/TR/2001/REC-SVG-20010904/DTD/svg10.dtd">
<svg version="1.0" xmlns="http://www.w3.org/2000/svg"
 width="300.000000pt" height="221.000000pt" viewBox="0 0 300.000000 221.000000"
 preserveAspectRatio="xMidYMid meet">
<metadata>
Created by potrace 1.10, written by Peter Selinger 2001-2011
</metadata>
<g transform="translate(0.000000,221.000000) scale(0.100000,-0.100000)"
fill="rgba(0,0,0,0.1)" stroke="none">
<path d="M0 1105 c0 -730 3 -1105 10 -1105 6 0 10 7 10 15 0 12 14 15 67 15
53 0 75 5 112 26 49 29 476 280 808 477 112 66 200 123 198 128 -3 4 3 7 12 7
10 0 67 29 127 66 60 36 113 66 117 66 5 0 9 4 9 9 0 15 -39 0 -109 -40 -48
-28 -67 -35 -73 -26 -16 25 -6 33 55 47 l62 14 -63 6 -62 5 25 38 c25 36 23
50 -4 24 -11 -10 -13 -6 -7 23 4 27 3 31 -5 20 -8 -12 -9 -10 -4 10 4 14 6 35
6 47 0 12 5 25 11 29 8 5 9 2 5 -10 -4 -9 -3 -15 3 -11 5 3 8 -3 7 -14 0 -11
-5 -17 -9 -15 -11 7 -10 -18 1 -35 6 -9 18 -12 37 -7 16 4 35 7 42 8 6 1 12 9
12 19 0 21 39 32 59 16 14 -11 14 -10 2 6 -19 24 -32 22 -76 -13 -36 -29 -65
-39 -65 -22 1 19 41 52 64 52 18 0 26 5 25 18 0 10 -3 12 -6 5 -2 -7 -14 -13
-26 -13 -20 0 -19 2 8 20 17 11 39 20 50 21 11 0 14 3 7 6 -6 2 -10 9 -6 14 9
15 -13 10 -30 -6 -18 -19 -26 -19 -26 -1 0 8 -7 16 -15 20 -25 9 -17 24 16 31
17 4 28 9 25 13 -3 3 0 12 6 21 7 9 0 5 -16 -9 l-28 -25 8 30 c10 44 23 65 39
65 8 0 15 5 15 11 0 6 -7 8 -15 5 -10 -3 -15 -1 -13 7 2 6 -2 14 -7 17 -6 3
-10 -7 -11 -23 -1 -34 -11 -44 -26 -29 -7 7 -17 12 -24 12 -7 0 -31 18 -53 40
-38 37 -60 52 -46 31 3 -5 -3 -11 -12 -14 -13 -3 -8 -7 14 -12 39 -9 56 -27
58 -61 1 -28 -10 -31 -24 -6 -10 15 -11 15 -17 -6 -8 -29 -24 -11 -24 28 0 18
-3 21 -9 11 -5 -7 -14 -10 -20 -7 -6 4 -9 12 -6 17 3 5 0 6 -7 4 -8 -3 -14
-16 -15 -28 0 -12 1 -16 4 -10 5 15 43 -1 43 -18 0 -6 -5 -7 -12 -3 -7 4 -8 3
-4 -5 4 -6 11 -9 16 -6 5 3 12 -4 15 -16 6 -17 1 -27 -16 -40 -30 -23 -12 -25
20 -2 14 9 21 11 17 5 -4 -7 -1 -15 8 -18 20 -8 22 -64 2 -64 -7 0 -21 10 -29
23 l-16 22 0 -22 c-1 -15 5 -23 17 -23 15 -1 15 -2 -2 -15 -17 -13 -18 -15 -3
-15 12 0 17 -8 17 -27 l0 -28 -20 25 c-11 14 -20 41 -20 61 0 25 -7 42 -25 57
-30 26 -32 17 -5 -18 24 -31 27 -72 5 -64 -8 4 -15 15 -15 26 0 11 -10 28 -21
37 -20 16 -22 26 -21 151 l2 133 -37 49 c-21 26 -38 48 -40 48 -12 0 9 -46 28
-61 13 -10 20 -19 15 -19 -5 0 -3 -8 5 -17 10 -12 13 -31 9 -55 l-5 -37 -96
94 c-52 52 -91 97 -85 99 7 3 6 10 -4 18 -10 9 -14 28 -12 63 2 33 -1 45 -7
36 -5 -8 -8 -33 -7 -57 1 -24 -2 -44 -7 -44 -4 0 -6 -4 -3 -8 8 -13 -61 -7
-78 7 -9 7 -13 25 -12 44 2 18 1 22 -1 11 -3 -16 -14 -24 -41 -29 -20 -3 -46
-8 -57 -11 -19 -4 -19 -4 -1 8 11 7 33 25 50 39 17 14 43 28 59 31 26 5 27 4
28 -46 1 -28 3 -43 6 -33 5 18 6 18 24 1 10 -9 19 -13 19 -7 0 5 -9 18 -20 28
-26 23 -26 57 0 80 11 10 18 20 15 23 -3 3 -13 -2 -22 -11 -10 -8 -31 -19 -48
-23 l-30 -7 19 22 c11 12 26 19 33 16 8 -2 12 -1 9 4 -3 5 0 13 7 19 8 7 24 5
52 -8 l39 -18 1 -66 c1 -36 6 -71 12 -77 8 -8 27 -9 60 -3 26 5 60 8 76 8 15
0 27 4 27 8 0 4 -5 8 -11 8 -5 0 -7 5 -4 10 3 6 -1 10 -10 10 -9 0 -14 -4 -11
-9 4 -5 -3 -7 -14 -4 -12 3 -20 0 -20 -7 0 -7 -14 7 -31 31 -39 54 -55 71 -40
42 6 -13 9 -23 5 -23 -3 0 1 -12 11 -26 14 -22 15 -28 4 -35 -8 -5 -21 -8 -29
-8 -10 0 -11 2 -3 6 9 3 10 10 3 23 -5 10 -9 33 -7 52 4 50 35 49 67 -2 14
-22 28 -40 33 -40 4 0 -6 20 -23 45 -22 32 -38 45 -55 45 -13 0 -26 3 -28 8
-3 4 25 8 61 10 37 2 69 5 71 8 10 10 -7 11 -64 4 -56 -7 -86 -3 -58 7 8 3
-15 45 -62 115 l-76 110 3 139 3 138 65 -127 c36 -70 96 -185 134 -257 39 -71
73 -146 77 -165 4 -22 7 6 8 78 1 66 -3 112 -9 112 -5 0 -6 7 -3 17 4 11 3 14
-5 9 -8 -5 -10 -2 -6 8 3 9 1 16 -5 16 -6 0 -8 7 -4 17 4 11 3 14 -5 9 -8 -5
-10 -1 -5 10 5 13 3 15 -7 9 -8 -5 -11 -4 -6 3 8 14 -23 94 -35 86 -5 -3 -6 3
-2 12 5 13 3 15 -7 9 -10 -6 -12 -4 -7 8 8 21 -2 49 -14 41 -5 -3 -6 1 -4 8 8
21 -69 191 -88 194 -13 2 -12 -7 9 -53 13 -31 24 -58 24 -62 0 -3 5 1 11 9 9
12 10 10 6 -8 -4 -16 21 -83 74 -204 69 -154 80 -186 77 -226 l-3 -47 -137
261 c-87 168 -138 276 -141 300 -2 22 -4 -43 -5 -144 -3 -242 -21 -237 -24 6
l-2 177 -3 -171 c-3 -160 -5 -172 -23 -177 -10 -3 -21 -2 -24 1 -3 3 -6 80 -6
171 l0 166 -227 -8 c-158 -6 -229 -5 -231 2 -2 6 -11 11 -19 11 -14 0 -15 -22
-12 -172 l4 -173 -23 -3 -23 -4 3 176 c2 97 0 176 -4 176 -5 0 -8 -53 -8 -117
0 -121 -4 -138 -30 -138 -43 -1 -130 -18 -130 -26 0 -14 72 -10 103 5 23 13
27 13 27 0 0 -8 -4 -14 -8 -14 -12 0 -122 -100 -122 -111 0 -16 30 6 98 69
l62 58 0 -39 c0 -34 -3 -39 -20 -34 -19 5 -20 0 -20 -69 0 -41 -2 -74 -5 -74
-3 0 -17 7 -31 16 -13 9 -27 14 -30 11 -8 -8 65 -49 79 -44 6 3 8 6 2 6 -6 1
-9 29 -7 71 l4 70 89 0 c53 0 89 -4 89 -10 0 -5 11 -10 24 -10 20 0 56 -35 56
-55 0 -3 -45 -5 -100 -5 l-100 0 1 -27 c1 -23 2 -24 6 -6 4 20 11 22 102 25
87 3 101 1 130 -19 l32 -22 -35 -7 c-20 -3 -36 -10 -36 -15 0 -4 20 -2 45 6
44 13 47 12 75 -11 16 -14 34 -41 41 -62 6 -20 15 -41 20 -46 5 -6 9 -14 9
-19 0 -5 -21 10 -46 32 -51 44 -101 63 -144 54 -25 -4 -33 1 -67 45 -21 28
-44 51 -52 51 -9 1 -5 -7 9 -19 13 -12 18 -20 10 -20 -7 0 4 -16 26 -35 34
-31 44 -35 79 -31 22 2 32 2 23 -1 -11 -2 -18 -14 -18 -28 0 -20 -23 -55 -36
-55 -2 0 -13 9 -24 20 -21 21 -40 26 -40 11 0 -5 9 -11 20 -14 11 -3 20 -10
20 -17 0 -6 -4 -9 -9 -6 -5 4 -20 2 -33 -4 -20 -9 -19 -10 14 -8 27 2 42 -3
52 -17 9 -11 16 -15 16 -9 0 5 -5 15 -11 21 -7 7 5 9 42 5 34 -3 50 -1 46 5
-4 6 -24 9 -44 7 -30 -4 -34 -3 -20 6 9 6 17 22 17 35 0 29 16 41 35 25 9 -7
15 -8 20 0 3 5 11 10 16 10 6 0 8 -4 5 -9 -3 -4 6 -19 19 -31 28 -26 33 -45
10 -36 -8 3 -15 0 -15 -5 0 -6 9 -9 20 -6 11 3 29 -2 41 -12 17 -14 20 -23 14
-54 -4 -20 -9 -37 -12 -37 -5 0 -52 36 -84 63 -28 24 -42 24 -101 0 -32 -13
-69 -23 -83 -23 -24 0 -34 -13 -17 -24 9 -5 85 17 114 34 10 6 27 10 38 10 32
0 96 -46 114 -80 14 -30 14 -31 -6 -39 l-22 -8 22 -5 c18 -5 22 -13 22 -48 0
-22 -4 -39 -9 -36 -5 3 -7 23 -5 43 l3 38 -12 -35 c-8 -25 -17 -34 -29 -32
-14 3 -15 7 -6 27 12 27 2 87 -12 66 -5 -10 -15 0 -35 33 -15 25 -28 46 -30
46 -7 0 17 -60 26 -66 13 -8 11 -22 -3 -27 -7 -2 -5 -3 4 -2 25 4 31 -10 16
-35 -19 -30 -33 -24 -44 17 -7 29 -19 43 -56 65 -27 15 -48 23 -48 18 0 -5 14
-16 30 -25 33 -17 40 -35 13 -35 -15 0 -16 2 -3 10 9 6 10 10 3 10 -16 0 -26
-17 -14 -24 5 -3 20 -7 33 -8 13 -1 24 -9 25 -18 1 -8 4 -25 8 -37 6 -18 4
-21 -14 -16 -12 3 -23 9 -26 13 -3 5 5 6 17 2 15 -4 19 -2 13 7 -4 7 -17 10
-30 7 -19 -5 -24 -2 -27 16 -4 30 -60 57 -116 58 -36 0 -45 -4 -49 -20 -3 -13
-14 -20 -29 -20 l-24 0 0 148 c0 142 1 148 24 170 13 12 27 22 30 22 3 0 7
-66 8 -147 l2 -148 6 148 5 149 39 -31 c21 -17 44 -31 50 -32 6 0 2 -4 -9 -8
-11 -5 -24 -5 -30 -1 -5 4 -18 10 -27 13 -17 6 -18 -3 -16 -116 1 -83 3 -106
7 -71 6 51 6 51 41 49 19 -1 44 -5 55 -9 16 -6 15 -4 -5 13 -18 16 -34 20 -57
17 l-33 -5 0 55 c0 51 1 54 19 44 11 -5 47 -8 82 -5 64 4 90 14 48 17 -13 1
-31 2 -40 3 -8 0 -38 17 -66 38 -52 38 -96 47 -110 23 -10 -16 -48 -37 -88
-48 -25 -6 -23 -7 13 -4 l42 4 0 -144 0 -144 -65 0 -65 0 0 425 c0 277 -3 425
-10 425 -7 0 -10 -375 -10 -1105z m936 1008 c-4 -4 -36 73 -35 85 0 4 9 -13
20 -37 11 -24 18 -46 15 -48z m-216 -85 l0 -163 -86 0 c-93 0 -114 11 -114 63
0 17 -8 27 -30 35 -16 6 -30 15 -30 19 0 4 -4 8 -10 8 -20 0 -9 -18 19 -29 20
-9 32 -24 40 -52 7 -22 28 -58 48 -80 36 -40 40 -74 6 -62 -25 9 -93 63 -93
74 0 5 12 9 27 9 14 0 23 3 20 7 -4 3 -61 6 -127 7 -66 1 -120 4 -120 9 0 4 0
36 0 72 l0 65 220 0 c137 0 220 4 220 10 0 6 -79 8 -220 4 l-220 -6 0 81 0 81
218 3 c119 1 220 3 225 5 4 1 7 -71 7 -160z m259 -3 c0 -5 -6 1 -14 15 -8 14
-14 30 -14 35 0 6 6 -1 14 -15 8 -14 14 -29 14 -35z m-524 -194 c-4 -14 0 -21
17 -26 13 -4 29 -13 37 -19 11 -9 9 -12 -15 -17 l-29 -7 33 -1 c17 0 32 -6 32
-12 0 -6 8 -8 18 -5 28 9 39 -6 46 -62 7 -54 53 -162 69 -162 20 0 67 43 67
60 0 13 5 18 16 13 9 -3 31 8 55 27 l40 32 46 -22 c25 -11 47 -19 50 -16 2 2
-12 10 -31 17 -20 7 -37 17 -37 21 -10 61 -39 93 -39 42 0 -20 4 -25 16 -20 8
3 12 2 9 -4 -3 -6 -13 -10 -21 -10 -8 0 -14 -4 -14 -9 0 -15 -71 -54 -80 -45
-13 15 -49 104 -42 104 4 0 16 15 26 34 14 27 16 38 7 55 -16 29 -25 26 -17
-5 5 -17 0 -34 -14 -54 -19 -27 -20 -31 -5 -67 l15 -38 -24 29 c-14 17 -23 33
-20 37 2 4 0 10 -6 14 -17 11 -11 25 13 26 l22 2 -22 4 c-13 2 -23 9 -23 14 0
5 -11 8 -24 7 -15 -1 -22 -7 -19 -15 3 -7 0 -13 -5 -13 -16 0 -24 18 -12 25
16 10 12 51 -7 66 -16 13 -17 12 -4 -3 18 -24 9 -23 -12 0 -16 18 -13 19 103
21 l120 2 2 -108 2 -108 3 103 4 103 74 -111 c83 -124 88 -149 22 -120 -39 18
-43 18 -70 2 -16 -9 -44 -36 -61 -59 -17 -22 -45 -48 -62 -56 -25 -12 -32 -24
-42 -69 -11 -49 -14 -118 -4 -118 7 0 28 26 35 42 6 17 66 48 93 48 8 0 11 -6
7 -16 -3 -8 -11 -13 -18 -10 -7 2 -22 -2 -33 -10 -28 -19 -93 -128 -88 -145 3
-8 7 -50 10 -94 3 -60 0 -87 -12 -110 -8 -16 -19 -43 -23 -60 -4 -16 -11 -40
-14 -52 -6 -19 -4 -23 15 -23 22 0 22 0 2 -17 -18 -16 -20 -34 -25 -174 -5
-124 -3 -161 9 -183 8 -16 14 -29 14 -31 0 -9 -60 5 -83 20 -25 16 -29 16 -46
1 -19 -18 -61 -22 -61 -6 0 6 11 10 25 10 40 0 66 57 80 181 l7 55 -59 36
c-60 38 -90 72 -73 83 6 3 15 -5 22 -19 10 -24 28 -35 28 -18 0 13 64 6 68 -8
4 -10 -5 -11 -34 -7 l-39 6 35 -14 c50 -20 50 -20 50 35 0 28 7 67 15 88 11
25 13 43 7 57 -5 11 -17 47 -27 80 -22 76 -33 89 -71 92 l-31 3 7 -45 c7 -48
4 -51 -49 -36 -20 5 -24 13 -25 48 l-1 42 63 -4 c63 -4 74 2 47 25 -17 14 -20
46 -5 55 6 3 10 -3 10 -13 0 -32 43 -99 60 -95 12 4 12 2 2 -5 -11 -7 -9 -18
9 -55 43 -89 52 -58 45 164 -3 109 -10 176 -17 185 -10 12 -9 13 5 8 9 -4 16
-3 15 2 -1 5 1 26 6 47 7 37 5 41 -46 95 -52 53 -52 54 -10 19 50 -42 72 -37
47 11 -9 17 -16 36 -16 43 0 24 -48 75 -93 97 -25 13 -60 40 -77 62 -17 21
-41 41 -53 43 -12 2 4 5 36 6 53 1 58 -1 52 -18z m210 -161 c12 -14 28 -35 34
-48 7 -12 16 -20 21 -17 20 12 -5 -37 -28 -55 l-25 -20 -25 42 c-27 47 -39
120 -27 165 l8 28 9 -35 c5 -19 20 -46 33 -60z m340 -186 c9 -15 12 -23 6 -20
-11 7 -35 46 -28 46 3 0 12 -12 22 -26z m-210 -40 c14 -9 22 -21 19 -26 -4 -6
2 -8 17 -3 19 5 21 4 9 -4 -23 -16 -40 -13 -40 7 0 10 -3 13 -8 6 -4 -6 -16
-13 -27 -16 -11 -3 -28 -9 -37 -13 -14 -6 -18 -2 -19 16 -1 21 -2 21 -6 4 -2
-11 -12 -36 -21 -55 -13 -29 -17 -31 -20 -15 -2 10 0 21 5 22 5 2 8 16 5 32
-3 25 1 30 35 44 49 20 58 20 88 1z m315 -261 c0 -24 -2 -43 -5 -43 -2 0 -41
28 -85 62 -73 56 -80 64 -64 75 10 7 15 16 11 19 -7 7 -56 -27 -57 -40 0 -4 7
-6 15 -3 8 4 17 2 20 -3 4 -6 41 -37 84 -69 52 -40 80 -68 83 -85 4 -17 1 -23
-9 -19 -7 3 -13 14 -13 25 0 18 -2 19 -16 7 -15 -12 -14 -15 7 -29 13 -8 32
-23 41 -32 10 -10 21 -19 25 -20 4 -2 8 -9 9 -15 3 -18 -33 2 -49 27 -6 11
-17 20 -23 20 -7 0 -51 21 -98 46 -48 25 -89 44 -91 42 -2 -2 30 -22 71 -43
42 -22 78 -43 80 -47 11 -17 -37 -7 -56 12 -12 12 -33 20 -55 20 -24 0 -35 5
-35 15 0 8 -14 22 -31 30 -19 11 -29 22 -25 31 3 8 1 14 -4 14 -6 0 -10 -7
-10 -15 0 -20 -13 -19 -34 4 -16 17 -15 18 26 17 26 -1 43 -6 43 -13 0 -6 4
-15 9 -20 6 -5 6 -2 1 6 -6 11 -4 13 8 8 28 -11 19 8 -14 27 -17 10 -39 16
-49 13 -23 -6 -28 13 -21 78 6 48 7 49 21 28 17 -27 30 -30 30 -6 0 14 2 15
18 1 9 -8 24 -18 32 -22 8 -4 0 6 -19 23 -19 17 -38 28 -41 26 -4 -3 -13 2
-20 10 -15 18 -31 20 -29 3 5 -39 -2 -98 -11 -93 -12 8 -13 3 -1 -28 7 -19 6
-27 -4 -31 -22 -8 -65 32 -66 62 -2 24 -2 24 -6 4 -2 -12 -8 -20 -13 -17 -9 6
-3 32 12 50 5 6 17 22 29 38 11 15 29 27 40 27 11 0 22 7 25 15 9 23 32 18 37
-7 4 -20 4 -19 6 5 0 15 5 27 9 27 13 0 77 -50 77 -60 0 -4 3 -12 8 -16 4 -4
7 5 7 19 0 15 -3 27 -7 27 -5 0 -24 10 -43 21 -32 20 -33 23 -15 29 16 6 41
-13 127 -94 103 -97 107 -103 108 -143z m-817 119 l2 -82 -32 0 -33 0 0 84 0
83 31 -1 30 -1 2 -83z m52 66 c16 -7 25 -19 25 -33 0 -16 11 -27 39 -40 22 -9
44 -14 50 -10 8 4 11 -10 9 -49 -3 -65 -5 -65 -98 -39 l-60 16 0 84 c0 45 2
83 5 83 2 0 16 -5 30 -12z m167 -53 c-16 -32 -20 -35 -32 -21 -11 14 -11 16 2
11 9 -4 19 6 28 31 8 19 16 31 18 26 2 -6 -5 -27 -16 -47z m-300 -30 l3 -65
-97 0 -98 0 0 65 0 65 94 0 94 0 4 -65z m334 -3 c6 -4 13 -20 16 -37 3 -16 9
-38 13 -47 6 -16 3 -17 -26 -12 -34 6 -34 6 -11 -11 12 -9 30 -17 40 -18 20
-1 24 -38 5 -44 -6 -2 -9 -14 -6 -26 4 -21 4 -21 -8 -3 -10 16 -9 21 5 32 16
11 14 13 -11 18 -28 7 -46 31 -63 89 -14 44 14 80 46 59z m53 -59 c0 -36 -3
-43 -9 -28 -12 28 -12 75 0 75 6 0 10 -21 9 -47z m124 -17 l28 -20 -33 -18
c-46 -24 -48 -23 -48 28 0 48 0 48 53 10z m-593 -19 l95 -3 -97 -2 c-54 -1
-98 -6 -98 -11 0 -5 4 -11 10 -13 5 -1 12 -19 16 -38 4 -25 3 -31 -4 -20 -6 8
-8 18 -6 22 3 4 0 8 -6 8 -6 0 -8 -10 -3 -27 4 -16 8 -104 10 -197 3 -131 1
-171 -9 -177 -14 -9 2 -10 122 -11 59 0 61 -1 25 -8 -27 -5 -10 -6 50 -3 92 4
246 21 278 29 14 5 17 -2 17 -40 0 -69 -19 -146 -38 -153 -10 -4 -30 -19 -46
-34 -27 -26 -28 -29 -10 -35 10 -4 22 -12 25 -17 9 -12 89 -27 89 -16 0 5 -15
9 -33 9 -45 0 -51 9 -22 32 25 19 25 19 51 -1 15 -12 23 -21 19 -21 -4 0 -2
-7 5 -16 19 -21 66 -15 62 9 -2 12 4 21 18 24 23 6 22 24 -1 31 -11 3 -11 2 1
-7 13 -9 13 -11 -1 -11 -20 0 -38 55 -32 97 5 34 -20 26 298 100 61 14 154 36
209 50 92 22 139 25 85 4 l-24 -9 27 -7 c15 -4 35 -2 45 4 17 10 17 10 1 11
-10 0 -18 1 -18 3 0 1 4 17 9 35 9 30 8 32 -15 32 -21 0 -24 4 -24 37 0 26 3
34 11 26 5 -5 11 -19 12 -30 1 -18 27 -29 27 -11 0 4 -4 8 -10 8 -5 0 -10 5
-10 11 0 5 5 7 10 4 6 -4 10 7 10 24 0 30 -13 41 -25 21 -3 -5 -1 -10 4 -10 6
0 11 -5 11 -12 0 -28 -36 24 -37 54 0 18 1 23 4 11 3 -16 10 -20 28 -17 25 4
29 -3 39 -58 3 -15 0 -30 -5 -34 -6 -3 -10 -27 -9 -53 2 -67 2 -67 -26 -79
-16 -8 -22 -17 -18 -25 5 -7 1 -7 -10 2 -15 13 -19 13 -26 1 -5 -9 -5 -17 1
-21 7 -4 4 -9 -6 -12 -9 -4 -13 -3 -10 2 3 5 1 12 -5 16 -5 3 -10 1 -10 -5 0
-6 -4 -9 -10 -5 -5 3 -234 -107 -510 -245 -471 -236 -503 -251 -550 -249 -27
2 -53 0 -57 -4 -3 -4 22 -7 56 -7 61 0 71 4 399 169 185 93 372 187 416 210
43 23 86 39 95 37 9 -3 23 -1 31 5 12 8 9 9 -10 4 -24 -6 -24 -5 -6 9 22 18
40 21 31 6 -3 -5 -2 -10 4 -10 16 0 22 18 9 24 -7 3 -2 3 12 0 20 -4 22 -3 10
6 -12 9 -10 10 10 5 20 -5 22 -4 10 5 -12 9 -10 10 10 5 17 -4 21 -3 12 3 -11
7 -11 10 3 15 11 5 14 3 9 -5 -5 -8 -2 -9 9 -5 36 13 14 -3 -51 -39 -37 -21
-264 -154 -506 -296 l-438 -258 -64 0 -64 0 2 503 c1 276 5 446 8 377 l6 -125
2 128 c1 79 -2 127 -8 127 -6 0 -10 34 -10 83 0 45 4 77 8 70 5 -8 43 -13 102
-16z m18 16 c-21 -2 -55 -2 -75 0 -21 2 -4 4 37 4 41 0 58 -2 38 -4z m100 0
c-10 -2 -28 -2 -40 0 -13 2 -5 4 17 4 22 1 32 -1 23 -4z m49 1 c-3 -3 -12 -4
-19 -1 -8 3 -5 6 6 6 11 1 17 -2 13 -5z m40 -10 c-3 -3 -12 -4 -19 -1 -8 3 -5
6 6 6 11 1 17 -2 13 -5z m-43 -77 c-2 -95 -1 -93 -24 -72 -11 10 -20 13 -20 7
0 -7 5 -12 10 -12 19 0 10 -16 -10 -17 -19 -2 -20 4 -20 83 l0 84 33 0 32 0
-1 -73z m91 63 c13 -6 15 -9 5 -9 -8 0 -22 4 -30 9 -18 12 -2 12 25 0z m979
-29 c3 -4 -2 -18 -9 -32 -36 -61 -46 -92 -36 -102 11 -11 15 4 14 41 -1 17 18
10 31 -12 9 -13 7 -19 -7 -27 -9 -6 -15 -14 -12 -19 3 -5 1 -11 -4 -15 -6 -3
-15 4 -21 15 -15 28 -40 9 -40 -31 0 -36 -16 -38 -23 -4 -3 18 1 29 14 36 11
5 19 20 19 32 0 13 7 32 15 43 15 20 20 64 8 64 -5 0 -9 11 -9 24 -2 22 -1 23
27 9 16 -8 31 -18 33 -22z m-1020 23 c13 -5 16 -24 16 -105 0 -65 4 -99 11
-99 7 0 10 17 7 45 -2 36 0 44 12 41 8 -2 26 -7 41 -10 22 -5 25 -10 21 -40
-2 -18 1 -37 7 -40 7 -5 11 7 11 34 0 39 1 40 28 34 41 -10 42 -12 42 -55 0
-36 -2 -39 -22 -35 -13 3 -54 8 -91 11 -64 6 -69 9 -79 36 -5 16 -14 29 -19
29 -15 0 -10 -21 13 -58 18 -30 21 -49 21 -136 l-1 -101 -26 -3 -26 -3 0 95 0
96 26 0 c15 0 23 4 19 10 -4 6 -15 8 -25 5 -18 -6 -19 2 -19 124 -1 72 3 131
8 131 5 0 16 -3 25 -6z m-151 -14 c13 0 17 -8 17 -35 0 -44 -20 -46 -39 -4 -9
22 -16 28 -24 20 -8 -8 -5 -15 9 -26 10 -8 14 -15 8 -15 -13 0 -54 34 -54 45
0 4 7 5 15 2 8 -4 17 -2 20 3 7 11 -38 14 -48 4 -3 -4 0 -19 9 -35 14 -28 14
-29 -11 -29 -22 0 -25 4 -25 34 0 39 14 47 70 40 19 -2 43 -4 53 -4z m542 -4
c-11 -7 -31 -16 -45 -20 -19 -5 -16 -2 10 13 40 23 65 28 35 7z m49 8 c9 -3
16 -13 16 -20 0 -8 11 -20 25 -26 19 -9 25 -19 25 -44 0 -32 -1 -33 -27 -23
-14 5 -33 7 -40 5 -8 -3 -12 -2 -9 3 7 11 -41 24 -54 16 -6 -4 -10 -1 -10 5 0
7 -7 9 -16 6 -8 -3 -13 -2 -9 3 3 5 -1 11 -7 13 -8 3 -4 9 10 17 18 10 27 10
38 0 10 -8 14 -8 14 0 0 6 -6 11 -12 11 -7 0 -2 9 12 20 29 23 25 21 44 14z
m515 -67 c-11 -19 -11 -19 -30 -1 -12 12 -16 27 -13 41 l6 21 24 -20 c19 -17
21 -25 13 -41z m-454 25 c-3 -3 -11 0 -18 7 -9 10 -8 11 6 5 10 -3 15 -9 12
-12z m-338 -4 c6 -7 15 -28 21 -47 11 -32 11 -33 -11 -27 -12 3 -28 6 -34 6
-8 0 -13 15 -13 40 0 41 17 54 37 28z m384 -44 c3 -21 7 -29 8 -16 1 26 2 26
36 10 17 -7 25 -19 25 -36 0 -21 -3 -23 -25 -18 -68 17 -75 24 -75 67 0 53 23
48 31 -7z m-294 -21 c-3 -10 -5 -2 -5 17 0 19 2 27 5 18 2 -10 2 -26 0 -35z
m-377 3 c0 -14 -4 -28 -10 -31 -5 -3 -10 3 -10 14 0 21 0 22 -80 25 -35 1 -35
1 -38 -47 -2 -35 0 -47 9 -42 7 5 9 21 6 41 l-6 34 50 0 c37 0 49 -4 49 -15 0
-8 -6 -15 -12 -16 -10 0 -10 -2 0 -6 7 -3 12 -23 12 -49 l0 -44 -42 -2 c-24 0
-51 -1 -60 0 -14 1 -18 -6 -18 -28 0 -16 5 -32 10 -35 6 -3 10 -31 10 -61 l0
-55 57 3 56 3 -2 133 c-1 72 2 132 7 132 4 0 9 -63 11 -140 l2 -140 -74 0 -74
0 -6 93 c-6 86 -5 93 15 108 12 10 28 15 35 12 7 -3 13 0 13 6 0 15 -33 14
-48 -1 -9 -9 -12 4 -12 60 l0 72 75 0 c73 0 75 -1 75 -24z m488 -23 c3 -28 1
-31 -18 -26 -13 4 -19 11 -16 20 3 8 6 21 6 30 0 28 25 6 28 -24z m52 -46 c0
-40 -4 -56 -15 -61 -11 -4 -15 3 -16 27 -1 18 -2 48 -4 67 -4 44 2 54 21 36 9
-9 14 -35 14 -69z m230 68 c0 -15 13 -19 63 -15 34 2 116 -56 117 -84 0 -10
-5 -16 -12 -13 -7 2 -52 17 -99 32 -85 27 -86 27 -87 61 -1 19 3 34 8 34 6 0
10 -7 10 -15z m-182 -47 c3 -22 0 -26 -17 -21 -14 4 -21 14 -21 30 0 35 34 27
38 -9z m40 -6 c2 -15 -2 -22 -12 -22 -11 0 -16 9 -16 26 0 31 23 28 28 -4z
m-548 -37 c0 -38 -3 -44 -17 -39 -17 5 -17 5 -1 -8 13 -11 17 -33 17 -106 l0
-92 -34 0 -35 0 0 144 0 145 28 3 c39 5 42 2 42 -47z m590 -56 l0 -89 43 0 42
0 -3 80 c-3 68 -1 80 13 80 13 0 15 -14 14 -93 l-1 -94 -69 -9 -69 -10 0 101
c0 65 4 105 12 113 9 9 9 12 0 12 -7 0 -12 5 -12 11 0 8 5 8 15 -1 11 -9 15
-35 15 -101z m40 70 c0 -10 -7 -19 -15 -19 -9 0 -15 9 -15 25 0 18 4 23 15 19
8 -4 15 -15 15 -25z m-236 15 c10 -4 16 -18 16 -39 0 -28 -3 -32 -23 -28 -18
4 -23 11 -24 39 -1 35 3 39 31 28z m266 -24 c0 -11 -4 -20 -10 -20 -5 0 -10 9
-10 20 0 11 5 20 10 20 6 0 10 -9 10 -20z m-150 -11 c0 -4 -9 -13 -20 -19 -17
-9 -20 -8 -20 14 0 19 4 23 20 19 11 -3 20 -9 20 -14z m-240 4 c-1 -5 -7 -19
-15 -33 -8 -14 -14 -40 -15 -57 0 -31 -2 -33 -35 -33 l-35 0 0 48 0 48 40 -4
c35 -4 40 -2 40 17 0 12 5 21 10 21 6 0 10 -3 10 -7z m77 -25 c-3 -7 -5 -2 -5
12 0 14 2 19 5 13 2 -7 2 -19 0 -25z m389 19 c9 3 14 -1 14 -12 0 -12 -5 -15
-16 -11 -9 3 -18 6 -20 6 -2 0 -4 8 -3 18 0 9 3 12 5 5 3 -7 12 -9 20 -6z
m164 -7 c0 -11 -4 -20 -10 -20 -5 0 -10 9 -10 20 0 11 5 20 10 20 6 0 10 -9
10 -20z m-350 -15 c0 -16 -6 -25 -15 -25 -18 0 -20 21 -3 38 17 17 18 16 18
-13z m248 -113 c21 -3 22 0 22 57 l0 61 34 -14 c19 -8 37 -12 40 -8 3 3 6 -20
6 -51 0 -57 0 -57 -30 -57 -16 0 -30 5 -30 11 0 7 10 9 25 5 23 -6 25 -3 25
24 0 16 -3 29 -7 29 -22 -4 -43 2 -43 12 0 6 9 9 20 6 11 -3 20 -1 20 4 0 5
-11 9 -25 9 -24 0 -25 -3 -25 -54 l0 -54 -35 -4 -35 -4 2 86 2 85 5 -70 c5
-63 8 -70 29 -73z m-667 118 c28 0 29 -1 28 -50 -2 -54 -11 -56 -35 -7 -9 18
-26 40 -38 50 -18 16 -18 18 -3 13 10 -3 32 -6 48 -6z m499 -15 c0 -16 -6 -25
-15 -25 -9 0 -15 9 -15 25 0 16 6 25 15 25 9 0 15 -9 15 -25z m157 3 c-3 -8
-6 -5 -6 6 -1 11 2 17 5 13 3 -3 4 -12 1 -19z m20 0 c-3 -8 -6 -5 -6 6 -1 11
2 17 5 13 3 -3 4 -12 1 -19z m-147 -8 c0 -11 -4 -20 -10 -20 -5 0 -10 9 -10
20 0 11 5 20 10 20 6 0 10 -9 10 -20z m90 -16 c0 -8 -4 -14 -10 -14 -5 0 -10
6 -10 13 0 8 -4 7 -10 -3 -8 -12 -10 -11 -10 7 0 16 5 20 20 16 11 -3 20 -12
20 -19z m-644 -9 c13 -20 14 -28 4 -40 -17 -20 -27 -19 -33 5 -3 11 -1 17 4
14 6 -3 7 5 3 20 -8 33 1 33 22 1z m244 10 c0 -8 -7 -15 -15 -15 -9 0 -12 6
-9 15 4 8 10 15 15 15 5 0 9 -7 9 -15z m153 8 c-7 -2 -19 -2 -25 0 -7 3 -2 5
12 5 14 0 19 -2 13 -5z m-99 -12 c-9 -10 -44 -11 -44 -1 0 5 11 9 25 8 13 -1
22 -4 19 -7z m56 -66 l0 -75 -71 0 -70 0 3 32 3 33 64 -1 c35 -1 59 1 53 5 -5
3 -11 20 -12 36 -3 42 -2 45 15 45 12 0 15 -15 15 -75z m350 58 c0 -14 -2 -15
-9 -4 -7 11 -9 11 -14 0 -4 -10 -6 -9 -6 4 -1 9 6 17 14 17 8 0 15 -8 15 -17z
m-920 -63 l0 -70 -45 0 -45 0 0 48 c0 26 -3 57 -6 70 -6 21 -3 22 45 22 l51 0
0 -70z m620 40 c0 -23 -4 -30 -20 -30 -16 0 -20 7 -20 30 0 23 4 30 20 30 16
0 20 -7 20 -30z m40 0 c0 -20 -5 -30 -15 -30 -10 0 -15 10 -15 30 0 20 5 30
15 30 10 0 15 -10 15 -30z m80 -5 c0 -16 -6 -25 -15 -25 -9 0 -15 9 -15 25 0
16 6 25 15 25 9 0 15 -9 15 -25z m30 -6 c0 -10 -4 -19 -10 -19 -5 0 -10 12
-10 26 0 14 4 23 10 19 6 -3 10 -15 10 -26z m-250 1 c0 -15 -7 -20 -25 -20
-32 0 -34 27 -2 33 12 2 23 5 25 6 1 0 2 -8 2 -19z m340 0 c0 -13 -7 -20 -20
-20 -13 0 -20 7 -20 20 0 13 7 20 20 20 13 0 20 -7 20 -20z m37 -12 c-3 -8 -6
-5 -6 6 -1 11 2 17 5 13 3 -3 4 -12 1 -19z m20 0 c-3 -8 -6 -5 -6 6 -1 11 2
17 5 13 3 -3 4 -12 1 -19z m73 1 c0 -5 -9 -9 -20 -9 -11 0 -20 6 -20 14 0 9 7
12 20 9 11 -3 20 -9 20 -14z m-530 1 c0 -5 -4 -10 -10 -10 -5 0 -10 5 -10 10
0 6 5 10 10 10 6 0 10 -4 10 -10z m200 -51 c0 -10 -7 -19 -15 -19 -9 0 -15 9
-15 25 0 18 4 23 15 19 8 -4 15 -15 15 -25z m200 13 c0 -8 -6 -12 -14 -9 -8 3
-17 1 -20 -6 -2 -7 -5 -3 -5 8 -1 14 5 21 19 21 11 0 20 -7 20 -14z m-615 -16
c15 -14 24 -30 20 -35 -3 -6 -2 -11 4 -11 5 0 11 5 13 10 2 6 11 4 23 -5 19
-15 16 -16 -42 -12 -42 3 -63 1 -66 -6 -2 -7 -6 9 -8 36 -3 39 -1 47 13 47 9
0 29 -11 43 -24z m375 4 c0 -13 -7 -20 -20 -20 -13 0 -20 7 -20 20 0 13 7 20
20 20 13 0 20 -7 20 -20z m430 -15 c0 -8 -8 -15 -17 -15 -9 0 -44 -7 -77 -15
-118 -28 -312 -74 -401 -95 -49 -12 -98 -23 -107 -26 -16 -5 -18 2 -18 50 l0
55 43 5 c49 7 355 35 466 43 42 3 78 7 80 9 11 10 31 3 31 -11z m83 8 c-7 -2
-21 -2 -30 0 -10 3 -4 5 12 5 17 0 24 -2 18 -5z m-833 -273 c0 -5 -5 -10 -11
-10 -5 0 -7 5 -4 10 3 6 8 10 11 10 2 0 4 -4 4 -10z m130 -71 c0 -5 -9 -9 -20
-9 -19 0 -26 11 -14 23 8 8 34 -3 34 -14z"/>
<path d="M612 1805 c0 -16 2 -22 5 -12 2 9 2 23 0 30 -3 6 -5 -1 -5 -18z"/>
<path d="M675 1770 c-19 -8 -19 -9 3 -9 12 -1 22 4 22 9 0 6 -1 10 -2 9 -2 0
-12 -4 -23 -9z"/>
<path d="M615 1550 c-3 -5 -1 -10 4 -10 6 0 11 5 11 10 0 6 -2 10 -4 10 -3 0
-8 -4 -11 -10z"/>
<path d="M701 1584 c0 -11 3 -14 6 -6 3 7 2 16 -1 19 -3 4 -6 -2 -5 -13z"/>
<path d="M852 1278 c2 -6 15 -13 28 -15 24 -3 24 -3 5 11 -24 18 -38 20 -33 4z"/>
<path d="M832 1250 c0 -19 2 -27 5 -17 2 9 2 25 0 35 -3 9 -5 1 -5 -18z"/>
<path d="M894 1237 c10 -7 32 -23 47 -35 16 -13 29 -19 29 -14 0 11 -71 62
-86 61 -5 0 -1 -6 10 -12z"/>
<path d="M1055 1120 c3 -5 8 -10 11 -10 2 0 4 5 4 10 0 6 -5 10 -11 10 -5 0
-7 -4 -4 -10z"/>
<path d="M373 1255 c0 -27 2 -38 4 -22 2 15 2 37 0 50 -2 12 -4 0 -4 -28z"/>
<path d="M73 693 c15 -2 37 -2 50 0 12 2 0 4 -28 4 -27 0 -38 -2 -22 -4z"/>
<path d="M162 663 c65 -2 171 -2 235 0 65 1 12 3 -117 3 -129 0 -182 -2 -118
-3z"/>
<path d="M422 589 c-11 -4 -49 -15 -86 -23 -36 -9 -96 -23 -132 -32 -36 -8
-72 -13 -80 -10 -8 3 -13 2 -9 -3 3 -5 -13 -12 -35 -16 -22 -4 -43 -11 -46
-17 -4 -6 1 -8 12 -5 11 4 62 16 114 28 191 43 354 88 318 86 -20 0 -45 -4
-56 -8z"/>
<path d="M835 477 c-735 -406 -678 -377 -747 -378 l-63 -2 60 -7 60 -6 420
230 c231 126 424 233 430 238 27 24 -25 -1 -160 -75z"/>
<path d="M630 530 c0 -5 5 -10 10 -10 6 0 10 5 10 10 0 6 -4 10 -10 10 -5 0
-10 -4 -10 -10z"/>
<path d="M53 523 c9 -2 25 -2 35 0 9 3 1 5 -18 5 -19 0 -27 -2 -17 -5z"/>
<path d="M420 520 c0 -5 4 -10 9 -10 6 0 13 5 16 10 3 6 -1 10 -9 10 -9 0 -16
-4 -16 -10z"/>
<path d="M180 466 c0 -2 38 -16 83 -31 54 -17 84 -31 84 -41 0 -8 -6 -14 -13
-14 -7 0 -14 -5 -16 -11 -2 -6 -15 1 -29 15 -27 27 -115 69 -133 63 -6 -2 11
-12 37 -22 42 -16 45 -19 30 -31 -10 -7 -15 -16 -10 -20 4 -4 14 1 23 12 11
14 17 15 21 6 8 -19 66 -47 71 -33 6 17 22 13 22 -5 0 -8 5 -12 11 -9 6 4 8
13 5 21 -4 10 0 11 18 5 17 -7 25 -5 35 11 12 19 11 20 -23 16 -25 -3 -36 0
-36 9 0 7 -36 23 -83 38 -84 25 -97 28 -97 21z"/>
<path d="M400 460 c0 -5 12 -10 28 -9 24 0 25 1 7 9 -27 12 -35 12 -35 0z"/>
<path d="M126 415 c-4 -11 1 -15 19 -15 28 0 33 15 9 24 -21 8 -21 8 -28 -9z"/>
<path d="M180 400 c0 -5 4 -10 9 -10 6 0 13 5 16 10 3 6 -1 10 -9 10 -9 0 -16
-4 -16 -10z"/>
<path d="M328 823 c7 -3 16 -2 19 1 4 3 -2 6 -13 5 -11 0 -14 -3 -6 -6z"/>
<path d="M990 1021 c0 -5 5 -13 10 -16 6 -3 10 -2 10 4 0 5 -4 13 -10 16 -5 3
-10 2 -10 -4z"/>
<path d="M1057 1019 c7 -7 15 -10 18 -7 3 3 -2 9 -12 12 -14 6 -15 5 -6 -5z"/>
<path d="M1130 970 c0 -6 7 -10 15 -10 8 0 15 2 15 4 0 2 -7 6 -15 10 -8 3
-15 1 -15 -4z"/>
<path d="M258 823 c7 -3 16 -2 19 1 4 3 -2 6 -13 5 -11 0 -14 -3 -6 -6z"/>
<path d="M395 869 c-4 -6 -5 -12 -2 -15 2 -3 7 2 10 11 7 17 1 20 -8 4z"/>
<path d="M128 823 c12 -2 30 -2 40 0 9 3 -1 5 -23 4 -22 0 -30 -2 -17 -4z"/>
<path d="M1020 860 c0 -5 5 -10 11 -10 5 0 7 5 4 10 -3 6 -8 10 -11 10 -2 0
-4 -4 -4 -10z"/>
<path d="M1063 753 c9 -2 25 -2 35 0 9 3 1 5 -18 5 -19 0 -27 -2 -17 -5z"/>
<path d="M683 723 c20 -2 54 -2 75 0 20 2 3 4 -38 4 -41 0 -58 -2 -37 -4z"/>
<path d="M938 723 c7 -3 16 -2 19 1 4 3 -2 6 -13 5 -11 0 -14 -3 -6 -6z"/>
<path d="M663 663 c15 -2 37 -2 50 0 12 2 0 4 -28 4 -27 0 -38 -2 -22 -4z"/>
<path d="M932 2200 c3 -9 47 -112 96 -231 l91 -214 2 -132 c0 -72 -2 -136 -6
-142 -9 -15 18 -14 33 1 17 17 15 29 -3 22 -13 -5 -15 7 -15 76 l0 83 100 -6
c58 -4 102 -2 105 3 9 14 -14 50 -31 50 -12 0 -10 -5 7 -19 13 -11 22 -21 19
-24 -3 -2 -49 -2 -102 1 l-98 4 0 47 c-1 25 -7 57 -15 71 -19 33 -19 50 1 50
20 0 43 -28 44 -52 0 -11 8 -18 19 -18 11 0 23 -4 26 -10 3 -5 11 -10 16 -10
6 0 7 5 4 10 -3 6 -1 10 5 10 21 0 50 -21 50 -35 0 -8 5 -15 10 -15 17 0 -7
38 -36 57 -21 14 -27 14 -34 3 -7 -11 -12 -11 -23 -2 -7 7 -17 9 -20 5 -4 -3
-7 1 -7 10 0 9 -11 28 -24 44 -19 22 -26 25 -38 15 -12 -10 -26 16 -87 166
-40 97 -78 182 -84 187 -7 7 -8 5 -5 -5z"/>
<path d="M1893 2187 c-10 -13 -45 -54 -78 -90 -64 -72 -75 -98 -95 -226 -12
-73 -12 -82 3 -99 15 -16 17 -45 17 -211 0 -151 -3 -199 -15 -219 -8 -15 -33
-67 -55 -116 l-40 -89 0 -152 0 -153 -51 -4 c-28 -1 -57 1 -65 5 -14 8 -34 2
-23 -6 2 -2 81 -46 174 -99 94 -53 258 -146 365 -208 107 -62 213 -122 235
-135 22 -12 103 -58 180 -102 393 -226 495 -283 507 -283 7 0 -46 33 -117 73
-98 56 -131 79 -133 96 -3 22 -3 22 50 -7 156 -86 210 -113 215 -109 3 4 -94
59 -227 128 -8 4 16 9 55 11 49 2 85 -2 120 -14 63 -23 69 -22 25 2 -30 17
-31 19 -9 14 16 -3 30 -1 34 6 6 9 -2 11 -31 7 -40 -5 -110 23 -417 167 -55
25 -100 46 -102 46 -2 0 -56 25 -120 55 -65 30 -122 55 -128 55 -6 0 -8 2 -6
5 3 2 185 8 405 11 219 4 401 9 404 11 3 3 -188 4 -425 2 l-430 -3 -118 54
-119 55 294 5 293 6 -311 1 c-273 2 -316 4 -348 19 -20 10 -31 21 -26 24 6 4
-2 7 -17 7 -24 0 -66 17 -198 78 l-30 14 46 0 c25 1 49 -3 55 -8 5 -5 37 -13
72 -16 35 -4 73 -8 84 -10 12 -3 43 -7 70 -10 27 -3 81 -10 121 -16 39 -6 89
-10 111 -9 21 0 54 -6 73 -15 23 -11 68 -18 130 -20 53 -1 98 -7 102 -12 7
-11 154 -35 233 -38 32 -1 61 -5 65 -8 3 -4 16 -7 27 -6 19 1 18 2 -4 10 -17
6 -4 7 40 3 104 -8 140 -16 140 -29 0 -7 18 -15 40 -19 l40 -6 0 -305 c0 -197
4 -305 10 -305 7 0 10 375 10 1105 0 730 -3 1105 -10 1105 -7 0 -10 -272 -10
-796 0 -722 -1 -796 -16 -790 -9 3 -22 6 -29 6 -10 0 -14 24 -17 95 l-3 95 28
0 c15 0 27 5 27 11 0 6 -14 9 -32 7 l-33 -3 -3 -87 -3 -87 -32 5 c-18 3 -59 8
-92 12 l-60 7 -3 77 -3 78 -139 -3 c-115 -2 -141 1 -145 13 -4 8 -6 223 -6
477 -1 255 -4 463 -9 463 -4 0 -37 -33 -74 -74 l-66 -74 0 -396 0 -396 -50 0
-50 0 0 340 c0 187 -3 340 -7 340 -5 0 -27 -22 -50 -49 l-43 -50 0 -290 c0
-252 -2 -291 -15 -291 -13 0 -15 37 -15 270 0 149 -4 270 -8 270 -5 0 -20 -12
-34 -27 -25 -26 -26 -33 -23 -113 5 -136 3 -124 21 -106 8 9 21 16 27 16 7 0
0 -12 -15 -25 -28 -24 -28 -25 -28 -155 0 -107 -3 -130 -15 -130 -12 0 -15 32
-17 194 -2 107 0 210 3 230 3 20 4 36 3 36 -2 0 -14 -12 -28 -27 -23 -25 -25
-32 -20 -92 6 -72 14 -94 14 -41 0 55 9 29 15 -43 4 -47 2 -67 -6 -67 -6 0 -9
9 -6 20 3 11 1 20 -4 20 -10 0 -13 -50 -10 -150 4 -97 11 -86 11 16 1 58 4 84
10 74 7 -14 13 -121 11 -212 -1 -41 -21 -34 -21 7 0 26 -3 33 -15 29 -13 -5
-15 9 -15 90 0 81 -2 94 -15 90 -12 -5 -15 -25 -15 -94 0 -78 -2 -88 -19 -93
-11 -2 -24 0 -30 6 -8 8 -11 7 -11 -3 -1 -11 -5 -10 -15 4 -15 20 -15 20 -15
0 0 -16 -2 -17 -10 -4 -5 8 -10 10 -10 4 0 -14 25 -36 32 -29 3 3 22 7 42 8
29 3 36 0 36 -15 0 -21 -16 -24 -23 -5 -4 9 -6 9 -6 -1 -1 -8 -9 -10 -27 -6
-15 4 -36 7 -47 8 -15 1 -21 9 -22 31 -2 17 -4 52 -6 78 -1 27 2 52 8 55 11 7
9 40 -3 50 -4 4 -4 -1 -1 -10 4 -10 2 -18 -2 -18 -5 0 -11 6 -13 13 -7 17 2
38 13 31 5 -3 9 4 9 15 0 23 27 54 41 45 5 -3 7 -15 5 -27 -1 -12 -1 -16 1 -8
4 12 6 12 14 0 7 -11 9 -10 9 5 0 10 -8 25 -17 32 -10 7 -14 16 -10 20 4 5 12
2 16 -5 6 -9 9 -5 9 13 0 14 -2 26 -4 26 -6 0 -129 -131 -132 -141 -2 -5 -8
-9 -13 -9 -15 0 -10 86 6 100 17 14 20 30 6 30 -5 0 -12 -8 -14 -17 -3 -12 -5
-9 -6 8 0 14 6 34 15 45 15 19 15 18 11 -3 -7 -31 7 -29 21 2 14 31 15 46 2
25 -7 -12 -12 -12 -22 -2 -9 9 -9 12 1 12 7 0 9 4 6 10 -3 5 -1 10 5 10 7 0
10 6 8 13 -3 6 3 30 12 52 l18 40 0 -60 c0 -33 0 -75 1 -93 l1 -34 23 29 c13
15 68 91 124 168 l100 141 -4 52 -5 52 31 0 c17 0 31 5 31 11 0 7 -28 9 -80 7
l-80 -3 0 -89 0 -88 25 4 c14 3 25 2 25 -3 0 -14 -14 -17 -38 -8 -22 8 -23 13
-20 101 l3 93 93 3 c52 2 92 7 92 13 0 6 -37 9 -97 7 -111 -3 -103 5 -103
-118 1 -110 1 -110 27 -110 25 0 31 -14 11 -26 -6 -4 -27 -8 -45 -9 l-33 -1 0
298 0 298 150 0 150 0 0 -138 0 -138 -40 -54 c-22 -30 -46 -58 -53 -62 -6 -4
-8 -8 -4 -8 5 0 -1 -14 -13 -31 -12 -16 -20 -32 -17 -35 2 -2 12 8 22 23 10
15 23 33 29 40 6 6 29 37 50 69 l39 57 -2 113 c-2 87 1 120 14 146 14 28 14
30 0 14 -13 -17 -15 -18 -15 -3 0 9 2 17 4 17 2 0 11 3 20 6 14 5 16 -8 16
-108 0 -85 -4 -119 -15 -134 -22 -29 -17 -43 5 -15 19 22 20 38 18 260 -1 147
-4 204 -7 151 l-6 -85 -188 -5 c-103 -3 -187 -2 -187 1 0 3 8 13 18 22 27 24
286 25 320 1 13 -9 25 -14 27 -12 3 2 -21 22 -51 44 -31 21 -77 56 -104 77
-56 43 -72 46 -97 14z m75 -12 l37 -25 -64 0 -64 0 23 25 c13 14 25 25 27 25
2 0 21 -11 41 -25z m78 -57 c19 -11 34 -22 34 -24 0 -2 -57 -4 -127 -4 l-126
0 22 24 c19 20 32 24 92 24 53 0 79 -5 105 -20z m114 -93 c0 -4 -12 -18 -27
-31 -33 -28 -113 -35 -113 -9 0 10 16 15 58 18 31 2 -28 4 -131 5 -104 1 -186
5 -184 10 6 9 397 16 397 7z m-252 -42 c5 -16 -104 -18 -113 -3 -3 6 -11 10
-17 10 -7 0 -6 -5 2 -15 8 -10 10 -30 6 -60 -4 -25 -9 -45 -11 -45 -26 0 -34
15 -29 54 12 73 17 77 91 74 42 -2 68 -8 71 -15z m102 2 c0 -11 -12 -15 -45
-15 -33 0 -45 4 -45 15 0 11 12 15 45 15 33 0 45 -4 45 -15z m-211 -357 c0
-194 -4 -267 -11 -254 -6 10 -8 36 -5 57 3 24 1 37 -5 33 -5 -3 -8 -26 -7 -50
2 -24 0 -46 -4 -50 -4 -4 -7 23 -7 60 0 42 4 65 10 61 6 -3 10 -2 10 4 0 5 3
18 7 28 6 17 5 17 -13 -1 -19 -20 -19 -19 -22 13 -2 18 6 55 17 82 12 26 21
58 20 71 -1 14 -4 8 -10 -17 -15 -65 -29 -66 -29 -3 0 31 4 60 10 63 6 4 7 -1
3 -12 -4 -14 -3 -15 6 -7 7 6 14 29 15 50 2 22 1 27 -1 12 -2 -16 -10 -28 -17
-28 -10 0 -10 10 -2 45 6 25 14 45 18 45 5 0 8 16 8 35 0 19 2 35 5 35 3 0 5
-123 4 -272z m-38 225 c12 -15 12 -16 -6 -9 -16 6 -18 5 -7 -5 20 -21 15 -49
-9 -49 -18 0 -20 4 -14 28 4 15 8 33 8 40 0 17 12 15 28 -5z m638 -178 c2 -79
0 -88 -21 -105 -13 -11 -18 -19 -12 -20 5 0 15 5 22 12 9 9 12 -5 12 -65 0
-66 -3 -78 -20 -87 -19 -10 -20 -7 -21 52 -1 35 -1 97 0 138 1 41 -3 82 -9 90
-12 18 -12 16 -10 -82 1 -67 -1 -78 -19 -87 -19 -11 -20 -8 -23 61 l-3 73 50
53 c27 28 50 52 51 52 1 0 2 -38 3 -85z m-101 -249 c2 46 7 65 22 79 20 18 20
17 20 -54 0 -67 -2 -72 -25 -83 -14 -6 -25 -15 -25 -20 0 -10 7 -7 68 34 l42
29 0 -24 c0 -24 -5 -29 -82 -75 l-36 -23 1 178 1 178 6 -140 c3 -77 7 -113 8
-79z m-338 124 c0 -28 -2 -30 -40 -30 -38 0 -40 2 -40 30 0 28 2 30 40 30 38
0 40 -2 40 -30z m-47 -72 c-4 -22 -3 -29 5 -24 7 4 12 18 12 32 0 15 6 24 15
24 18 0 20 -30 3 -53 -7 -9 -25 -19 -40 -23 -27 -6 -28 -5 -28 35 0 34 3 41
20 41 17 0 19 -5 13 -32z m246 -98 c0 -70 -4 -120 -9 -120 -6 0 -10 25 -10 57
0 55 0 56 -20 38 -20 -18 -20 -17 -21 26 -1 37 -2 40 -9 19 l-8 -25 -1 25 c0
16 9 32 24 43 l24 17 -1 -35 c-1 -19 2 -38 6 -42 4 -4 6 15 5 43 -2 45 4 74
16 74 3 0 4 -54 4 -120z m-72 -122 c-2 -24 -4 -7 -4 37 0 44 2 63 4 43 2 -21
2 -57 0 -80z m-221 85 c-4 -4 -27 -6 -51 -4 l-45 3 0 -45 c0 -26 5 -47 12 -49
7 -3 2 -18 -15 -43 l-27 -40 0 93 0 92 67 0 c36 0 63 -3 59 -7z m147 -48 c-1
-33 2 -44 10 -39 8 5 8 3 0 -7 -15 -16 -17 -56 -3 -61 6 -2 2 -8 -7 -14 -17
-10 -18 -5 -17 70 1 94 2 96 12 96 4 0 6 -20 5 -45z m113 20 c-4 -14 -2 -34 4
-45 8 -15 6 -21 -10 -30 -19 -10 -20 -8 -20 38 0 49 5 62 23 62 5 0 6 -11 3
-25z m274 -14 c0 -28 -5 -40 -17 -44 -10 -4 -33 -13 -50 -21 l-33 -15 0 32 c0
28 7 36 48 59 26 15 48 28 50 28 1 0 2 -17 2 -39z m-589 17 c0 -10 2 -10 6 0
2 6 11 12 20 12 8 0 13 -6 11 -12 -5 -15 -68 -24 -68 -10 0 21 29 31 31 10z
m9 -37 c0 -5 -6 -14 -14 -20 -11 -9 -16 -9 -21 0 -4 6 -1 15 6 20 18 11 29 11
29 0z m480 -81 c5 0 12 5 15 10 7 12 76 42 82 36 2 -2 -15 -11 -38 -20 -23 -9
-39 -19 -36 -22 3 -3 19 2 37 11 18 9 33 15 35 13 4 -3 7 -307 6 -449 l-1 -56
-30 5 c-29 4 -30 7 -32 56 l-2 51 -3 -52 c-4 -49 -6 -53 -29 -53 -24 0 -25 2
-22 53 3 48 5 52 31 55 l27 3 0 175 c0 96 -3 174 -8 174 -4 0 -6 -76 -4 -170
l4 -170 -26 0 -26 0 2 218 c1 119 3 198 5 175 2 -24 8 -43 13 -43z m-373 8
c-2 -13 -4 -5 -4 17 -1 22 1 32 4 23 2 -10 2 -28 0 -40z m233 28 c0 -13 -57
-56 -74 -56 -19 0 -1 28 32 47 45 27 42 26 42 9z m0 -59 c0 -17 -10 -28 -35
-40 -44 -21 -45 -21 -45 2 0 11 15 28 33 40 41 26 47 26 47 -2z m-10 -47 c-8
-5 -19 -10 -25 -10 -5 0 -3 5 5 10 8 5 20 10 25 10 6 0 3 -5 -5 -10z m-127
-30 c-3 -11 -9 -20 -14 -20 -5 0 -9 9 -9 20 0 11 6 20 14 20 9 0 12 -7 9 -20z
m137 -160 c0 -172 -1 -180 -19 -180 -14 0 -19 6 -16 20 2 11 0 22 -6 25 -5 4
-9 -5 -9 -19 0 -16 -6 -26 -15 -26 -11 0 -15 11 -15 40 0 30 4 40 16 40 8 0
12 -4 9 -10 -3 -5 -1 -10 4 -10 7 0 11 49 11 144 0 141 2 152 33 155 4 1 7
-80 7 -179z m-50 40 c0 -109 -2 -130 -15 -130 -13 0 -15 21 -15 130 0 109 2
130 15 130 13 0 15 -21 15 -130z m-88 -33 c4 -146 1 -177 -19 -177 -11 0 -14
8 -11 30 3 17 1 30 -4 30 -4 0 -8 -13 -8 -30 0 -20 -5 -30 -15 -30 -24 0 -20
57 5 65 18 6 20 15 20 120 0 96 2 113 14 109 11 -4 16 -31 18 -117z m-317 50
c0 -18 -5 -39 -10 -46 -5 -9 -4 -12 2 -8 7 4 9 -9 5 -40 -3 -33 -2 -44 7 -39
7 5 11 -3 10 -26 -1 -31 -1 -32 -9 -8 -8 25 -8 25 -9 2 -1 -19 -6 -23 -28 -20
l-28 3 -3 92 c-3 85 -1 92 15 86 10 -4 22 -11 26 -17 5 -7 6 -3 3 8 -4 10 -1
25 5 32 16 19 16 18 14 -19z m172 -154 c-2 -32 -3 -6 -3 57 0 63 1 89 3 58 2
-32 2 -84 0 -115z m183 -13 c-10 -6 -11 -10 -2 -10 7 0 12 -13 12 -30 0 -20
-5 -30 -15 -30 -10 0 -15 10 -15 33 0 35 6 47 24 47 6 0 4 -5 -4 -10z m193 3
c-13 -2 -35 -2 -50 0 -16 2 -5 4 22 4 28 0 40 -2 28 -4z m-343 -28 c0 -14 -4
-25 -10 -25 -11 0 -14 33 -3 43 11 11 13 8 13 -18z m784 -53 l1 -72 -37 0 -38
0 0 76 0 75 36 -3 36 -3 2 -73z m-424 22 l0 -47 -37 7 c-21 3 -44 6 -50 6 -8
0 -13 15 -13 40 l0 40 50 0 50 0 0 -46z m330 -24 l0 -71 -52 7 c-29 4 -71 9
-92 13 l-39 6 -1 58 -1 57 93 0 92 0 0 -70z m-890 -20 c13 -8 13 -10 -2 -10
-9 0 -20 5 -23 10 -8 13 5 13 25 0z m196 -89 c93 -43 176 -81 184 -84 9 -3 3
-6 -13 -6 -15 -1 -63 17 -107 39 -44 22 -80 38 -80 35 0 -2 26 -18 58 -34 31
-16 66 -37 77 -46 11 -9 -9 -1 -45 18 -123 66 -150 84 -143 91 4 4 0 4 -10 0
-12 -4 -17 -1 -17 10 0 10 -5 13 -17 9 -12 -5 -14 -3 -8 7 5 8 3 11 -6 8 -17
-6 -49 9 -49 22 0 6 2 10 4 10 2 0 80 -35 172 -79z m568 -261 c191 -88 352
-160 356 -160 5 0 12 -4 15 -10 3 -5 -14 -9 -42 -9 -26 0 -59 0 -73 -1 -15 -1
-98 37 -205 95 -321 173 -446 237 -450 233 -2 -2 75 -46 173 -98 97 -52 233
-125 302 -162 68 -37 129 -69 133 -71 5 -1 8 -11 6 -20 -3 -14 -32 -1 -164 74
-88 50 -185 105 -215 123 -30 18 -102 59 -159 91 -103 57 -115 74 -51 75 14 0
182 -72 374 -160z"/>
<path d="M1777 1561 c-4 -17 -3 -21 5 -13 5 5 8 16 6 23 -3 8 -7 3 -11 -10z"/>
<path d="M2364 1718 l-19 -23 23 19 c21 18 27 26 19 26 -2 0 -12 -10 -23 -22z"/>
<path d="M2309 1663 c-13 -16 -12 -17 4 -4 9 7 17 15 17 17 0 8 -8 3 -21 -13z"/>
<path d="M1914 1559 c-3 -6 -1 -16 5 -22 8 -8 11 -5 11 11 0 24 -5 28 -16 11z"/>
<path d="M2091 1144 c0 -11 3 -14 6 -6 3 7 2 16 -1 19 -3 4 -6 -2 -5 -13z"/>
<path d="M1663 945 c0 -8 6 -16 14 -19 11 -4 11 -1 3 14 -13 24 -17 25 -17 5z"/>
<path d="M1850 646 c0 -2 7 -7 16 -10 8 -3 12 -2 9 4 -6 10 -25 14 -25 6z"/>
<path d="M2272 2050 l-2 -164 75 102 c69 93 75 106 75 150 0 72 -13 82 -43 36
l-26 -38 6 37 c4 25 2 37 -6 37 -8 0 -11 -15 -10 -43 2 -37 -21 -97 -38 -97
-2 0 -3 29 -1 64 1 36 -1 68 -5 73 -5 4 -8 -53 -7 -127 1 -187 -3 -194 -10
-15 l-6 150 -2 -165z m128 87 c0 -47 -5 -60 -50 -122 l-50 -69 0 42 c0 34 10
61 48 122 26 44 48 79 50 80 1 0 2 -24 2 -53z"/>
<path d="M2340 2059 c0 -17 4 -28 10 -24 6 3 10 17 10 31 0 13 -4 24 -10 24
-5 0 -10 -14 -10 -31z"/>
<path d="M2310 2199 c0 -5 5 -7 10 -4 6 3 10 8 10 11 0 2 -4 4 -10 4 -5 0 -10
-5 -10 -11z"/>
<path d="M2703 2101 l-103 -109 0 -566 0 -565 -87 -4 c-63 -2 -48 -3 55 -5
l142 -2 0 263 1 262 94 42 95 41 0 -304 0 -304 30 0 c17 0 30 4 30 10 0 5 -10
9 -22 7 -27 -3 -25 -37 -29 738 -2 336 -5 562 -8 504 l-6 -106 -67 -57 -68
-57 0 113 0 112 47 51 c27 27 13 16 -30 -25 -92 -89 -104 -83 -15 7 34 35 58
63 53 63 -6 -1 -56 -50 -112 -109z m-5 -263 l-53 -47 -6 107 c-4 83 -5 59 -7
-110 -1 -119 -5 -219 -9 -221 -5 -3 -7 92 -5 211 l3 217 36 37 c20 20 39 35
43 33 4 -3 16 5 26 16 19 21 19 20 22 -87 l3 -109 -53 -47z m202 28 l0 -123
-62 -39 c-34 -21 -66 -40 -70 -42 -5 -2 -8 45 -8 105 l1 108 67 57 c37 31 68
57 70 57 1 1 2 -55 2 -123z m-150 -114 c0 -103 -1 -109 -22 -120 -13 -6 -38
-21 -55 -32 l-33 -22 0 99 0 98 51 43 c28 23 53 42 55 42 2 0 4 -49 4 -108z
m149 -134 l0 -113 -129 -62 -130 -62 0 49 0 48 125 72 c109 62 145 90 117 90
-7 0 -183 -101 -235 -135 l-29 -18 4 33 c3 30 14 40 138 121 74 48 136 88 137
88 1 1 2 -50 2 -111z m-1 -138 c-4 -12 -196 -100 -218 -100 -14 0 195 107 213
109 5 1 7 -4 5 -9z m-232 -110 l35 0 -3 -255 -3 -255 -37 0 -38 0 2 313 c1
171 3 286 5 255 l4 -58 35 0z"/>
<path d="M2665 2030 c-16 -16 -24 -30 -18 -30 10 0 34 24 47 48 12 20 2 14
-29 -18z"/>
<path d="M1606 2028 c-8 -12 -12 -26 -9 -31 3 -6 10 -1 14 11 10 25 27 29 35
7 4 -8 10 -15 15 -15 14 0 -8 37 -25 43 -9 4 -22 -3 -30 -15z"/>
<path d="M1676 1972 c-3 -5 8 -9 24 -9 16 0 27 4 24 9 -3 4 -14 8 -24 8 -10 0
-21 -4 -24 -8z"/>
<path d="M1562 1958 c-7 -7 -12 -18 -12 -25 0 -10 -9 -12 -34 -8 -20 4 -36 2
-40 -4 -4 -6 -18 -11 -32 -11 -14 0 -32 -7 -40 -15 -17 -17 -12 -19 14 -6 34
17 92 32 102 26 19 -12 48 5 53 30 5 29 5 29 -11 13z"/>
<path d="M1590 1960 c0 -5 5 -10 11 -10 5 0 7 5 4 10 -3 6 -8 10 -11 10 -2 0
-4 -4 -4 -10z"/>
<path d="M834 1935 c12 -33 178 -304 195 -318 13 -10 13 -7 -2 13 -9 14 -23
37 -31 51 -38 68 -168 272 -162 254z"/>
<path d="M1840 1830 c0 -55 2 -100 4 -100 2 0 11 -3 20 -6 13 -5 16 2 16 40
l0 46 40 0 c39 0 40 -1 40 -35 0 -24 -5 -35 -15 -35 -10 0 -15 10 -15 32 0 17
-3 28 -7 24 -5 -4 -8 -20 -8 -34 0 -16 -5 -26 -12 -24 -7 1 -13 -3 -13 -8 0
-7 30 -8 84 -4 60 5 85 3 91 -5 5 -9 -20 -12 -105 -10 -61 1 -114 -1 -117 -5
-4 -3 51 -6 122 -6 125 0 128 1 111 19 -13 14 -17 38 -17 99 l0 81 -97 3 -97
3 3 -89 c2 -48 0 -86 -5 -83 -4 3 -8 45 -8 94 l0 88 113 2 c63 0 116 4 119 7
4 3 -51 6 -120 6 l-127 0 0 -100z m77 28 c-2 -22 -8 -34 -20 -36 -13 -3 -17 4
-17 32 0 29 4 36 20 36 16 0 19 -6 17 -32z m43 -3 c0 -24 -5 -35 -15 -35 -10
0 -15 11 -15 35 0 24 5 35 15 35 10 0 15 -11 15 -35z m40 0 c0 -24 -5 -35 -15
-35 -10 0 -15 11 -15 35 0 24 5 35 15 35 10 0 15 -11 15 -35z m48 3 c-2 -20
-9 -33 -17 -33 -8 0 -15 13 -16 33 -2 26 1 32 17 32 16 0 19 -6 16 -32z m2
-83 c0 -27 -4 -35 -18 -35 -15 0 -18 6 -14 30 3 18 0 30 -7 30 -6 0 -11 -13
-11 -30 0 -20 -5 -30 -15 -30 -10 0 -15 11 -15 35 0 34 1 35 40 35 39 0 40 -1
40 -35z"/>
<path d="M2071 1853 c-1 -24 4 -43 9 -43 12 0 12 24 0 60 -7 21 -8 19 -9 -17z"/>
<path d="M1355 1870 c3 -5 10 -10 16 -10 5 0 9 5 9 10 0 6 -7 10 -16 10 -8 0
-12 -4 -9 -10z"/>
<path d="M1405 1865 c21 -8 285 -12 285 -5 0 5 -66 8 -147 8 -82 1 -143 -1
-138 -3z"/>
<path d="M2425 1810 c-3 -6 1 -7 9 -4 18 7 21 14 7 14 -6 0 -13 -4 -16 -10z"/>
<path d="M2077 1793 c-6 -10 -2 -51 4 -57 3 -3 6 10 7 29 3 33 -2 44 -11 28z"/>
<path d="M178 1763 c7 -3 16 -2 19 1 4 3 -2 6 -13 5 -11 0 -14 -3 -6 -6z"/>
<path d="M353 1743 c15 -2 39 -2 55 0 15 2 2 4 -28 4 -30 0 -43 -2 -27 -4z"/>
<path d="M1050 1577 c0 -14 54 -89 58 -79 2 6 -4 19 -12 29 -9 10 -22 27 -30
38 -9 11 -16 17 -16 12z"/>
<path d="M1637 1562 c-10 -10 -17 -26 -17 -34 0 -19 -49 -33 -63 -19 -6 6 -19
11 -29 11 -10 0 -18 7 -18 15 0 15 -30 36 -52 34 -7 0 -1 -5 14 -10 16 -6 28
-19 30 -32 2 -16 9 -21 26 -20 14 2 22 -3 22 -12 0 -17 35 -21 45 -5 4 6 10 8
14 6 4 -3 15 12 25 34 11 24 25 40 39 43 21 4 21 4 1 6 -11 0 -28 -7 -37 -17z"/>
<path d="M500 1546 c0 -14 5 -28 10 -31 6 -3 10 5 10 19 0 14 -4 28 -10 31 -6
3 -10 -5 -10 -19z"/>
<path d="M275 1550 c-19 -8 -19 -9 3 -9 12 -1 22 4 22 9 0 6 -1 10 -2 9 -2 0
-12 -4 -23 -9z"/>
<path d="M1695 1531 c-3 -6 3 -9 14 -8 11 0 17 5 15 9 -7 11 -22 10 -29 -1z"/>
<path d="M1431 1518 c0 -9 -7 -18 -13 -21 -7 -2 -10 -8 -5 -12 11 -13 29 11
24 31 -4 16 -5 16 -6 2z"/>
<path d="M1350 1465 c0 -8 3 -15 6 -15 3 0 12 7 20 15 14 13 13 15 -5 15 -12
0 -21 -6 -21 -15z"/>
<path d="M1120 1450 c0 -5 4 -10 8 -10 5 0 31 -20 58 -45 69 -64 79 -56 12 10
-53 53 -78 67 -78 45z"/>
<path d="M1385 1450 c-3 -5 1 -10 9 -10 9 0 16 5 16 10 0 6 -4 10 -9 10 -6 0
-13 -4 -16 -10z"/>
<path d="M1433 1443 c9 -2 23 -2 30 0 6 3 -1 5 -18 5 -16 0 -22 -2 -12 -5z"/>
<path d="M1555 1440 c3 -5 10 -10 16 -10 5 0 9 5 9 10 0 6 -7 10 -16 10 -8 0
-12 -4 -9 -10z"/>
<path d="M1594 1441 c3 -5 36 -9 73 -9 47 1 60 3 43 8 -35 11 -122 12 -116 1z"/>
<path d="M1080 1438 c0 -4 14 -27 30 -51 29 -43 30 -50 30 -148 0 -126 12
-124 16 3 2 74 -1 99 -16 123 -9 17 -16 36 -15 43 2 7 1 8 -2 2 -2 -6 -13 0
-24 12 -10 13 -18 20 -19 16z"/>
<path d="M326 1411 c-9 -14 34 -25 47 -12 8 8 8 11 0 11 -6 0 -18 3 -26 6 -8
3 -18 1 -21 -5z"/>
<path d="M1873 1229 c-14 -17 -16 -142 -2 -134 5 4 9 2 9 -4 0 -5 -6 -11 -12
-14 -7 -2 -11 -7 -8 -10 3 -3 11 -2 18 2 9 5 12 32 10 91 -2 66 -5 80 -15 69z
m4 -66 c-3 -10 -5 -2 -5 17 0 19 2 27 5 18 2 -10 2 -26 0 -35z m0 -45 c-3 -8
-6 -5 -6 6 -1 11 2 17 5 13 3 -3 4 -12 1 -19z"/>
<path d="M1828 1178 c-2 -7 -1 -35 3 -63 l6 -50 1 47 c1 25 5 53 8 62 3 9 2
16 -4 16 -5 0 -12 -6 -14 -12z"/>
<path d="M1165 1130 c3 -5 1 -10 -4 -10 -6 0 -11 -3 -11 -7 0 -5 19 -9 41 -10
43 -1 42 5 -4 25 -16 7 -26 8 -22 2z"/>
<path d="M1431 1126 c-14 -16 -5 -42 16 -50 13 -5 14 -4 4 8 -7 8 -10 24 -6
36 7 23 2 26 -14 6z"/>
<path d="M1905 1100 c-3 -5 -2 -10 4 -10 5 0 13 5 16 10 3 6 2 10 -4 10 -5 0
-13 -4 -16 -10z"/>
<path d="M1825 1050 c-3 -5 -1 -10 4 -10 6 0 11 5 11 10 0 6 -2 10 -4 10 -3 0
-8 -4 -11 -10z"/>
<path d="M1870 1050 c-8 -5 -12 -11 -9 -14 2 -3 11 -1 19 4 8 5 12 11 9 14 -2
3 -11 1 -19 -4z"/>
<path d="M1790 1030 c-13 -8 -12 -10 3 -10 9 0 17 5 17 10 0 12 -1 12 -20 0z"/>
<path d="M1830 940 c0 -51 2 -91 5 -88 8 7 8 169 1 176 -3 3 -6 -37 -6 -88z"/>
<path d="M1797 973 c8 -53 15 -56 12 -5 -2 23 -6 42 -10 42 -4 0 -5 -17 -2
-37z"/>
<path d="M1772 976 c7 -8 15 -12 17 -11 5 6 -10 25 -20 25 -5 0 -4 -6 3 -14z"/>
<path d="M1764 903 c1 -40 18 -38 23 3 2 20 1 25 -6 15 -7 -11 -9 -11 -13 0
-3 8 -5 -1 -4 -18z"/>
<path d="M1441 739 c-18 -28 -30 -53 -28 -56 3 -2 19 19 36 48 18 28 30 53 28
56 -3 2 -19 -19 -36 -48z"/>
<path d="M1530 771 c0 -5 5 -13 10 -16 6 -3 10 -2 10 4 0 5 -4 13 -10 16 -5 3
-10 2 -10 -4z"/>
<path d="M1753 753 c9 -2 23 -2 30 0 6 3 -1 5 -18 5 -16 0 -22 -2 -12 -5z"/>
<path d="M1813 753 c9 -2 25 -2 35 0 9 3 1 5 -18 5 -19 0 -27 -2 -17 -5z"/>
<path d="M1556 727 c3 -10 9 -15 12 -12 3 3 0 11 -7 18 -10 9 -11 8 -5 -6z"/>
<path d="M1804 723 c10 -10 316 -11 316 -1 0 5 -73 8 -162 8 -89 0 -158 -3
-154 -7z"/>
<path d="M2130 720 c0 -5 5 -10 11 -10 5 0 7 5 4 10 -3 6 -8 10 -11 10 -2 0
-4 -4 -4 -10z"/>
<path d="M1570 691 c0 -6 5 -11 10 -11 6 0 10 -7 10 -15 0 -8 5 -15 10 -15 7
0 7 6 0 19 -12 24 -30 36 -30 22z"/>
<path d="M1395 660 c-3 -5 -1 -10 4 -10 6 0 11 5 11 10 0 6 -2 10 -4 10 -3 0
-8 -4 -11 -10z"/>
<path d="M1285 650 c3 -5 8 -10 11 -10 2 0 4 5 4 10 0 6 -5 10 -11 10 -5 0 -7
-4 -4 -10z"/>
<path d="M2763 643 c9 -2 25 -2 35 0 9 3 1 5 -18 5 -19 0 -27 -2 -17 -5z"/>
<path d="M1375 629 c-11 -17 1 -21 15 -4 8 9 8 15 2 15 -6 0 -14 -5 -17 -11z"/>
<path d="M1610 632 c0 -12 19 -26 26 -19 2 2 -2 10 -11 17 -9 8 -15 8 -15 2z"/>
<path d="M2833 633 c9 -2 23 -2 30 0 6 3 -1 5 -18 5 -16 0 -22 -2 -12 -5z"/>
<path d="M1341 573 c-13 -28 -13 -28 8 -9 22 20 27 36 13 36 -5 0 -14 -12 -21
-27z"/>
<path d="M1630 592 c0 -11 22 -32 32 -32 5 0 4 9 -2 20 -11 20 -30 28 -30 12z"/>
<path d="M1310 520 c-8 -16 -8 -20 3 -20 8 0 17 9 20 20 3 11 1 20 -4 20 -4 0
-13 -9 -19 -20z"/>
<path d="M1672 520 c7 -11 19 -20 25 -20 11 0 11 4 1 20 -7 11 -19 20 -25 20
-11 0 -11 -4 -1 -20z"/>
<path d="M1700 469 c0 -5 5 -7 11 -4 6 4 10 1 8 -6 -3 -28 1 -39 16 -39 18 0
18 2 3 35 -11 25 -38 35 -38 14z"/>
<path d="M1260 445 c-14 -26 -9 -42 9 -31 6 4 8 13 4 22 -3 9 0 14 7 12 7 -2
15 3 17 10 9 23 -24 12 -37 -13z"/>
<path d="M1240 389 c0 -5 5 -7 10 -4 6 3 10 8 10 11 0 2 -4 4 -10 4 -5 0 -10
-5 -10 -11z"/>
<path d="M1172 311 l-31 -49 34 -4 c18 -2 31 0 29 4 -3 4 4 25 16 47 25 49 25
51 1 51 -12 0 -30 -18 -49 -49z m38 -1 c-11 -22 -28 -40 -36 -40 -12 0 -14 4
-7 13 5 6 17 24 26 40 27 42 40 32 17 -13z"/>
<path d="M1789 310 c16 -31 33 -50 44 -50 22 0 22 3 -9 56 -15 26 -33 44 -44
44 -16 0 -15 -5 9 -50z m29 0 c12 -22 19 -40 15 -40 -4 0 -18 18 -31 40 -12
22 -19 40 -15 40 4 0 18 -18 31 -40z"/>
<path d="M1140 214 c-12 -19 -21 -37 -18 -39 2 -2 14 14 26 36 28 49 22 52 -8
3z"/>
<path d="M1042 103 c-45 -67 -65 -103 -57 -103 3 0 25 31 49 69 24 37 53 71
65 74 l20 5 -20 -39 c-11 -22 -24 -37 -29 -34 -5 3 -12 0 -16 -6 -4 -8 -3 -9
4 -5 7 4 12 4 12 -1 0 -15 -19 -38 -31 -38 -7 0 -14 -7 -16 -15 -4 -12 -3 -12
5 -1 7 10 11 10 14 1 4 -13 42 40 77 108 l21 42 -29 0 c-26 0 -36 -9 -69 -57z"/>
<path d="M1880 149 c0 -13 79 -149 86 -149 3 0 -13 34 -36 75 -26 47 -37 75
-28 75 16 -1 70 -88 62 -101 -3 -5 0 -8 8 -7 7 2 12 -5 12 -15 -1 -10 1 -16 4
-13 3 3 11 1 19 -5 23 -20 14 -1 -38 76 -33 49 -58 75 -70 75 -10 0 -19 -5
-19 -11z"/>
</g>
</svg>
