<?xml version="1.0" standalone="no"?>
<!DOCTYPE svg PUBLIC "-//W3C//DTD SVG 20010904//EN"
 "http://www.w3.org/TR/2001/REC-SVG-20010904/DTD/svg10.dtd">
<svg version="1.0" xmlns="http://www.w3.org/2000/svg"
 width="800.000000pt" height="493.000000pt" viewBox="0 0 800.000000 493.000000"
 preserveAspectRatio="xMidYMid meet">

<g transform="translate(0.000000,493.000000) scale(0.100000,-0.100000)"
fill="#000000" stroke="none">
<path d="M4650 4335 l0 -215 -275 0 -275 0 0 -1295 0 -1295 -35 0 -35 0 0 665
0 665 -125 0 -125 0 0 86 0 87 -107 115 c-60 64 -135 145 -168 180 l-60 64
-167 -180 -167 -179 -3 -84 -3 -84 -122 -3 -123 -3 0 -374 0 -375 -135 0 -135
0 0 198 0 197 -32 47 c-104 148 -231 318 -239 318 -5 0 -150 -74 -322 -165
l-314 -165 -91 0 -92 0 0 113 0 112 -115 -3 -114 -3 -3 143 -3 143 -350 0
-350 0 -3 -143 -3 -144 -114 4 -115 3 0 -1147 0 -1147 -87 -3 -88 -3 -3 -42
-3 -43 3851 0 3851 0 -3 43 -3 42 -102 3 -103 3 0 1112 c0 612 0 1124 0 1140
l0 27 -175 0 -174 0 -3 103 -3 102 -157 3 -158 3 0 99 0 100 -140 0 -140 0 0
-100 0 -99 -157 -3 -158 -3 -3 -102 -3 -103 -174 0 -175 0 -2 -337 -3 -338
-45 0 -45 0 -3 1023 -2 1022 -265 0 -265 0 0 215 0 215 -370 0 -370 0 0 -215z
m10 -680 l0 -95 -75 0 -75 0 0 95 0 95 75 0 75 0 0 -95z m290 0 l0 -95 -75 0
-75 0 0 95 0 95 75 0 75 0 0 -95z m290 0 l0 -95 -75 0 -75 0 0 95 0 95 75 0
75 0 0 -95z m288 -2 l3 -93 -76 0 -75 0 0 95 0 96 73 -3 72 -3 3 -92z m-868
-378 l0 -95 -75 0 -75 0 0 95 0 95 75 0 75 0 0 -95z m290 0 l0 -95 -75 0 -75
0 0 95 0 95 75 0 75 0 0 -95z m290 0 l0 -95 -75 0 -75 0 0 95 0 95 75 0 75 0
0 -95z m288 3 l-3 -93 -72 -3 -73 -3 0 96 0 95 75 0 76 0 -3 -92z m-870 -380
l-3 -92 -70 0 -70 -1 -3 93 -3 92 76 0 76 0 -3 -92z m290 0 l-3 -93 -70 0 -70
0 -3 93 -3 92 76 0 76 0 -3 -92z m290 0 l-3 -93 -70 0 -70 0 -3 93 -3 92 76 0
76 0 -3 -92z m290 0 l-3 -93 -70 0 -70 0 -3 93 -3 92 76 0 76 0 -3 -92z
m-2038 -159 l0 -149 -45 0 -45 0 0 148 c0 82 2 151 4 153 3 3 23 3 45 1 l41
-4 0 -149z m1168 -216 l3 -93 -76 0 -75 0 0 88 c0 49 3 92 7 96 4 4 37 6 73 4
l65 -3 3 -92z m290 0 l3 -93 -76 0 -75 0 0 88 c0 49 3 92 7 96 4 4 37 6 73 4
l65 -3 3 -92z m290 0 l3 -93 -76 0 -75 0 0 88 c0 49 3 92 7 96 4 4 37 6 73 4
l65 -3 3 -92z m290 0 l3 -93 -76 0 -75 0 0 88 c0 49 3 92 7 96 4 4 37 6 73 4
l65 -3 3 -92z m-2040 -241 l3 -152 -46 0 -45 0 0 148 c0 82 3 152 7 156 4 4
23 5 43 3 l35 -3 3 -152z m-2638 -47 l0 -95 -70 0 -70 0 0 95 0 95 70 0 70 0
0 -95z m290 0 l0 -95 -70 0 -70 0 0 95 0 95 70 0 70 0 0 -95z m928 3 l-3 -93
-72 -3 -73 -3 0 96 0 95 75 0 76 0 -3 -92z m290 0 l-3 -93 -72 -3 -73 -3 0 96
0 95 75 0 76 0 -3 -92z m4252 17 l0 -75 -75 0 -75 0 0 68 c0 38 3 72 7 75 3 4
37 7 75 7 l68 0 0 -75z m298 -2 l3 -73 -76 0 -75 0 0 75 0 76 73 -3 72 -3 3
-72z m292 2 l0 -75 -75 0 -75 0 0 68 c0 38 3 71 6 74 3 4 37 6 75 7 l69 0 0
-74z m-2540 -110 l0 -95 -75 0 -75 0 0 88 c0 49 3 92 7 95 3 4 37 7 75 7 l68
0 0 -95z m290 0 l0 -95 -75 0 -75 0 0 88 c0 49 3 92 7 95 3 4 37 7 75 7 l68 0
0 -95z m288 -2 l3 -93 -76 0 -75 0 0 95 0 96 73 -3 72 -3 3 -92z m290 0 l3
-93 -76 0 -75 0 0 95 0 96 73 -3 72 -3 3 -92z m1082 -188 l0 -75 -75 0 -75 0
0 75 0 75 75 0 75 0 0 -75z m298 3 l-3 -73 -72 -3 -73 -3 0 76 0 75 75 0 76 0
-3 -72z m292 -3 l0 -76 -72 3 -73 3 -3 73 -3 72 76 0 75 0 0 -75z m-6352 -97
l3 -98 -71 0 -70 0 0 94 0 95 48 4 c93 7 87 14 90 -95z m292 0 l0 -98 -70 0
-70 0 0 98 0 99 70 -1 70 -1 0 -97z m925 2 l0 -95 -70 0 -70 0 -3 84 c-2 46
-1 89 1 95 3 7 33 11 73 11 l69 -1 0 -94z m290 -1 l0 -94 -70 0 -70 0 -3 84
c-2 46 -1 89 1 95 3 7 32 11 73 10 l69 -1 0 -94z m1015 -1 l0 -98 -70 0 -70 0
0 93 c0 52 2 96 4 98 3 2 34 4 70 4 l66 0 0 -97z m288 -1 l3 -97 -71 0 -70 0
0 94 0 95 43 3 c98 7 92 13 95 -95z m1002 -92 l0 -95 -75 0 -75 0 0 95 0 95
75 0 75 0 0 -95z m290 0 l0 -95 -75 0 -75 0 0 95 0 95 75 0 75 0 0 -95z m290
0 l0 -95 -75 0 -75 0 0 95 0 95 75 0 75 0 0 -95z m285 0 l0 -90 -72 -3 -73 -3
0 96 0 96 73 -3 72 -3 0 -90z m1083 -102 l3 -73 -76 0 -75 0 0 68 c0 38 3 72
7 76 4 4 37 6 73 4 l65 -3 3 -72z m300 0 l3 -73 -76 0 -75 0 0 68 c0 38 3 72
7 76 4 4 37 6 73 4 l65 -3 3 -72z m292 2 l0 -75 -75 0 -75 0 0 68 c0 38 3 72
7 75 3 4 37 7 75 7 l68 0 0 -75z m-6350 -180 l0 -95 -70 0 -70 0 0 95 0 95 70
0 70 0 0 -95z m290 0 l0 -95 -70 0 -70 0 0 95 0 95 70 0 70 0 0 -95z m928 -2
l3 -93 -76 0 -75 0 0 95 0 96 73 -3 72 -3 3 -92z m290 0 l3 -93 -76 0 -75 0 0
88 c0 49 3 92 7 96 4 4 37 6 73 4 l65 -3 3 -92z m434 2 l3 -95 -72 0 -73 0 0
95 0 95 69 0 70 0 3 -95z m288 0 l0 -95 -70 0 -70 0 0 88 c0 49 3 92 7 95 3 4
35 7 70 7 l63 0 0 -95z m290 0 l0 -95 -70 0 -70 0 0 95 0 95 70 0 70 0 0 -95z
m290 0 l0 -95 -70 0 -70 0 0 95 0 95 70 0 70 0 0 -95z m1000 -100 l0 -96 -72
3 -73 3 -3 93 -3 92 76 0 75 0 0 -95z m290 0 l0 -95 -75 0 -75 0 0 95 0 95 75
0 75 0 0 -95z m288 3 l-3 -93 -72 -3 -73 -3 0 96 0 95 75 0 76 0 -3 -92z m290
0 l-3 -93 -72 -3 -73 -3 0 96 0 95 75 0 76 0 -3 -92z m1082 -168 l0 -70 -75 0
-75 0 0 70 0 70 75 0 75 0 0 -70z m300 0 l0 -70 -75 0 -75 0 0 70 0 70 75 0
75 0 0 -70z m290 0 l0 -70 -75 0 -75 0 0 70 0 70 75 0 75 0 0 -70z m-6350
-115 l0 -95 -70 0 -70 0 0 95 0 95 70 0 70 0 0 -95z m290 0 l0 -95 -70 0 -70
0 0 95 0 95 70 0 70 0 0 -95z m930 0 l0 -95 -75 0 -75 0 0 95 0 95 75 0 75 0
0 -95z m288 -2 l3 -93 -76 0 -75 0 0 95 0 96 73 -3 72 -3 3 -92z m432 2 l0
-95 -70 0 -70 0 0 95 0 95 70 0 70 0 0 -95z m290 0 l0 -95 -70 0 -70 0 0 95 0
95 70 0 70 0 0 -95z m1580 -100 l0 -96 -72 3 -73 3 -3 93 -3 92 76 0 75 0 0
-95z m288 3 l-3 -93 -70 0 -70 0 -3 93 -3 92 76 0 76 0 -3 -92z m1662 -83 l0
-75 -75 0 -75 0 0 75 0 75 75 0 75 0 0 -75z m300 0 l0 -75 -75 0 -75 0 0 75 0
75 75 0 75 0 0 -75z m290 0 l0 -75 -75 0 -75 0 0 75 0 75 75 0 75 0 0 -75z
m-6350 -200 l0 -95 -70 0 -70 0 0 95 0 95 70 0 70 0 0 -95z m290 0 l0 -95 -70
0 -70 0 0 95 0 95 70 0 70 0 0 -95z m1653 23 c-1 -40 -2 -83 -3 -95 0 -22 -4
-23 -70 -23 l-70 0 0 95 0 95 73 0 72 0 -2 -72z m287 -23 l0 -95 -70 0 -70 0
0 95 0 95 70 0 70 0 0 -95z m3530 -95 l0 -70 -75 0 -75 0 0 70 0 70 75 0 75 0
0 -70z m300 0 l0 -70 -75 0 -75 0 0 70 0 70 75 0 75 0 0 -70z"/>
</g>
</svg>
