<?xml version="1.0" standalone="no"?>
<!DOCTYPE svg PUBLIC "-//W3C//DTD SVG 20010904//EN"
 "http://www.w3.org/TR/2001/REC-SVG-20010904/DTD/svg10.dtd">
<svg version="1.0" xmlns="http://www.w3.org/2000/svg"
 width="1451.000000pt" height="642.000000pt" viewBox="0 0 1451.000000 642.000000"
 preserveAspectRatio="xMidYMid meet">

<g transform="translate(0.000000,642.000000) scale(0.100000,-0.100000)"
fill="rgba(0,0,0,0.4)" stroke="none">
<path d="M8033 6313 c-284 -236 -572 -476 -655 -546 -48 -40 -166 -131 -263
-203 -378 -277 -727 -544 -751 -575 -9 -10 -8 -71 2 -234 10 -154 13 -350 10
-650 -2 -236 -1 -666 4 -955 13 -753 19 -1650 11 -1649 -11 1 -356 529 -487
744 -185 305 -301 474 -489 710 -187 235 -351 467 -629 885 -166 250 -319 481
-339 512 -47 73 -77 93 -142 93 -87 0 -104 -21 -227 -266 -214 -428 -297 -567
-691 -1161 -140 -211 -347 -538 -461 -726 -204 -339 -330 -537 -348 -548 -6
-4 -7 179 -3 487 5 400 4 497 -7 509 -7 8 -38 31 -68 51 -83 54 -204 153 -299
243 -149 143 -549 582 -641 704 -38 50 -154 228 -181 280 -20 36 -69 51 -106
31 -13 -7 -66 -76 -118 -153 -196 -296 -292 -412 -535 -649 -186 -183 -322
-289 -496 -392 l-111 -66 -7 -142 c-3 -78 -6 -706 -5 -1395 l0 -1252 7252 2
7252 3 1 1015 c1 964 0 1017 -18 1052 -29 59 -176 276 -238 353 -32 39 -127
167 -212 285 -85 118 -190 265 -234 325 -44 61 -131 185 -194 278 l-114 167
-686 0 c-377 0 -777 1 -890 2 -113 1 -376 1 -585 0 l-380 -3 -130 -160 c-175
-216 -547 -650 -722 -843 l-143 -156 -1 1167 c0 643 0 1236 1 1318 1 165 2
163 -65 211 -22 16 -74 58 -115 95 -41 36 -142 119 -225 184 -82 66 -208 169
-280 230 -71 61 -166 140 -210 175 -44 36 -134 112 -200 170 -133 118 -515
431 -614 503 -35 26 -69 47 -76 47 -6 0 -70 -48 -142 -107z m697 -1743 l0
-150 -185 0 -185 0 0 150 0 150 185 0 185 0 0 -150z m610 0 l0 -150 -185 0
-185 0 0 150 0 150 185 0 185 0 0 -150z m-1920 -10 l0 -150 -185 0 -185 0 0
150 0 150 185 0 185 0 0 -150z m620 0 l0 -150 -185 0 -185 0 0 150 0 150 185
0 185 0 0 -150z m690 -770 l0 -150 -185 0 -185 0 0 150 0 150 185 0 185 0 0
-150z m610 0 l0 -150 -185 0 -185 0 0 150 0 150 185 0 185 0 0 -150z m-1920
-10 l0 -150 -185 0 -185 0 0 150 0 150 185 0 185 0 0 -150z m620 0 l0 -150
-185 0 -185 0 0 150 0 150 185 0 185 0 0 -150z m-3647 -124 c18 -7 44 -26 59
-42 33 -36 94 -149 103 -190 6 -31 5 -31 -41 -38 -26 -3 -73 -6 -105 -6 l-59
0 0 145 c0 80 2 145 5 145 3 0 20 -6 38 -14z m-133 -136 l0 -140 -111 0 c-93
0 -110 2 -106 14 3 8 11 34 17 58 24 87 75 154 145 191 55 29 55 29 55 -123z
m0 -383 l0 -153 -105 2 c-58 1 -108 3 -110 6 -3 3 -7 170 -6 255 1 38 8 40
134 42 l87 1 0 -153z m319 137 c4 -4 3 -275 -1 -279 -2 -2 -50 -5 -107 -6 -91
-3 -105 -1 -110 14 -5 13 -6 276 -2 283 2 3 216 -9 220 -12z m-2929 -114 l0
-120 -125 0 -125 0 0 120 0 120 125 0 125 0 0 -120z m-490 -10 l0 -120 -125 0
-125 0 0 120 0 120 125 0 125 0 0 -120z m250 -730 l0 -120 -125 0 -125 0 0
120 0 120 125 0 125 0 0 -120z m-800 -10 l0 -120 -125 0 -125 0 0 120 0 120
125 0 125 0 0 -120z m1540 0 l0 -120 -125 0 -125 0 0 120 0 120 125 0 125 0 0
-120z m2282 -85 c25 -18 52 -50 67 -80 23 -44 26 -63 29 -181 l4 -131 -150 -8
c-83 -4 -180 -4 -216 0 l-66 7 0 113 c0 167 33 249 118 295 57 31 157 24 214
-15z m-870 -10 c25 -18 52 -50 67 -80 23 -44 26 -63 29 -181 l4 -131 -69 -6
c-37 -4 -134 -7 -215 -7 l-148 0 0 118 c0 174 32 255 118 302 57 31 157 24
214 -15z m1740 0 c25 -18 52 -50 67 -80 23 -44 26 -64 29 -176 l4 -126 -63 -6
c-79 -9 -214 -9 -301 0 l-68 6 0 107 c0 161 34 244 118 290 57 31 157 24 214
-15z m7078 -490 l0 -165 -175 0 -175 0 0 165 0 165 175 0 175 0 0 -165z m1230
-10 l0 -165 -175 0 -175 0 0 165 0 165 175 0 175 0 0 -165z m-2530 -10 l0
-165 -175 0 -175 0 0 165 0 165 175 0 175 0 0 -165z m-8930 -415 l0 -120 -125
0 -125 0 0 120 0 120 125 0 125 0 0 -120z m-750 -10 l0 -120 -125 0 -125 0 0
120 0 120 125 0 125 0 0 -120z m-810 -10 l0 -120 -125 0 -125 0 0 120 0 120
125 0 125 0 0 -120z m11770 -625 l0 -165 -175 0 -175 0 0 165 0 165 175 0 175
0 0 -165z m1230 -10 l0 -165 -175 0 -175 0 0 165 0 165 175 0 175 0 0 -165z
m-2530 -10 l0 -165 -175 0 -175 0 0 165 0 165 175 0 175 0 0 -165z"/>
</g>
</svg>
