<?xml version="1.0" standalone="no"?>
<!DOCTYPE svg PUBLIC "-//W3C//DTD SVG 20010904//EN"
 "http://www.w3.org/TR/2001/REC-SVG-20010904/DTD/svg10.dtd">
<svg version="1.0" xmlns="http://www.w3.org/2000/svg"
 width="5200.000000pt" height="803.000000pt" viewBox="0 0 5200.000000 803.000000"
 preserveAspectRatio="xMidYMid meet">

<g transform="translate(0.000000,803.000000) scale(0.100000,-0.100000)"
fill="rgba(0,0,0,0.4)" stroke="none">
<path d="M40116 8008 c-7 -13 -28 -66 -46 -118 -85 -248 -261 -621 -590 -1250
-316 -606 -511 -956 -653 -1175 l-110 -169 7 -701 c3 -385 9 -791 12 -901 l7
-201 -34 -6 c-19 -2 -100 -2 -180 2 l-146 6 -99 109 c-54 60 -129 147 -167
193 -37 46 -151 181 -253 300 -240 278 -324 384 -586 738 -518 700 -504 684
-568 700 -25 6 -80 -9 -90 -24 -3 -5 -68 -78 -146 -162 -77 -85 -167 -185
-200 -224 -216 -258 -354 -401 -1055 -1093 -442 -437 -515 -501 -558 -489 -16
4 -353 238 -668 464 -95 67 -177 123 -181 123 -15 0 -22 183 -22 616 l0 421
-32 49 c-17 27 -41 65 -53 84 -13 19 -64 100 -115 180 -50 80 -95 145 -99 145
-15 0 -253 -309 -314 -407 -16 -27 -17 -55 -7 -451 12 -478 6 -589 -32 -620
-13 -10 -68 -48 -123 -85 -186 -124 -530 -373 -684 -495 l-111 -87 0 -715 c0
-393 -4 -715 -8 -715 -15 0 -69 64 -124 145 -110 163 -265 564 -353 915 -9 36
-19 71 -24 78 -6 10 -229 13 -1085 16 -1223 3 -1100 13 -1131 -89 -66 -224
-321 -827 -473 -1120 l-57 -110 -3 -942 -3 -943 11521 0 11520 0 0 1298 0
1297 -115 125 c-366 399 -641 789 -772 1094 -19 44 -50 109 -69 144 -71 126
-94 196 -90 273 2 51 -1 72 -11 81 -20 16 -49 -3 -46 -31 2 -12 -2 -21 -7 -21
-6 0 -10 -9 -10 -20 0 -11 4 -20 9 -20 16 0 0 -70 -34 -152 -18 -42 -71 -143
-117 -225 -47 -81 -107 -191 -133 -243 -168 -335 -391 -668 -537 -805 -125
-115 -288 -209 -426 -244 -117 -30 -166 -28 -203 8 -26 27 -29 36 -29 98 -2
1510 -5 1802 -14 1835 -9 31 -30 51 -125 123 -253 190 -471 396 -811 765 -247
269 -242 263 -330 393 -40 60 -80 111 -87 114 -25 10 -59 -17 -94 -75 -77
-127 -228 -325 -347 -455 -70 -77 -161 -176 -202 -222 -266 -293 -407 -438
-521 -535 -70 -61 -133 -119 -139 -130 -7 -13 -10 -136 -10 -347 0 -181 0
-431 0 -557 l0 -230 -31 30 c-144 136 -676 776 -745 894 -25 44 -59 91 -75
105 -29 24 -37 25 -148 25 -116 0 -118 0 -144 28 -27 28 -27 30 -32 203 -3 96
-10 341 -16 546 l-12 371 -30 6 c-38 8 -384 6 -502 -3 l-90 -6 -6 -220 c-4
-121 -10 -368 -14 -550 l-8 -330 -33 -31 -32 -31 -284 -6 c-155 -4 -377 -12
-493 -17 -222 -12 -810 -6 -1115 11 -442 24 -401 24 -440 -3 -26 -18 -52 -56
-105 -158 -123 -234 -286 -460 -518 -718 -142 -157 -365 -378 -373 -369 -13
12 -16 854 -6 1452 l10 590 -70 130 c-38 72 -174 339 -303 595 -128 256 -250
497 -269 535 -130 254 -397 809 -460 957 -71 167 -154 400 -191 533 -21 77
-42 125 -55 125 -5 0 -16 -10 -24 -22z m130 -1437 c47 -22 80 -61 122 -146 71
-144 118 -330 129 -507 l6 -98 -340 0 c-290 0 -342 2 -346 15 -8 19 18 261 38
355 41 198 113 332 204 380 47 25 133 25 187 1z m7934 -1786 l0 -175 -145 0
-145 0 0 175 0 175 145 0 145 0 0 -175z m-8080 -270 l0 -135 -170 0 -170 0 0
135 0 135 170 0 170 0 0 -135z m480 -5 l0 -140 -185 0 -185 0 0 140 0 140 185
0 185 0 0 -140z m-480 -385 l0 -145 -170 0 -170 0 0 145 0 145 170 0 170 0 0
-145z m480 0 l0 -145 -185 0 -185 0 0 145 0 145 185 0 185 0 0 -145z m7630
-275 l0 -160 -160 0 -160 0 0 160 0 160 160 0 160 0 0 -160z m630 0 l0 -160
-160 0 -160 0 0 160 0 160 160 0 160 0 0 -160z m-1260 -10 l0 -160 -160 0
-160 0 0 160 0 160 160 0 160 0 0 -160z m-13978 -187 c28 -26 93 -149 103
-194 6 -26 5 -26 -62 -32 -37 -4 -85 -7 -105 -7 l-38 0 0 145 0 145 38 -15
c20 -9 49 -28 64 -42z m-196 10 c-3 -21 -6 -84 -6 -140 l0 -103 -105 0 c-58 0
-105 1 -105 3 0 2 11 36 25 77 30 87 62 132 123 171 63 40 76 38 68 -8z m4
-485 l0 -153 -68 1 c-37 1 -86 2 -109 3 l-43 1 0 144 0 145 28 4 c15 2 64 5
110 6 l82 1 0 -152z m225 142 l93 0 4 -58 c1 -33 2 -98 0 -145 l-3 -87 -110 0
-109 0 -1 60 c-2 227 -1 243 17 236 9 -3 58 -6 109 -6z m4035 -200 l0 -120
-265 0 -265 0 0 120 0 120 265 0 265 0 0 -120z m-1710 -10 l0 -120 -265 0
-265 0 0 120 0 120 265 0 265 0 0 -120z m710 10 l0 -110 -125 0 -125 0 0 110
0 110 125 0 125 0 0 -110z m14317 -10 c43 -26 77 -79 112 -176 39 -108 61
-217 61 -309 l0 -75 -249 0 c-138 0 -252 4 -255 8 -8 13 12 199 30 282 19 86
64 193 97 229 58 62 141 80 204 41z m-12307 -170 l0 -90 -100 0 -100 0 0 90 0
90 100 0 100 0 0 -90z m1440 -45 l0 -135 -170 0 -170 0 0 135 0 135 170 0 170
0 0 -135z m470 -5 l0 -140 -180 0 -180 0 0 140 0 140 180 0 180 0 0 -140z
m-470 -365 l0 -125 -170 0 -170 0 0 125 0 125 170 0 170 0 0 -125z m470 0 l0
-125 -180 0 -180 0 0 125 0 125 180 0 180 0 0 -125z m7610 -55 l0 -160 -160 0
-160 0 0 160 0 160 160 0 160 0 0 -160z m630 0 l0 -160 -160 0 -160 0 0 160 0
160 160 0 160 0 0 -160z m-1260 -10 l0 -160 -160 0 -160 0 0 160 0 160 160 0
160 0 0 -160z m-14020 43 c42 -22 59 -40 84 -83 29 -52 31 -61 34 -187 l4
-133 -217 0 -217 0 4 133 c4 112 8 139 28 180 53 110 170 147 280 90z m5140
-73 l0 -90 -100 0 -100 0 0 90 0 90 100 0 100 0 0 -90z m-1030 -160 l0 -120
-265 0 -265 0 0 120 0 120 265 0 265 0 0 -120z m-1710 -10 l0 -120 -265 0
-265 0 0 120 0 120 265 0 265 0 0 -120z m710 10 l0 -110 -125 0 -125 0 0 110
0 110 125 0 125 0 0 -110z m6285 -275 l0 -120 -122 -3 -123 -3 0 126 0 126
123 -3 122 -3 0 -120z m295 0 l0 -126 -122 3 -123 3 -3 109 c-1 61 0 116 2
123 4 10 36 13 126 13 l120 0 0 -125z m870 -20 l0 -125 -125 0 -125 0 0 125 0
125 125 0 125 0 0 -125z m300 0 l0 -125 -125 0 -125 0 0 125 0 125 125 0 125
0 0 -125z m808 -2 l3 -123 -126 0 -125 0 0 125 0 126 123 -3 122 -3 3 -122z
m292 2 l0 -125 -119 0 -120 0 -3 98 c-2 53 -2 109 0 125 l3 27 120 0 119 0 0
-125z m4980 -145 l0 -230 -165 0 -165 0 0 230 0 230 165 0 165 0 0 -230z m420
0 l0 -230 -155 0 -155 0 0 230 0 230 155 0 155 0 0 -230z m430 0 l0 -230 -160
0 -160 0 0 230 0 230 160 0 160 0 0 -230z m400 0 l0 -230 -145 0 -145 0 0 230
0 230 145 0 145 0 0 -230z m-8795 -145 l0 -120 -122 -3 -123 -3 0 126 0 126
123 -3 122 -3 0 -120z m295 0 l0 -126 -122 3 -123 3 -3 109 c-1 61 0 116 2
123 4 10 36 13 126 13 l120 0 0 -125z m870 -20 l0 -125 -125 0 -125 0 0 125 0
125 125 0 125 0 0 -125z m300 0 l0 -125 -125 0 -125 0 0 125 0 125 125 0 125
0 0 -125z m805 0 l0 -120 -122 -3 -123 -3 0 126 0 126 123 -3 122 -3 0 -120z
m296 121 c2 -2 3 -59 1 -125 l-3 -121 -119 0 -119 0 -3 121 c-2 66 -1 123 1
125 2 2 57 4 121 4 64 0 119 -2 121 -4z m-15661 -236 l0 -160 -160 0 -160 0 0
160 0 160 160 0 160 0 0 -160z m440 0 l0 -160 -160 0 -160 0 0 160 0 160 160
0 160 0 0 -160z m950 0 l0 -160 -160 0 -160 0 0 160 0 160 160 0 160 0 0 -160z
m440 0 l0 -160 -160 0 -160 0 0 160 0 160 160 0 160 0 0 -160z m16520 -430 l0
-160 -160 0 -160 0 0 160 0 160 160 0 160 0 0 -160z m630 0 l0 -160 -160 0
-160 0 0 160 0 160 160 0 160 0 0 -160z m-1260 -10 l0 -160 -160 0 -160 0 0
160 0 160 160 0 160 0 0 -160z m-16340 -290 l0 -160 -160 0 -160 0 0 160 0
160 160 0 160 0 0 -160z m450 0 l0 -160 -160 0 -160 0 0 160 0 160 160 0 160
0 0 -160z m-1830 -10 l0 -160 -160 0 -160 0 0 160 0 160 160 0 160 0 0 -160z
m440 0 l0 -160 -160 0 -160 0 0 160 0 160 160 0 160 0 0 -160z"/>
<path d="M8190 6696 c0 -50 -3 -66 -14 -66 -16 0 -26 -30 -26 -86 0 -53 -44
-222 -71 -277 -12 -23 -39 -66 -61 -94 -24 -32 -38 -59 -34 -68 16 -44 -72
-299 -209 -605 -26 -58 -58 -132 -72 -165 -87 -206 -276 -504 -439 -692 l-72
-82 -7 -208 c-4 -114 -4 -361 0 -548 4 -187 8 -669 10 -1072 l2 -732 -46 26
c-72 42 -116 83 -197 187 -44 55 -83 96 -93 96 -11 0 -30 -25 -55 -72 -123
-236 -363 -458 -522 -484 l-41 -6 -8 633 c-8 715 -8 779 7 797 9 10 33 11 102
7 73 -5 107 -3 172 13 71 17 134 45 134 59 0 13 -28 54 -66 95 -54 58 -127
170 -164 251 -37 82 -195 564 -229 697 l-27 105 -43 22 -43 22 -1507 -2
c-1710 -3 -1554 6 -1614 -89 -49 -76 -99 -179 -141 -288 -58 -149 -257 -511
-348 -629 -130 -172 -186 -256 -177 -267 5 -6 33 -22 62 -35 42 -19 70 -23
142 -23 50 0 107 3 127 8 73 16 70 31 62 -403 -4 -230 -11 -391 -17 -398 -5
-7 -25 -13 -43 -13 -30 0 -46 12 -137 107 -57 60 -148 160 -202 223 -54 63
-166 185 -250 270 -365 372 -620 666 -729 840 -36 58 -72 115 -81 128 -31 44
-47 29 -118 -110 -37 -73 -93 -170 -124 -215 -32 -46 -99 -142 -150 -215 -51
-73 -141 -195 -200 -270 -245 -311 -287 -363 -299 -371 -7 -4 -41 -42 -76 -85
-35 -42 -107 -124 -160 -182 l-98 -105 0 -1162 0 -1163 6785 0 6785 0 -2 948
-3 949 -120 133 c-66 74 -165 178 -220 231 -122 119 -759 747 -1049 1034 -281
279 -855 837 -933 908 -70 63 -122 84 -178 68 -26 -7 -109 -85 -347 -323 -172
-173 -396 -395 -498 -493 -102 -99 -375 -367 -607 -597 -232 -230 -427 -418
-433 -418 -10 0 -11 151 -10 1502 l0 617 -63 68 c-93 103 -206 273 -298 448
-23 44 -53 98 -67 119 -28 45 -64 124 -123 269 -93 229 -157 450 -168 579 -8
84 -10 89 -48 131 -22 23 -51 67 -66 97 -34 71 -77 238 -77 301 0 38 -4 51
-20 59 -15 8 -20 23 -22 67 -2 34 -8 58 -15 61 -10 3 -13 -14 -13 -62z m44
-490 c20 -41 36 -77 36 -81 0 -9 -160 -2 -166 7 -3 5 4 21 15 37 12 16 30 50
41 75 11 26 24 45 29 41 6 -3 26 -39 45 -79z m71 -775 c50 -22 85 -62 124
-144 40 -80 58 -177 67 -359 l7 -146 -69 -8 c-91 -10 -490 -11 -500 -2 -12 12
-8 236 5 321 15 93 52 206 81 247 67 94 192 134 285 91z m-520 -1289 c43 -21
74 -51 98 -97 19 -35 22 -60 25 -191 3 -133 2 -152 -14 -165 -26 -21 -390 -21
-404 1 -31 49 -19 285 18 356 55 106 173 148 277 96z m930 -9 c43 -22 74 -52
98 -98 19 -35 22 -60 25 -191 3 -133 2 -152 -14 -165 -26 -21 -390 -21 -404 1
-31 49 -19 284 18 355 55 108 173 150 277 98z m-5325 -1263 l0 -110 -110 0
-110 0 0 110 0 110 110 0 110 0 0 -110z m270 0 l0 -110 -110 0 -110 0 0 110 0
110 110 0 110 0 0 -110z m780 -20 l0 -110 -110 0 -110 0 0 110 0 110 110 0
110 0 0 -110z m270 0 l0 -110 -110 0 -110 0 0 110 0 110 110 0 110 0 0 -110z
m730 0 l0 -110 -110 0 -110 0 0 110 0 110 110 0 110 0 0 -110z m270 0 l0 -110
-110 0 -110 0 0 110 0 110 110 0 110 0 0 -110z m-2320 -260 l0 -110 -110 0
-110 0 0 110 0 110 110 0 110 0 0 -110z m270 0 l0 -110 -110 0 -110 0 0 110 0
110 110 0 110 0 0 -110z m780 -20 l0 -110 -110 0 -110 0 0 110 0 110 110 0
110 0 0 -110z m270 0 l0 -110 -110 0 -110 0 0 110 0 110 110 0 110 0 0 -110z
m730 0 l0 -110 -110 0 -110 0 0 110 0 110 110 0 110 0 0 -110z m270 0 l0 -110
-110 0 -110 0 0 110 0 110 110 0 110 0 0 -110z m-4310 -675 l0 -185 -180 0
-180 0 0 185 0 185 180 0 180 0 0 -185z m750 -10 l0 -185 -180 0 -180 0 0 185
0 185 180 0 180 0 0 -185z m-1490 -10 l0 -185 -180 0 -180 0 0 185 0 185 180
0 180 0 0 -185z m10150 -105 l0 -190 -175 0 -175 0 0 190 0 190 175 0 175 0 0
-190z m-710 -10 l0 -190 -175 0 -175 0 0 190 0 190 175 0 175 0 0 -190z m1390
0 l0 -190 -175 0 -175 0 0 190 0 190 175 0 175 0 0 -190z m670 0 l0 -190 -175
0 -175 0 0 190 0 190 175 0 175 0 0 -190z m720 -10 l0 -190 -175 0 -175 0 0
190 0 190 175 0 175 0 0 -190z m-5930 -550 l0 -120 -120 0 -120 0 0 120 0 120
120 0 120 0 0 -120z m10 -470 l0 -120 -120 0 -120 0 0 120 0 120 120 0 120 0
0 -120z m10 -460 l0 -120 -120 0 -120 0 0 120 0 120 120 0 120 0 0 -120z"/>
<path d="M22142 6313 c-71 -60 -214 -178 -318 -263 -103 -85 -229 -190 -278
-234 -85 -73 -288 -227 -627 -476 -79 -58 -171 -128 -204 -156 -33 -27 -96
-77 -140 -111 -124 -94 -116 -77 -104 -234 6 -73 13 -494 15 -934 2 -440 7
-1158 12 -1595 4 -437 6 -799 4 -803 -2 -5 -23 21 -45 58 -23 36 -103 156
-178 268 -74 111 -173 265 -219 342 -177 297 -391 607 -580 840 -92 113 -281
371 -367 500 -44 66 -128 192 -186 280 -58 88 -151 228 -207 310 -56 83 -119
180 -141 216 -61 105 -120 141 -198 124 -60 -13 -88 -51 -176 -229 -193 -394
-322 -614 -654 -1113 -286 -432 -324 -491 -498 -781 -248 -412 -349 -572 -365
-572 -5 0 -5 204 -2 473 4 260 4 484 1 498 -4 17 -34 43 -89 81 -118 81 -257
200 -373 320 -136 141 -318 338 -390 423 -33 39 -80 93 -105 120 -45 49 -201
277 -234 342 -29 57 -82 69 -128 30 -14 -12 -63 -78 -109 -147 -194 -295 -294
-416 -540 -654 -196 -189 -341 -301 -540 -414 l-56 -32 -7 -62 c-3 -35 -6
-663 -6 -1395 l0 -1333 7255 0 7255 0 -3 1028 -2 1027 -99 150 c-54 83 -128
186 -163 230 -102 129 -503 687 -653 908 l-93 137 -676 1 c-372 0 -784 1 -916
2 -132 1 -400 0 -595 -1 l-355 -2 -162 -198 c-245 -299 -455 -544 -651 -760
l-177 -195 -5 1324 c-3 728 -6 1324 -8 1325 -14 4 -113 83 -177 139 -44 39
-134 114 -200 165 -66 52 -190 153 -275 225 -85 72 -195 164 -245 205 -49 40
-142 119 -205 175 -63 56 -164 141 -225 190 -60 49 -157 128 -215 175 -153
125 -215 170 -233 170 -8 0 -74 -48 -145 -107z m698 -1743 l0 -150 -185 0
-185 0 0 150 0 150 185 0 185 0 0 -150z m610 0 l0 -150 -185 0 -185 0 0 150 0
150 185 0 185 0 0 -150z m-1920 -10 l0 -150 -185 0 -185 0 0 150 0 150 185 0
185 0 0 -150z m620 0 l0 -150 -185 0 -185 0 0 150 0 150 185 0 185 0 0 -150z
m690 -770 l0 -150 -185 0 -185 0 0 150 0 150 185 0 185 0 0 -150z m610 0 l0
-150 -185 0 -185 0 0 150 0 150 185 0 185 0 0 -150z m-1920 -10 l0 -150 -185
0 -185 0 0 150 0 150 185 0 185 0 0 -150z m620 0 l0 -150 -185 0 -185 0 0 150
0 150 185 0 185 0 0 -150z m-3588 -167 c28 -26 93 -149 103 -194 6 -26 5 -26
-62 -32 -37 -4 -85 -7 -105 -7 l-38 0 0 145 0 145 38 -15 c20 -9 49 -28 64
-42z m-196 10 c-3 -21 -6 -84 -6 -140 l0 -103 -105 0 c-58 0 -105 1 -105 3 0
2 11 36 25 77 30 87 62 132 123 171 63 40 76 38 68 -8z m4 -485 l0 -153 -63 1
c-34 1 -83 2 -109 3 l-48 1 0 144 0 145 28 4 c15 2 64 5 110 6 l82 1 0 -152z
m225 142 l93 0 4 -58 c1 -33 2 -98 0 -145 l-3 -87 -110 0 -109 0 -1 58 c-1 60
-1 234 0 241 1 2 8 0 17 -3 9 -3 58 -6 109 -6z m-2835 -120 l0 -120 -125 0
-125 0 0 120 0 120 125 0 125 0 0 -120z m-490 -10 l0 -120 -125 0 -125 0 0
120 0 120 125 0 125 0 0 -120z m250 -730 l0 -120 -125 0 -125 0 0 120 0 120
125 0 125 0 0 -120z m-800 -10 l0 -120 -125 0 -125 0 0 120 0 120 125 0 125 0
0 -120z m1540 0 l0 -120 -125 0 -125 0 0 120 0 120 125 0 125 0 0 -120z m2260
-77 c42 -22 59 -40 84 -83 29 -52 31 -61 34 -187 l4 -132 -158 -3 c-88 -2
-185 -2 -218 0 l-58 3 4 132 c4 112 8 139 28 180 53 110 170 147 280 90z
m-870 -10 c42 -22 59 -40 84 -83 29 -52 31 -61 34 -186 l4 -132 -113 -7 c-63
-3 -159 -5 -214 -3 l-100 3 0 130 c0 89 4 141 14 165 51 127 173 174 291 113z
m1740 0 c42 -22 59 -40 84 -83 29 -51 31 -62 34 -181 l4 -127 -100 -7 c-55 -4
-153 -4 -217 0 l-117 8 4 126 c4 105 8 134 28 174 53 110 170 147 280 90z
m7100 -498 l0 -165 -175 0 -175 0 0 165 0 165 175 0 175 0 0 -165z m1230 -10
l0 -165 -175 0 -175 0 0 165 0 165 175 0 175 0 0 -165z m-2530 -10 l0 -165
-175 0 -175 0 0 165 0 165 175 0 175 0 0 -165z m-8930 -415 l0 -120 -125 0
-125 0 0 120 0 120 125 0 125 0 0 -120z m-750 -10 l0 -120 -125 0 -125 0 0
120 0 120 125 0 125 0 0 -120z m-810 -10 l0 -120 -125 0 -125 0 0 120 0 120
125 0 125 0 0 -120z m11770 -625 l0 -165 -175 0 -175 0 0 165 0 165 175 0 175
0 0 -165z m1230 -10 l0 -165 -175 0 -175 0 0 165 0 165 175 0 175 0 0 -165z
m-2530 -10 l0 -165 -175 0 -175 0 0 165 0 165 175 0 175 0 0 -165z"/>
</g>
</svg>
