<?xml version="1.0" standalone="no"?>
<!DOCTYPE svg PUBLIC "-//W3C//DTD SVG 20010904//EN"
 "http://www.w3.org/TR/2001/REC-SVG-20010904/DTD/svg10.dtd">
<svg version="1.0" xmlns="http://www.w3.org/2000/svg"
 width="2304.000000pt" height="803.000000pt" viewBox="0 0 2304.000000 803.000000"
 preserveAspectRatio="xMidYMid meet">

<g transform="translate(0.000000,803.000000) scale(0.100000,-0.100000)"
fill="rgba(0,0,0,0.4)" stroke="none">
<path d="M11156 8008 c-7 -13 -28 -66 -46 -118 -85 -248 -261 -621 -590 -1250
-316 -606 -511 -956 -653 -1175 l-110 -169 7 -701 c3 -385 9 -791 12 -901 l7
-201 -34 -6 c-19 -2 -100 -2 -180 2 l-146 6 -99 109 c-54 60 -129 147 -167
193 -37 46 -151 181 -253 300 -240 278 -324 384 -586 738 -518 700 -504 684
-568 700 -25 6 -80 -9 -90 -24 -3 -5 -68 -78 -146 -162 -77 -85 -167 -185
-200 -224 -216 -258 -354 -401 -1055 -1093 -442 -437 -515 -501 -558 -489 -16
4 -353 238 -668 464 -95 67 -177 123 -181 123 -15 0 -22 183 -22 616 l0 421
-32 49 c-17 27 -41 65 -53 84 -13 19 -64 100 -115 180 -50 80 -95 145 -99 145
-15 0 -253 -309 -314 -407 -16 -27 -17 -55 -7 -451 12 -478 6 -589 -32 -620
-13 -10 -68 -48 -123 -85 -186 -124 -530 -373 -684 -495 l-111 -87 0 -715 c0
-393 -4 -715 -8 -715 -15 0 -69 64 -124 145 -110 163 -265 564 -353 915 -9 36
-19 71 -24 78 -6 10 -229 13 -1085 16 -1223 3 -1100 13 -1131 -89 -66 -224
-321 -827 -473 -1120 l-57 -110 -3 -942 -3 -943 11521 0 11520 0 0 1298 0
1297 -115 125 c-366 399 -641 789 -772 1094 -19 44 -50 109 -69 144 -71 126
-94 196 -90 273 2 51 -1 72 -11 81 -20 16 -49 -3 -46 -31 2 -12 -2 -21 -7 -21
-6 0 -10 -9 -10 -20 0 -11 4 -20 9 -20 16 0 0 -70 -34 -152 -18 -42 -71 -143
-117 -225 -47 -81 -107 -191 -133 -243 -168 -335 -391 -668 -537 -805 -125
-115 -288 -209 -426 -244 -117 -30 -166 -28 -203 8 -26 27 -29 36 -29 98 -2
1510 -5 1802 -14 1835 -9 31 -30 51 -125 123 -253 190 -471 396 -811 765 -247
269 -242 263 -330 393 -40 60 -80 111 -87 114 -25 10 -59 -17 -94 -75 -77
-127 -228 -325 -347 -455 -70 -77 -161 -176 -202 -222 -266 -293 -407 -438
-521 -535 -70 -61 -133 -119 -139 -130 -7 -13 -10 -136 -10 -347 0 -181 0
-431 0 -557 l0 -230 -31 30 c-144 136 -676 776 -745 894 -25 44 -59 91 -75
105 -29 24 -37 25 -148 25 -116 0 -118 0 -144 28 -27 28 -27 30 -32 203 -3 96
-10 341 -16 546 l-12 371 -30 6 c-38 8 -384 6 -502 -3 l-90 -6 -6 -220 c-4
-121 -10 -368 -14 -550 l-8 -330 -33 -31 -32 -31 -284 -6 c-155 -4 -377 -12
-493 -17 -222 -12 -810 -6 -1115 11 -442 24 -401 24 -440 -3 -26 -18 -52 -56
-105 -158 -123 -234 -286 -460 -518 -718 -142 -157 -365 -378 -373 -369 -13
12 -16 854 -6 1452 l10 590 -70 130 c-38 72 -174 339 -303 595 -128 256 -250
497 -269 535 -130 254 -397 809 -460 957 -71 167 -154 400 -191 533 -21 77
-42 125 -55 125 -5 0 -16 -10 -24 -22z m130 -1437 c47 -22 80 -61 122 -146 71
-144 118 -330 129 -507 l6 -98 -340 0 c-290 0 -342 2 -346 15 -8 19 18 261 38
355 41 198 113 332 204 380 47 25 133 25 187 1z m7934 -1786 l0 -175 -145 0
-145 0 0 175 0 175 145 0 145 0 0 -175z m-8080 -270 l0 -135 -170 0 -170 0 0
135 0 135 170 0 170 0 0 -135z m480 -5 l0 -140 -185 0 -185 0 0 140 0 140 185
0 185 0 0 -140z m-480 -385 l0 -145 -170 0 -170 0 0 145 0 145 170 0 170 0 0
-145z m480 0 l0 -145 -185 0 -185 0 0 145 0 145 185 0 185 0 0 -145z m7630
-275 l0 -160 -160 0 -160 0 0 160 0 160 160 0 160 0 0 -160z m630 0 l0 -160
-160 0 -160 0 0 160 0 160 160 0 160 0 0 -160z m-1260 -10 l0 -160 -160 0
-160 0 0 160 0 160 160 0 160 0 0 -160z m-13978 -187 c28 -26 93 -149 103
-194 6 -26 5 -26 -62 -32 -37 -4 -85 -7 -105 -7 l-38 0 0 145 0 145 38 -15
c20 -9 49 -28 64 -42z m-196 10 c-3 -21 -6 -84 -6 -140 l0 -103 -105 0 c-58 0
-105 1 -105 3 0 2 11 36 25 77 30 87 62 132 123 171 63 40 76 38 68 -8z m4
-485 l0 -153 -68 1 c-37 1 -86 2 -109 3 l-43 1 0 144 0 145 28 4 c15 2 64 5
110 6 l82 1 0 -152z m225 142 l93 0 4 -58 c1 -33 2 -98 0 -145 l-3 -87 -110 0
-109 0 -1 60 c-2 227 -1 243 17 236 9 -3 58 -6 109 -6z m4035 -200 l0 -120
-265 0 -265 0 0 120 0 120 265 0 265 0 0 -120z m-1710 -10 l0 -120 -265 0
-265 0 0 120 0 120 265 0 265 0 0 -120z m710 10 l0 -110 -125 0 -125 0 0 110
0 110 125 0 125 0 0 -110z m14317 -10 c43 -26 77 -79 112 -176 39 -108 61
-217 61 -309 l0 -75 -249 0 c-138 0 -252 4 -255 8 -8 13 12 199 30 282 19 86
64 193 97 229 58 62 141 80 204 41z m-12307 -170 l0 -90 -100 0 -100 0 0 90 0
90 100 0 100 0 0 -90z m1440 -45 l0 -135 -170 0 -170 0 0 135 0 135 170 0 170
0 0 -135z m470 -5 l0 -140 -180 0 -180 0 0 140 0 140 180 0 180 0 0 -140z
m-470 -365 l0 -125 -170 0 -170 0 0 125 0 125 170 0 170 0 0 -125z m470 0 l0
-125 -180 0 -180 0 0 125 0 125 180 0 180 0 0 -125z m7610 -55 l0 -160 -160 0
-160 0 0 160 0 160 160 0 160 0 0 -160z m630 0 l0 -160 -160 0 -160 0 0 160 0
160 160 0 160 0 0 -160z m-1260 -10 l0 -160 -160 0 -160 0 0 160 0 160 160 0
160 0 0 -160z m-14020 43 c42 -22 59 -40 84 -83 29 -52 31 -61 34 -187 l4
-133 -217 0 -217 0 4 133 c4 112 8 139 28 180 53 110 170 147 280 90z m5140
-73 l0 -90 -100 0 -100 0 0 90 0 90 100 0 100 0 0 -90z m-1030 -160 l0 -120
-265 0 -265 0 0 120 0 120 265 0 265 0 0 -120z m-1710 -10 l0 -120 -265 0
-265 0 0 120 0 120 265 0 265 0 0 -120z m710 10 l0 -110 -125 0 -125 0 0 110
0 110 125 0 125 0 0 -110z m6285 -275 l0 -120 -122 -3 -123 -3 0 126 0 126
123 -3 122 -3 0 -120z m295 0 l0 -126 -122 3 -123 3 -3 109 c-1 61 0 116 2
123 4 10 36 13 126 13 l120 0 0 -125z m870 -20 l0 -125 -125 0 -125 0 0 125 0
125 125 0 125 0 0 -125z m300 0 l0 -125 -125 0 -125 0 0 125 0 125 125 0 125
0 0 -125z m808 -2 l3 -123 -126 0 -125 0 0 125 0 126 123 -3 122 -3 3 -122z
m292 2 l0 -125 -119 0 -120 0 -3 98 c-2 53 -2 109 0 125 l3 27 120 0 119 0 0
-125z m4980 -145 l0 -230 -165 0 -165 0 0 230 0 230 165 0 165 0 0 -230z m420
0 l0 -230 -155 0 -155 0 0 230 0 230 155 0 155 0 0 -230z m430 0 l0 -230 -160
0 -160 0 0 230 0 230 160 0 160 0 0 -230z m400 0 l0 -230 -145 0 -145 0 0 230
0 230 145 0 145 0 0 -230z m-8795 -145 l0 -120 -122 -3 -123 -3 0 126 0 126
123 -3 122 -3 0 -120z m295 0 l0 -126 -122 3 -123 3 -3 109 c-1 61 0 116 2
123 4 10 36 13 126 13 l120 0 0 -125z m870 -20 l0 -125 -125 0 -125 0 0 125 0
125 125 0 125 0 0 -125z m300 0 l0 -125 -125 0 -125 0 0 125 0 125 125 0 125
0 0 -125z m805 0 l0 -120 -122 -3 -123 -3 0 126 0 126 123 -3 122 -3 0 -120z
m296 121 c2 -2 3 -59 1 -125 l-3 -121 -119 0 -119 0 -3 121 c-2 66 -1 123 1
125 2 2 57 4 121 4 64 0 119 -2 121 -4z m-15661 -236 l0 -160 -160 0 -160 0 0
160 0 160 160 0 160 0 0 -160z m440 0 l0 -160 -160 0 -160 0 0 160 0 160 160
0 160 0 0 -160z m950 0 l0 -160 -160 0 -160 0 0 160 0 160 160 0 160 0 0 -160z
m440 0 l0 -160 -160 0 -160 0 0 160 0 160 160 0 160 0 0 -160z m16520 -430 l0
-160 -160 0 -160 0 0 160 0 160 160 0 160 0 0 -160z m630 0 l0 -160 -160 0
-160 0 0 160 0 160 160 0 160 0 0 -160z m-1260 -10 l0 -160 -160 0 -160 0 0
160 0 160 160 0 160 0 0 -160z m-16340 -290 l0 -160 -160 0 -160 0 0 160 0
160 160 0 160 0 0 -160z m450 0 l0 -160 -160 0 -160 0 0 160 0 160 160 0 160
0 0 -160z m-1830 -10 l0 -160 -160 0 -160 0 0 160 0 160 160 0 160 0 0 -160z
m440 0 l0 -160 -160 0 -160 0 0 160 0 160 160 0 160 0 0 -160z"/>
</g>
</svg>
