<?xml version="1.0" standalone="no"?>
<!DOCTYPE svg PUBLIC "-//W3C//DTD SVG 20010904//EN"
 "http://www.w3.org/TR/2001/REC-SVG-20010904/DTD/svg10.dtd">
<svg version="1.0" xmlns="http://www.w3.org/2000/svg"
 width="1369.000000pt" height="651.000000pt" viewBox="0 0 1369.000000 651.000000"
 preserveAspectRatio="xMidYMid meet">

<g transform="translate(0.000000,651.000000) scale(0.100000,-0.100000)"
fill="rgba(0,0,0,0.4)" stroke="none">
<path d="M8147 6493 c-4 -3 -7 -18 -7 -33 0 -27 -31 -135 -53 -180 -6 -14 -31
-56 -56 -93 -36 -55 -45 -78 -48 -125 -5 -64 -44 -190 -93 -296 -10 -23 -33
-77 -50 -121 -17 -44 -41 -100 -52 -125 -131 -296 -136 -305 -199 -415 -84
-148 -219 -342 -299 -433 -41 -46 -81 -96 -89 -110 -17 -31 -18 -318 -7 -1685
l8 -878 -59 30 c-64 32 -110 77 -197 191 -32 41 -65 79 -73 83 -20 12 -37 -5
-69 -71 -38 -80 -127 -204 -203 -285 -94 -99 -262 -195 -347 -197 -16 0 -30
1408 -14 1424 7 7 52 11 118 11 134 0 223 18 257 52 14 14 25 29 25 32 0 3
-21 31 -46 61 -39 47 -94 127 -150 217 -22 36 -73 168 -121 318 -25 77 -62
192 -83 255 -20 63 -42 138 -49 165 -27 114 -30 120 -60 138 -27 16 -125 17
-1551 17 -1672 0 -1549 5 -1605 -61 -34 -41 -114 -200 -166 -331 -22 -57 -55
-130 -73 -163 -60 -109 -89 -160 -113 -197 -12 -21 -23 -40 -23 -42 0 -12
-104 -176 -149 -235 -179 -231 -179 -231 -94 -271 44 -21 59 -22 181 -18 98 3
135 1 143 -8 7 -8 8 -136 3 -399 -7 -355 -9 -387 -25 -395 -47 -25 -69 -13
-175 95 -57 58 -146 156 -198 219 -52 63 -186 208 -299 322 -186 191 -288 302
-510 559 -71 82 -110 136 -220 306 -41 64 -62 84 -77 74 -6 -4 -38 -59 -70
-123 -76 -147 -85 -163 -141 -242 -26 -36 -72 -103 -104 -150 -73 -109 -159
-225 -260 -351 -44 -55 -108 -137 -143 -182 -34 -45 -84 -104 -110 -132 -26
-27 -75 -84 -109 -125 -34 -41 -102 -115 -152 -165 l-91 -90 0 -1167 0 -1168
6780 0 6780 0 0 949 0 949 -144 159 c-79 87 -176 189 -217 228 -41 38 -387
378 -770 755 -967 953 -1231 1206 -1276 1225 -77 33 -85 27 -343 -233 -130
-130 -299 -298 -375 -372 -176 -170 -630 -615 -975 -957 -146 -145 -274 -263
-283 -263 -16 0 -17 67 -17 1059 l0 1059 -43 48 c-24 27 -63 76 -86 109 -51
71 -151 224 -151 229 0 2 -17 33 -38 67 -66 109 -169 310 -202 394 -18 44 -40
98 -50 120 -55 123 -129 398 -137 508 -6 75 -8 81 -49 130 -24 28 -44 55 -44
61 0 5 -6 17 -14 25 -12 15 -23 43 -62 166 -21 69 -38 85 -89 85 -23 0 -45 -3
-48 -7z m88 -291 c29 -61 32 -74 19 -79 -16 -6 -145 4 -153 12 -2 3 3 13 11
22 9 10 28 42 42 71 15 29 31 52 36 50 6 -2 25 -36 45 -76z m97 -783 c33 -22
60 -57 106 -139 27 -50 51 -192 58 -356 l7 -141 -94 -13 c-52 -7 -177 -12
-279 -12 -213 1 -210 0 -210 91 0 170 36 374 80 461 29 56 109 122 161 133 52
11 136 -1 171 -24z m-527 -1288 c22 -15 53 -47 70 -71 29 -44 30 -48 33 -191
3 -89 0 -154 -6 -165 -23 -41 -255 -61 -367 -31 -47 12 -50 16 -57 53 -4 21
-5 91 -2 155 5 100 10 124 34 170 31 62 87 106 140 111 63 6 114 -4 155 -31z
m894 9 c46 -13 99 -64 122 -118 26 -59 28 -321 3 -346 -24 -25 -375 -24 -399
1 -15 15 -17 36 -13 174 4 153 4 158 33 205 51 81 150 114 254 84z m-5309
-1270 l0 -110 -110 0 -110 0 0 110 0 110 110 0 110 0 0 -110z m270 0 l0 -110
-110 0 -110 0 0 110 0 110 110 0 110 0 0 -110z m780 -20 l0 -110 -110 0 -110
0 0 110 0 110 110 0 110 0 0 -110z m270 0 l0 -110 -110 0 -110 0 0 110 0 110
110 0 110 0 0 -110z m730 0 l0 -110 -110 0 -110 0 0 110 0 110 110 0 110 0 0
-110z m270 0 l0 -110 -110 0 -110 0 0 110 0 110 110 0 110 0 0 -110z m-2320
-260 l0 -110 -110 0 -110 0 0 110 0 110 110 0 110 0 0 -110z m270 0 l0 -110
-110 0 -110 0 0 110 0 110 110 0 110 0 0 -110z m1050 -21 l0 -109 -109 0 c-92
0 -110 3 -115 16 -6 15 -9 15 -29 -4 -26 -24 -58 -28 -164 -17 l-73 8 0 108 0
108 245 0 245 0 0 -110z m730 1 l0 -110 -110 0 -110 0 0 110 0 110 110 0 110
0 0 -110z m270 0 l0 -110 -110 0 -110 0 0 110 0 110 110 0 110 0 0 -110z
m-4310 -642 c0 -84 3 -162 5 -173 11 -44 -3 -49 -189 -53 l-176 -4 0 191 0
191 180 0 180 0 0 -152z m750 -43 l0 -185 -180 0 -180 0 0 185 0 185 180 0
180 0 0 -185z m-1490 -10 l0 -185 -180 0 -180 0 0 185 0 185 180 0 180 0 0
-185z m10150 -105 l0 -190 -175 0 -175 0 0 190 0 190 175 0 175 0 0 -190z
m-710 -10 l0 -190 -175 0 -175 0 0 190 0 190 175 0 175 0 0 -190z m1390 0 l0
-190 -175 0 -175 0 0 190 0 190 175 0 175 0 0 -190z m670 0 l0 -190 -175 0
-175 0 0 190 0 190 175 0 175 0 0 -190z m720 -10 l0 -190 -175 0 -175 0 0 190
0 190 175 0 175 0 0 -190z m-2493 13 c-2 -21 -4 -4 -4 37 0 41 2 58 4 38 2
-21 2 -55 0 -75z m-3437 -563 l0 -120 -120 0 -120 0 0 120 0 120 120 0 120 0
0 -120z m10 -470 l0 -120 -120 0 -120 0 0 120 0 120 120 0 120 0 0 -120z m10
-460 l0 -120 -120 0 -120 0 0 120 0 120 120 0 120 0 0 -120z"/>
</g>
</svg>
